<?xml version="1.0" standalone="no"?>
<!DOCTYPE svg PUBLIC "-//W3C//DTD SVG 20010904//EN"
 "http://www.w3.org/TR/2001/REC-SVG-20010904/DTD/svg10.dtd">
<svg version="1.0"
        xmlns="http://www.w3.org/2000/svg" width="450.000000pt" height="450.000000pt" viewBox="0 0 450.000000 450.000000" preserveAspectRatio="xMidYMid meet">
        <metadata>Created by potrace 1.14, written by Peter Selinger 2001-2017</metadata>
        <g transform="translate(0.000000,450.000000) scale(0.100000,-0.100000)" fill="#000000" stroke="none">
                <path d="M2915 4102 c-65 -23 -165 -89 -165 -110 0 -8 -3 -13 -6 -9 -7 7 -54
-38 -54 -52 0 -6 -6 -14 -13 -18 -8 -4 -34 -41 -60 -80 -26 -40 -52 -73 -58
-73 -6 0 -25 10 -42 22 -28 20 -44 22 -191 25 -88 2 -175 8 -194 14 -25 8 -36
8 -48 -1 -8 -7 -29 -14 -46 -16 -69 -8 -246 -46 -313 -66 -38 -12 -82 -23 -97
-25 -15 -1 -42 -12 -60 -23 -18 -11 -42 -20 -54 -20 -39 0 -160 99 -298 244
-76 80 -148 149 -160 152 -30 7 -153 -14 -193 -33 -26 -12 -33 -21 -33 -44 0
-19 -5 -29 -15 -29 -35 0 -75 -63 -110 -170 -9 -30 -21 -62 -26 -70 -16 -26
-23 -65 -48 -240 -11 -83 -3 -325 14 -380 9 -30 19 -66 22 -78 3 -13 21 -40
39 -60 19 -21 34 -40 34 -44 0 -3 12 -20 26 -37 29 -35 47 -32 38 4 -6 23 -4
24 31 18 21 -3 58 -17 84 -29 25 -13 52 -24 60 -24 8 0 11 -6 7 -15 -3 -8 -1
-15 4 -15 6 0 10 7 10 15 0 11 5 12 26 5 14 -6 36 -10 49 -10 15 0 29 -9 36
-21 8 -16 13 -18 19 -9 10 16 60 22 60 7 0 -9 3 -9 8 -1 4 6 21 16 39 22 28 9
32 8 36 -10 4 -13 10 -17 19 -12 7 5 4 -5 -7 -21 -30 -44 -28 -213 3 -279 12
-25 22 -60 22 -77 0 -29 36 -110 52 -117 4 -2 17 -24 27 -48 l20 -45 -21 -24
c-12 -14 -27 -25 -33 -25 -6 0 -16 -12 -23 -27 -10 -23 -11 -24 -8 -5 5 25 6
25 -117 -75 -16 -13 -32 -23 -35 -23 -4 0 -21 34 -37 77 -28 74 -82 163 -152
253 -46 58 -192 200 -265 257 -31 25 -64 59 -72 76 -9 18 -36 55 -62 82 -65
71 -136 180 -134 207 3 36 -1 45 -10 23 l-8 -20 -8 20 c-4 11 -10 22 -14 25
-13 11 -43 65 -52 94 -24 76 -26 95 -12 107 16 13 18 35 4 44 -6 3 -14 -4 -19
-17 -8 -21 -9 -20 -20 17 -16 57 -14 61 14 35 20 -19 25 -20 25 -7 0 8 -9 19
-20 22 -11 3 -20 11 -20 16 0 6 -4 8 -9 5 -12 -8 -19 32 -20 112 -1 74 -2 78
-38 87 -15 3 -30 11 -34 16 -3 5 -11 -13 -19 -41 -7 -27 -18 -50 -22 -50 -5 0
-7 -4 -4 -9 3 -5 0 -20 -7 -35 -10 -19 -17 -22 -25 -14 -9 9 -11 3 -9 -20 3
-40 18 -36 35 9 13 34 11 11 -3 -41 -5 -20 -4 -22 4 -10 10 13 12 13 21 0 5
-8 8 -21 5 -29 -6 -17 16 -94 30 -103 6 -5 5 -8 -4 -8 -9 0 -11 -7 -8 -21 4
-16 2 -19 -11 -15 -14 5 -14 3 2 -8 10 -8 15 -19 11 -25 -3 -6 1 -11 9 -11 11
0 16 -10 16 -33 0 -36 26 -97 41 -97 5 0 9 -9 9 -21 0 -19 -4 -20 -43 -14 -23
4 -55 16 -70 27 -16 11 -31 17 -35 13 -4 -3 1 -11 11 -16 12 -7 16 -18 12 -37
-5 -25 -5 -25 4 -4 6 12 14 22 19 22 16 0 22 -13 11 -27 -9 -10 -8 -13 5 -13
9 0 16 7 16 15 0 22 17 18 30 -6 14 -25 4 -62 -10 -39 -5 8 -13 11 -17 6 -4
-4 0 -13 10 -20 9 -7 17 -19 17 -25 0 -24 25 -4 26 20 3 64 4 66 27 65 14 -1
22 -7 21 -18 -1 -10 3 -16 9 -15 6 1 16 -14 23 -33 9 -26 18 -35 33 -34 14 0
20 -4 17 -13 -3 -7 19 -37 49 -67 30 -30 55 -61 55 -69 0 -8 10 -36 22 -63 18
-42 22 -46 29 -29 7 18 8 17 8 -6 1 -20 9 -30 33 -40 40 -17 98 -67 98 -85 0
-8 4 -14 9 -14 5 0 11 -10 15 -23 8 -33 37 -63 67 -70 24 -6 99 -102 99 -127
0 -5 5 -9 12 -8 6 2 27 -41 47 -97 19 -55 39 -102 43 -103 4 -2 6 -7 3 -12 -4
-7 24 -101 44 -145 22 -47 21 -133 0 -119 -5 3 -12 -3 -16 -13 -4 -10 -15 -27
-25 -37 -10 -11 -18 -25 -18 -31 0 -6 -12 -22 -26 -36 -14 -13 -34 -40 -45
-59 -10 -19 -18 -29 -19 -22 0 6 -5 12 -11 12 -6 0 -9 -7 -5 -15 7 -19 -12
-63 -41 -94 -12 -12 -30 -40 -40 -62 -10 -21 -23 -39 -29 -39 -39 -1 -24 -108
21 -155 20 -22 29 -39 23 -47 -12 -20 -42 -121 -39 -136 1 -8 -3 -20 -10 -28
-6 -8 -9 -28 -6 -47 3 -17 3 -26 0 -20 -8 21 -23 15 -23 -8 0 -20 -4 -21 -47
-14 -27 4 -49 11 -51 16 -2 5 -17 9 -33 9 -16 0 -29 4 -29 8 0 12 -46 32 -71
32 -12 0 -34 9 -50 21 -19 13 -36 18 -50 14 -15 -5 -19 -4 -14 5 4 7 1 10 -11
8 -11 -2 -18 2 -17 8 1 7 -6 10 -20 7 -16 -3 -18 -2 -9 5 10 7 -1 14 -40 26
-29 10 -77 31 -107 47 -35 18 -62 27 -77 23 -19 -5 -22 -3 -17 15 6 24 -14 30
-23 7 -3 -8 -12 -17 -21 -20 -12 -5 -14 -1 -11 18 3 16 0 27 -9 30 -11 5 -13
-91 -13 -594 l1 -600 69 0 c42 0 70 4 72 11 3 8 11 8 27 -2 19 -11 25 -11 28
-1 6 14 33 16 33 2 0 -5 14 -10 30 -10 17 0 30 5 30 10 0 6 -6 10 -14 10 -8 0
-18 5 -22 12 -5 8 -2 9 11 5 9 -4 24 -2 32 4 11 9 25 6 68 -15 l54 -26 544 0
c590 0 557 -3 557 51 0 11 5 17 10 14 6 -3 10 -19 10 -36 0 -27 3 -29 39 -29
33 0 40 4 45 26 4 14 12 24 19 21 7 -2 19 3 27 12 8 9 23 16 33 17 47 2 57 5
57 17 0 6 -12 20 -25 30 -25 18 -25 18 -25 -4 0 -22 0 -22 -15 -3 -13 17 -12
21 10 37 17 13 25 28 25 48 0 33 16 70 35 81 14 9 4 96 -13 107 -6 4 -10 19
-8 34 4 39 16 46 16 9 0 -17 6 -35 14 -39 7 -4 16 -28 19 -52 4 -34 0 -52 -19
-87 -27 -48 -31 -74 -10 -74 7 0 16 -9 19 -20 8 -29 37 -26 37 4 0 14 5 28 11
32 8 4 9 0 4 -15 -8 -26 0 -27 27 -1 12 11 26 19 31 17 5 -1 17 -26 27 -56 15
-41 16 -50 5 -41 -22 18 -38 -29 -24 -70 12 -32 29 -41 29 -14 0 8 -4 12 -10
9 -6 -4 -10 11 -10 37 l1 43 19 -39 c11 -22 20 -46 20 -53 0 -7 9 -13 20 -13
26 0 25 8 -2 29 -15 13 -19 23 -13 37 7 17 8 17 15 -6 l7 -25 12 25 11 25 -1
-30 c-2 -45 0 -55 10 -55 5 0 12 23 16 50 9 62 29 56 22 -6 -4 -41 5 -59 16
-31 4 9 6 9 6 0 1 -8 16 -13 41 -13 l40 0 -7 67 c-4 38 -7 105 -7 151 0 76 -7
100 -20 70 -3 -9 -9 -8 -20 6 -9 11 -22 16 -31 12 -12 -4 -16 -1 -13 11 4 19
39 27 50 10 4 -6 11 -8 15 -3 4 5 2 11 -4 13 -22 8 -14 30 18 57 26 22 30 32
25 56 -3 17 -1 30 4 30 6 0 10 6 10 13 0 7 14 40 31 73 19 36 31 74 30 98 0
45 -11 63 -12 20 0 -25 -2 -26 -9 -9 -7 15 -9 10 -9 -22 -1 -41 -14 -58 -24
-30 -2 6 -10 -6 -17 -28 -7 -22 -16 -45 -21 -51 -5 -6 -6 -13 -3 -17 3 -3 3
-16 -1 -28 l-7 -22 -14 24 c-7 13 -13 18 -14 11 0 -7 -5 -10 -11 -6 -8 5 -8 1
0 -14 13 -25 15 -72 2 -72 -5 0 -12 10 -14 23 -3 13 -5 8 -6 -15 0 -21 4 -38
9 -38 6 0 10 -4 10 -10 0 -5 -7 -10 -15 -10 -8 0 -15 -4 -15 -9 0 -5 -7 -11
-15 -15 -10 -4 -15 1 -15 15 0 11 5 17 10 14 6 -4 10 7 10 24 0 30 -9 39 -23
24 -4 -3 -2 -12 4 -19 7 -8 7 -14 -1 -19 -5 -3 -10 -16 -11 -28 0 -21 -1 -21
-9 -2 -7 16 -9 12 -10 -20 -2 -35 -3 -37 -10 -15 -8 26 -12 24 -13 -12 -1 -15
5 -22 23 -25 35 -5 46 -20 21 -28 -21 -6 -30 -35 -11 -35 6 0 10 -7 10 -15 0
-18 -16 -20 -24 -2 -3 6 -5 4 -3 -6 1 -10 5 -18 10 -18 4 1 17 1 28 1 18 0 21
4 16 30 -4 16 -2 32 2 35 5 3 7 14 4 25 -3 11 -1 20 5 20 20 0 22 -17 8 -70
-8 -30 -12 -59 -9 -67 3 -7 -3 -16 -13 -19 -11 -4 -28 -15 -40 -26 -21 -19
-54 -16 -54 5 0 7 4 7 12 -1 7 -7 16 -12 20 -12 12 0 10 38 -2 45 -7 4 -8 24
-4 50 4 31 2 50 -8 64 -15 21 -15 21 -26 -5 -15 -31 -15 -54 -2 -54 6 0 10 12
10 27 0 21 3 24 12 15 9 -9 9 -17 1 -34 -6 -13 -15 -36 -19 -53 l-7 -30 -9 35
c-5 19 -14 39 -19 45 -12 12 -12 102 1 110 6 3 10 16 10 29 0 22 20 73 41 106
5 8 12 23 15 33 4 9 10 17 14 17 5 0 11 9 15 20 3 11 11 19 18 17 6 -1 13 8
15 21 2 12 8 22 13 22 5 0 9 7 9 15 0 7 7 18 15 23 14 7 12 16 -12 64 -30 61
-43 73 -35 33 6 -32 -15 -33 -27 -3 -8 21 -9 19 -9 -9 1 -18 4 -30 8 -28 16
10 19 -25 5 -52 -8 -15 -12 -36 -9 -47 4 -12 2 -16 -5 -12 -6 4 -12 22 -12 39
l-2 32 -10 -38 c-6 -20 -14 -37 -19 -37 -4 0 -8 -5 -8 -11 0 -6 -10 -19 -22
-30 -13 -10 -17 -18 -10 -19 23 0 12 -20 -12 -20 -24 0 -44 30 -32 48 3 5 0
22 -6 39 -10 25 -7 35 16 75 21 36 24 50 17 69 -8 20 -10 20 -10 5 -1 -10 -11
-35 -23 -54 -19 -31 -22 -33 -29 -16 -6 16 -8 14 -8 -9 -1 -30 -24 -61 -36
-49 -4 4 -5 2 -3 -4 3 -12 -47 -64 -62 -64 -5 0 -8 12 -7 27 2 21 -3 28 -16
28 -10 0 -22 7 -27 15 -5 8 -13 15 -17 15 -4 1 -18 6 -31 14 -23 12 -23 12
-16 -26 8 -47 20 -61 29 -34 8 26 25 28 25 2 0 -20 -27 -48 -37 -38 -3 4 -12
-1 -19 -11 -12 -15 -13 -10 -14 38 0 35 -6 64 -16 79 -13 19 -14 27 -4 45 17
33 9 80 -15 84 -27 5 -65 42 -65 63 0 26 -29 89 -41 89 -6 0 -9 8 -6 19 3 14
0 17 -14 14 -14 -4 -19 0 -19 15 0 33 19 74 31 66 8 -5 8 -1 0 13 -6 11 -7 23
-4 27 3 3 0 6 -8 6 -45 0 -76 33 -70 73 0 4 -6 7 -14 7 -8 0 -15 -6 -15 -12 0
-7 -5 -5 -11 6 -9 15 -13 16 -21 5 -7 -10 -7 -7 -3 9 7 23 -10 32 -18 10 -2
-7 -8 -9 -13 -5 -5 4 -2 12 6 18 13 8 13 10 0 19 -13 8 -13 10 2 10 9 0 19 6
21 13 4 9 6 9 6 0 1 -7 6 -13 12 -13 5 0 8 4 4 10 -11 18 33 50 66 46 24 -3
32 1 38 18 5 11 11 20 15 18 3 -1 22 5 42 13 20 8 53 15 73 15 20 0 72 10 116
21 119 31 125 32 125 20 0 -6 13 3 29 19 30 32 87 56 148 64 21 2 55 11 75 20
21 9 39 16 40 15 4 -1 53 18 98 37 19 9 50 22 68 30 18 8 41 14 50 14 10 0 28
7 41 16 21 15 24 15 42 -5 24 -26 30 -26 71 -1 29 17 119 38 141 32 4 -1 7 2
7 8 0 17 18 11 23 -8 3 -14 6 -11 17 11 7 15 18 26 24 24 12 -4 146 129 146
146 0 7 5 5 10 -5 12 -20 3 -48 -15 -48 -7 0 -18 -6 -24 -13 -8 -11 -6 -20 9
-37 11 -13 20 -27 20 -32 0 -4 7 -8 15 -8 8 0 15 -6 15 -14 0 -8 6 -17 13 -19
7 -3 6 -6 -5 -6 -9 -1 -19 -10 -23 -20 -3 -10 -15 -21 -25 -24 -11 -3 -20 -10
-20 -15 0 -17 29 -22 44 -7 19 19 24 19 29 -2 3 -12 5 -9 6 8 1 24 31 52 31
29 0 -6 4 -10 10 -10 5 0 7 7 4 15 -4 9 0 15 10 15 9 0 16 4 16 10 0 5 16 16
35 25 34 13 37 13 58 -8 17 -17 22 -32 20 -67 -1 -25 -3 -90 -5 -145 -2 -56
-10 -110 -17 -123 -7 -13 -10 -26 -8 -29 3 -2 8 5 12 16 3 12 11 21 17 21 5 0
7 7 4 16 -3 8 -2 12 4 9 5 -3 9 -18 9 -33 0 -15 3 -52 6 -82 4 -41 2 -51 -6
-40 -8 12 -10 10 -5 -10 3 -14 6 -32 7 -40 0 -8 7 -1 14 15 l14 30 1 -32 c0
-18 -4 -33 -10 -33 -5 0 -10 -9 -10 -20 0 -36 18 -21 25 21 5 28 10 38 17 31
8 -8 7 -21 -2 -44 -19 -47 -29 -56 -41 -35 -6 9 -17 17 -25 17 -11 0 -10 -5 6
-22 25 -27 25 -31 0 -93 l-20 -50 6 40 c6 45 -11 70 -40 59 -20 -8 -21 -24 -1
-24 10 0 15 -11 15 -35 0 -22 6 -38 18 -44 9 -6 11 -11 5 -11 -18 0 -16 -30 2
-30 9 0 15 -9 15 -21 0 -18 -2 -19 -15 -9 -9 7 -17 11 -18 9 -43 -60 -54 -108
-35 -147 10 -18 9 -26 -5 -39 -16 -16 -17 -15 -17 20 0 20 -5 37 -10 37 -18 0
-23 -29 -9 -46 7 -9 12 -29 11 -45 -2 -21 1 -27 12 -23 21 8 25 -7 10 -41 -8
-19 -13 -23 -14 -12 0 26 -14 20 -28 -13 -8 -16 -21 -30 -29 -30 -13 0 -14 7
-9 37 4 21 9 91 12 156 5 105 4 117 -11 117 -9 0 -19 9 -22 20 -6 23 -23 27
-23 5 0 -20 -17 -19 -29 2 -8 14 -11 11 -16 -20 -5 -27 -12 -37 -21 -33 -15 6
-18 -3 -8 -28 6 -15 8 -15 19 1 13 17 14 17 20 0 7 -17 8 -17 20 0 17 22 21
18 30 -30 5 -25 4 -37 -4 -37 -6 0 -11 7 -11 15 0 8 -4 15 -10 15 -5 0 -10 -7
-10 -15 0 -22 -17 -18 -23 5 -8 33 -37 14 -36 -24 1 -28 2 -29 8 -7 6 21 8 22
20 8 7 -9 10 -21 6 -27 -3 -5 -1 -10 6 -10 8 0 9 -14 4 -46 -4 -32 -3 -44 4
-39 6 3 11 31 11 61 0 30 4 54 9 54 5 0 6 -41 3 -90 -4 -76 -2 -90 10 -90 20
0 30 -37 17 -61 -13 -26 -11 -39 7 -39 11 0 14 6 9 20 -8 24 7 26 26 4 10 -12
10 -20 1 -35 -7 -10 -12 -30 -12 -44 0 -34 -18 -32 -23 3 -2 15 -3 8 -1 -16 5
-56 22 -72 77 -72 l44 0 -2 57 c-1 32 -7 77 -14 101 -10 35 -9 46 4 64 8 13
15 39 15 60 0 26 6 41 20 51 21 14 21 15 -4 21 -26 6 -26 6 -6 26 23 23 28 49
6 31 -11 -9 -15 -5 -20 20 -9 48 -7 55 9 33 14 -17 15 -14 10 39 -3 34 -1 57
5 57 6 0 10 -11 10 -25 0 -22 9 -50 32 -101 6 -12 7 -32 2 -45 -8 -23 -9 -22
-15 11 -6 29 -7 27 -3 -10 5 -51 15 -182 16 -220 0 -14 -3 -43 -7 -64 -6 -26
-5 -37 2 -33 6 4 14 23 17 42 4 20 11 33 16 30 6 -4 7 7 4 25 -4 19 -2 30 5
30 6 0 11 10 11 21 0 18 -2 19 -15 9 -10 -8 -15 -9 -15 -1 0 6 11 18 25 27 14
9 25 21 24 28 0 7 -2 7 -5 -1 -3 -7 -12 -9 -20 -6 -11 4 -13 17 -8 56 3 28 7
54 10 58 2 4 -7 28 -21 53 -25 47 -34 116 -15 116 6 0 10 -15 10 -34 0 -36 23
-101 40 -111 6 -4 8 -10 5 -16 -3 -5 -3 -24 1 -43 5 -31 8 -33 20 -21 10 9 14
36 13 82 0 37 2 96 6 131 5 43 3 67 -5 77 -15 18 -3 20 14 3 20 -22 33 -126
35 -288 2 -150 2 -155 -21 -173 -13 -10 -17 -16 -10 -12 8 4 12 -4 12 -27 -1
-30 -2 -31 -14 -15 -9 12 -16 14 -21 8 -3 -6 -1 -11 4 -11 14 0 14 -37 1 -45
-6 -4 -7 -11 -4 -17 4 -6 10 -5 15 3 7 11 9 11 9 -2 0 -8 -7 -24 -15 -35 -8
-10 -15 -38 -15 -61 0 -24 -4 -43 -10 -43 -5 0 -9 -15 -9 -32 l2 -33 5 30 c6
29 6 29 12 -10 6 -31 7 -21 9 44 0 46 4 81 8 78 3 -4 5 -37 5 -74 -1 -38 3
-75 9 -83 9 -12 10 -12 5 3 -3 10 1 25 9 33 13 13 14 10 11 -28 -3 -24 -6 -51
-8 -62 -2 -11 3 -20 14 -21 15 -3 24 35 28 125 2 56 6 75 17 75 6 0 15 3 19 7
4 5 0 8 -9 8 -10 0 -17 5 -17 10 0 6 12 10 26 10 19 0 25 4 20 15 -6 16 19 22
28 6 5 -8 85 -22 146 -26 14 -1 36 -4 50 -7 14 -3 19 -3 13 -1 -28 9 -11 18
27 15 26 -3 40 0 40 8 0 6 -3 9 -7 7 -5 -3 -26 -1 -48 3 -37 7 -36 8 23 9 47
1 64 -3 68 -14 4 -8 10 -13 14 -10 5 3 24 -4 42 -14 18 -11 53 -23 78 -26 70
-9 90 -15 90 -24 0 -10 -36 -9 -150 4 -50 5 -72 3 -94 -9 -18 -9 -36 -12 -45
-7 -9 5 -21 6 -28 4 -6 -2 -14 1 -18 6 -3 6 -11 11 -17 11 -27 0 18 -31 53
-36 22 -4 39 -10 39 -15 0 -9 -9 -11 -70 -13 -24 -1 -36 -6 -38 -19 -3 -12 3
-17 22 -17 17 0 26 -6 26 -16 0 -8 -4 -12 -10 -9 -5 3 -19 1 -31 -6 l-21 -11
23 -23 c13 -12 27 -21 31 -19 4 3 9 0 13 -6 4 -6 73 -10 181 -10 l174 0 0 25
c0 14 0 28 -1 31 0 7 26 23 76 48 l30 15 -34 1 c-24 0 -32 4 -28 14 3 8 -1 17
-8 20 -28 11 -5 33 33 31 20 -1 40 3 45 9 5 7 11 6 18 -4 8 -11 12 -12 16 -2
9 23 39 13 41 -13 1 -21 -4 -27 -28 -31 -36 -8 -63 -34 -34 -34 11 0 36 5 57
11 31 8 37 14 32 30 -4 12 -1 21 8 25 9 3 13 13 10 25 -7 25 14 25 22 -1 7
-21 28 -28 23 -7 -2 6 2 13 7 14 6 1 9 -8 8 -21 -1 -21 3 -23 38 -23 22 0 42
4 45 8 9 15 47 11 41 -4 -7 -19 8 -41 22 -33 6 4 11 20 11 37 0 16 5 29 10 29
10 0 14 -13 11 -42 -1 -10 2 -18 7 -18 14 0 25 31 23 59 -2 14 1 21 8 17 6 -4
11 -19 11 -33 0 -21 3 -24 23 -19 12 3 30 6 40 6 9 0 17 5 17 11 0 6 -7 9 -15
5 -10 -4 -15 1 -15 15 0 11 7 22 15 25 9 4 15 19 15 39 0 41 -12 46 -107 45
-37 0 -77 0 -88 1 -31 2 -208 -12 -225 -17 -12 -4 -13 -3 -2 7 6 7 12 16 12
20 0 7 -61 -4 -77 -14 -6 -4 -33 -8 -61 -11 -45 -4 -52 -2 -57 15 -4 11 -13
18 -20 16 -7 -3 -67 4 -135 15 -86 14 -128 17 -144 10 -48 -22 -78 -32 -99
-33 -17 -1 -18 -2 -4 -6 20 -5 23 -23 3 -23 -8 0 -17 -7 -20 -16 -7 -18 -34
-16 -96 6 -19 7 -42 15 -50 18 -33 10 10 13 46 3 22 -6 41 -7 44 -2 3 5 16 11
30 14 14 2 -4 5 -40 7 -36 1 -69 2 -74 1 -4 -1 -14 3 -21 9 -13 11 -45 4 -45
-11 0 -5 10 -9 22 -9 27 0 20 -7 -12 -12 -24 -3 -25 -1 -27 66 -1 37 -6 73
-11 80 -4 6 -7 22 -5 36 8 57 11 170 4 170 -3 0 -8 35 -9 78 -1 42 -4 89 -7
104 -4 14 -1 29 5 33 11 7 4 46 -10 55 -11 7 -30 194 -30 288 0 114 -14 183
-50 240 -42 68 -73 157 -74 212 -1 79 78 167 211 234 65 32 122 69 194 124 31
23 64 42 73 42 20 0 58 18 67 33 4 5 4 58 1 117 -5 103 -3 111 21 152 33 57
101 119 208 192 97 65 92 65 166 -5 39 -37 63 -50 113 -63 34 -9 64 -15 66
-14 1 2 -2 40 -7 86 -10 77 -9 84 12 113 14 20 25 27 31 21 12 -12 129 14 140
31 5 7 -2 20 -17 32 -16 13 -25 31 -25 48 0 17 -7 30 -17 34 -67 23 -68 67 -4
164 54 82 54 102 -2 89 -30 -6 -84 -4 -114 5 -8 3 0 38 26 114 43 123 41 127
-34 91 -23 -11 -47 -30 -53 -43 -6 -12 -11 -16 -11 -9 -1 18 -71 -39 -71 -57
0 -8 -3 -11 -7 -8 -3 4 -12 -2 -20 -13 -8 -11 -21 -20 -30 -20 -8 0 -13 -6
-10 -13 3 -8 -18 -2 -53 15 -55 26 -88 58 -104 102 -6 17 -8 18 -24 2 -33 -29
-54 -196 -37 -278 9 -39 30 -79 38 -71 4 3 7 1 7 -5 0 -14 -85 -102 -98 -102
-5 0 -23 -16 -39 -35 -17 -19 -33 -35 -35 -35 -10 0 -88 -80 -88 -90 0 -5 -7
-7 -16 -3 -11 4 -15 18 -13 54 2 27 -1 52 -5 56 -4 5 -7 3 -6 -2 1 -6 1 -21 0
-35 -2 -24 -2 -24 -16 7 -7 18 -23 37 -34 43 -23 12 -30 9 -82 -40 -15 -14
-54 -45 -87 -70 -33 -25 -60 -51 -61 -57 0 -7 -6 -13 -13 -13 -6 0 -31 -17
-55 -37 -84 -74 -95 -83 -108 -83 -7 0 -21 -9 -31 -19 -10 -11 -32 -22 -48
-25 -54 -10 -76 -15 -96 -21 -17 -6 -19 -1 -19 34 0 26 5 41 13 41 18 1 42 38
71 115 37 97 39 99 77 106 41 7 90 31 110 55 13 16 12 17 -16 10 -16 -4 -36
-14 -42 -23 -7 -9 -13 -13 -13 -7 0 5 -5 2 -11 -6 -9 -12 -9 -11 -4 5 5 11 10
32 13 48 2 15 12 33 21 40 9 7 32 30 51 51 l35 38 -44 -23 c-24 -12 -46 -30
-48 -40 -3 -10 -12 -21 -21 -25 -19 -8 -62 -15 -62 -9 0 14 22 57 26 52 4 -3
16 3 27 14 15 14 18 22 10 30 -8 8 -13 5 -18 -10 -12 -40 -31 -23 -32 29 0 28
4 50 9 50 6 0 8 6 5 14 -3 8 0 20 8 26 11 9 14 6 18 -12 3 -19 5 -18 6 7 1 23
3 27 11 15 8 -13 10 -12 10 3 0 10 4 16 9 12 5 -3 22 6 37 20 14 13 30 22 35
19 5 -3 9 0 9 6 0 6 11 15 25 20 14 5 25 15 25 21 0 15 59 69 75 69 32 0 166
191 190 272 8 29 15 89 15 137 0 83 -10 119 -49 181 -5 8 -25 49 -44 90 -42
93 -110 163 -203 210 -57 30 -80 35 -143 37 -52 2 -92 -3 -126 -15z m130 -22
c3 -5 11 -10 16 -10 6 0 7 5 3 11 -5 8 -1 8 14 0 11 -6 30 -11 42 -11 15 0 20
-5 18 -17 -4 -20 -28 -30 -28 -10 0 7 -7 14 -15 14 -8 0 -15 -4 -15 -9 0 -4 5
-8 10 -8 6 0 10 -9 10 -20 0 -19 -1 -20 -24 -5 -22 14 -28 15 -52 2 -24 -12
-31 -12 -63 4 -26 12 -41 14 -54 7 -11 -5 -28 -8 -38 -5 -10 3 -19 2 -19 -2 0
-4 -10 -7 -22 -8 -23 -2 -23 -2 2 17 14 11 31 20 38 20 6 0 12 4 12 9 0 16 77
24 102 10 21 -11 22 -11 9 4 -12 15 -10 17 17 17 17 0 34 -4 37 -10z m148 -44
c9 -7 17 -22 18 -32 0 -18 1 -18 9 1 8 21 8 22 26 -32 4 -13 7 -14 13 -5 11
18 76 -75 73 -105 -1 -16 2 -22 10 -17 7 4 8 3 4 -5 -4 -6 -12 -8 -18 -5 -6 4
-8 -2 -3 -17 4 -17 4 -20 -3 -10 -6 8 -8 28 -6 45 3 21 -2 41 -15 61 -15 21
-21 25 -21 13 0 -9 5 -20 10 -23 6 -3 9 -18 9 -33 l-1 -27 -8 30 c-4 17 -8 26
-9 22 0 -5 -20 8 -43 27 -23 20 -49 36 -57 36 -9 1 -26 6 -38 13 l-23 13 31
18 c17 10 28 20 26 23 -3 2 -18 -4 -33 -14 -21 -13 -26 -14 -19 -3 26 42 39
48 68 26z m-2283 -86 c0 -5 -5 -10 -11 -10 -5 0 -7 5 -4 10 3 6 8 10 11 10 2
0 4 -4 4 -10z m1940 -14 c0 -3 -4 -8 -10 -11 -5 -3 -10 -1 -10 4 0 6 5 11 10
11 6 0 10 -2 10 -4z m284 -21 c24 -26 63 -36 50 -12 -4 6 8 -2 27 -20 l33 -32
-21 -19 c-12 -10 -23 -31 -25 -47 -2 -18 -9 -30 -18 -30 -8 0 -20 -4 -27 -8
-20 -13 -136 -17 -150 -5 -9 7 -13 7 -13 -1 0 -6 -4 -11 -10 -11 -5 0 -9 10
-7 23 1 17 -3 22 -19 21 -16 -1 -20 4 -19 26 3 42 15 57 32 35 12 -18 13 -18
13 1 0 21 48 71 63 66 5 -1 6 2 3 7 -8 12 21 30 47 31 10 0 28 -11 41 -25z
m-2139 -15 c10 -11 13 -20 7 -20 -7 0 -12 -7 -12 -16 0 -12 -7 -15 -25 -12
-20 4 -30 -1 -45 -23 -13 -17 -16 -30 -10 -34 7 -4 7 -12 0 -25 -7 -12 -7 -27
0 -45 12 -31 13 -45 3 -45 -5 0 -9 12 -10 26 0 15 -6 30 -13 34 -9 6 -9 13 -1
28 8 15 8 21 -1 24 -8 3 -7 11 5 28 9 14 17 37 17 52 0 46 53 63 85 28z m-144
-3 c-6 -8 -8 -17 -5 -20 9 -8 -6 -28 -16 -22 -11 7 9 55 23 55 5 0 5 -6 -2
-13z m1964 -7 c3 -5 1 -10 -4 -10 -6 0 -11 5 -11 10 0 6 2 10 4 10 3 0 8 -4
11 -10z m-2022 -89 c-6 -3 -15 -15 -21 -26 -11 -19 -11 -19 -12 2 0 13 8 32
18 43 15 18 17 19 20 4 2 -9 0 -19 -5 -23z m2567 -1 c1 23 2 23 9 5 4 -11 6
-28 3 -38 -4 -17 -5 -17 -18 0 -7 10 -13 27 -13 38 1 16 2 15 9 -5 l8 -25 2
25z m-630 0 c0 -5 -2 -10 -4 -10 -3 0 -8 5 -11 10 -3 6 -1 10 4 10 6 0 11 -4
11 -10z m-1502 -112 c7 -9 6 -17 -3 -25 -11 -10 -17 -7 -29 12 -16 24 -15 25
3 25 10 0 23 -6 29 -12z m-343 -18 c3 -5 1 -10 -4 -10 -6 0 -11 5 -11 10 0 6
2 10 4 10 3 0 8 -4 11 -10z m75 -15 c7 -8 27 -17 46 -21 18 -3 38 -12 44 -19
6 -8 18 -11 26 -8 8 3 14 0 14 -6 0 -12 -37 -11 -57 2 -6 4 -15 2 -19 -4 -5
-8 -9 -8 -14 2 -11 17 -40 -12 -40 -40 0 -11 -9 -25 -20 -31 -11 -6 -20 -21
-20 -33 -1 -20 -2 -20 -11 -4 -14 24 -32 11 -18 -14 9 -17 7 -20 -8 -17 -13 2
-18 -3 -18 -21 0 -22 5 -25 45 -28 27 -1 47 2 52 10 5 8 8 4 8 -10 0 -16 -6
-23 -20 -23 -11 0 -20 -6 -20 -12 0 -9 -4 -8 -10 2 -7 10 -10 -8 -10 -60 0
-73 0 -74 -17 -50 l-17 24 -6 -25 c-4 -13 -5 -40 -2 -60 3 -31 7 -36 24 -31
14 3 21 -1 25 -17 3 -11 12 -21 19 -21 8 0 14 -8 14 -19 0 -16 11 -20 67 -27
52 -7 69 -13 71 -26 2 -12 -5 -19 -25 -24 -89 -19 -122 -35 -132 -65 -5 -16
-15 -29 -22 -29 -6 0 -9 7 -6 14 4 10 1 13 -8 10 -9 -4 -12 0 -8 14 6 25 -11
36 -29 19 -12 -12 -19 -10 -47 13 -20 17 -28 30 -22 34 6 4 11 16 11 27 0 11
-4 17 -10 14 -9 -6 -15 20 -12 55 1 8 2 29 4 45 1 17 6 33 11 36 5 4 11 35 14
69 3 50 1 62 -9 57 -11 -4 -14 14 -12 90 1 58 6 98 13 103 7 4 9 15 5 26 -6
16 -5 17 7 6 11 -10 11 -16 1 -32 -7 -12 -8 -20 -2 -20 5 0 10 4 10 8 0 4 16
23 35 42 19 19 35 39 35 44 0 13 33 45 46 45 6 1 17 -6 24 -14z m320 -59 c0
-18 -17 8 -24 34 l-7 25 15 -25 c9 -14 15 -29 16 -34z m2006 35 c32 5 41 -3
39 -33 -1 -18 -4 -40 -7 -48 -17 -46 -26 -95 -21 -103 3 -6 1 -7 -5 -3 -7 4
-13 -7 -18 -29 -3 -19 -10 -35 -15 -35 -5 0 -9 -10 -9 -23 0 -31 -10 -40 -28
-24 -11 8 -14 8 -9 0 8 -12 -23 -82 -35 -83 -11 0 -48 -38 -48 -49 0 -5 -8 -8
-17 -7 -9 0 -22 -9 -28 -21 -7 -13 -15 -20 -18 -17 -3 4 -13 -1 -22 -10 -23
-23 -35 -11 -35 36 0 35 2 39 15 28 13 -10 15 -9 15 9 0 12 5 19 10 16 6 -3
10 -1 10 4 0 16 33 51 47 51 7 0 13 5 13 10 0 6 7 10 15 10 8 0 15 7 15 15 0
8 4 15 10 15 5 0 18 19 29 43 11 23 20 36 21 29 0 -7 4 -11 9 -8 10 6 3 46 -8
46 -3 0 -6 22 -6 49 0 42 2 48 14 38 12 -10 13 -9 4 8 -6 11 -9 33 -6 48 6 28
18 36 25 15 3 -7 7 -5 11 6 4 10 3 15 -3 11 -6 -3 -10 -2 -10 3 0 16 13 22 26
12 6 -6 16 -10 20 -9z m-1541 -31 c-23 -9 -41 3 -31 19 5 8 13 8 29 -1 21 -11
21 -11 2 -18z m-48 -27 c-3 -3 -11 -2 -17 2 -8 5 -7 11 2 22 12 15 13 14 16
-1 2 -10 1 -20 -1 -23z m-920 -20 c-3 -10 -5 -4 -5 12 0 17 2 24 5 18 2 -7 2
-21 0 -30z m1050 -45 c-3 -7 -5 -2 -5 12 0 14 2 19 5 13 2 -7 2 -19 0 -25z
m43 -24 c13 -33 13 -34 -4 -28 -16 6 -28 54 -14 54 5 0 13 -12 18 -26z m325 6
c3 -5 1 -10 -4 -10 -6 0 -11 5 -11 10 0 6 2 10 4 10 3 0 8 -4 11 -10z m-1525
-22 c0 -16 -3 -19 -11 -11 -6 6 -8 16 -5 22 11 17 16 13 16 -11z m1465 -58
c-5 -25 -10 -29 -19 -20 -8 10 -8 14 2 17 6 3 12 14 12 26 0 11 3 18 6 14 3
-3 3 -20 -1 -37z m1252 18 c-3 -8 -6 -5 -6 6 -1 11 2 17 5 13 3 -3 4 -12 1
-19z m-3190 -30 c-3 -7 -5 -2 -5 12 0 14 2 19 5 13 2 -7 2 -19 0 -25z m1748
-18 c34 -66 34 -90 0 -59 -13 13 -25 30 -25 38 0 8 -7 19 -16 25 -15 12 -10
46 7 46 5 0 20 -22 34 -50z m1419 19 c-6 -11 -10 -29 -13 -71 -2 -27 -18 -22
-23 7 -3 14 -1 22 5 18 5 -3 8 0 5 8 -2 7 3 21 11 31 17 20 26 24 15 7z
m-1966 -49 c7 0 12 -6 12 -14 0 -8 5 -16 12 -18 6 -2 13 -20 14 -39 2 -30 1
-32 -11 -16 -13 18 -14 18 -32 0 -12 -12 -18 -32 -18 -56 2 -42 -1 -44 -27
-20 -22 19 -25 65 -4 57 22 -8 31 17 12 32 -10 7 -15 17 -12 22 3 6 0 12 -8
15 -20 8 -28 47 -9 47 8 0 11 -5 7 -12 -4 -7 -3 -8 4 -4 7 4 12 14 12 23 0 15
2 14 18 0 10 -10 24 -17 30 -17z m1926 -36 c7 -18 -31 -77 -45 -69 -5 3 -7 16
-5 28 7 34 7 34 16 7 7 -22 8 -21 9 13 1 38 14 49 25 21z m-1254 -29 c0 -8 -4
-15 -10 -15 -5 0 -10 7 -10 15 0 8 5 15 10 15 6 0 10 -7 10 -15z m-70 -31 c7
-17 7 -31 -1 -42 -10 -16 -10 -16 -5 1 3 9 1 17 -4 17 -6 0 -10 11 -10 25 0
32 8 32 20 -1z m-1100 -27 c0 -5 -4 -5 -10 -2 -5 3 -10 14 -10 23 0 15 2 15
10 2 5 -8 10 -19 10 -23z m387 1 c-3 -7 -5 -2 -5 12 0 14 2 19 5 13 2 -7 2
-19 0 -25z m-17 13 c0 -5 -9 -12 -19 -16 -23 -7 -73 4 -66 14 6 11 85 12 85 2z
m44 -6 c-4 -8 -8 -15 -10 -15 -2 0 -4 7 -4 15 0 8 4 15 10 15 5 0 7 -7 4 -15z
m2483 -7 c-3 -8 -6 -5 -6 6 -1 11 2 17 5 13 3 -3 4 -12 1 -19z m-527 2 c0 -5
-2 -10 -4 -10 -3 0 -8 5 -11 10 -3 6 -1 10 4 10 6 0 11 -4 11 -10z m-2509 -53
c-8 -8 -11 -5 -11 9 0 27 14 41 18 19 2 -9 -1 -22 -7 -28z m655 -20 c8 -4 19
-17 25 -29 9 -16 8 -19 -3 -16 -7 3 -13 11 -13 19 0 8 -8 13 -18 11 -13 -2
-17 4 -16 25 0 16 3 22 6 13 3 -8 12 -19 19 -23z m1584 0 c0 -5 -4 -5 -10 -2
-5 3 -10 14 -10 23 0 15 2 15 10 2 5 -8 10 -19 10 -23z m-1427 -54 c-4 -26 -2
-31 14 -30 10 1 23 9 30 17 10 12 15 13 32 2 16 -9 21 -9 21 0 0 9 3 9 12 0
18 -18 87 -14 132 7 105 50 170 44 212 -18 l24 -36 0 28 c0 15 5 27 11 27 8 0
9 -17 4 -56 -4 -38 -3 -54 4 -50 5 4 8 13 5 20 -3 8 -1 16 3 19 5 3 9 -31 10
-75 1 -45 6 -84 11 -87 4 -3 12 -15 17 -26 7 -17 9 -15 16 15 4 19 4 -2 1 -48
-4 -69 -3 -82 10 -77 13 5 48 -49 48 -76 0 -6 9 -22 20 -36 15 -19 20 -21 20
-9 0 9 4 16 9 16 6 0 7 -15 4 -33 -3 -24 0 -37 12 -47 15 -12 19 -12 31 5 13
18 14 18 14 -6 0 -13 5 -31 10 -39 7 -12 13 -11 34 10 15 13 26 29 26 36 0 6
7 17 15 24 8 7 15 24 15 38 l0 25 24 -23 c14 -12 32 -20 39 -17 8 3 23 37 33
76 11 44 24 71 32 71 9 0 11 7 7 20 -6 18 -1 27 33 65 6 7 12 20 12 27 0 21
41 43 50 27 6 -8 9 -6 13 7 3 14 5 12 6 -8 0 -14 -4 -28 -10 -30 -7 -2 -10
-10 -7 -18 3 -11 6 -11 16 1 38 46 62 71 62 64 0 -5 6 -1 14 10 7 10 22 19 32
20 11 0 25 4 32 9 7 4 15 1 18 -9 5 -12 9 -13 20 -4 8 6 14 18 14 27 0 8 3 13
6 10 3 -4 1 -23 -5 -44 -12 -42 -3 -60 36 -75 24 -9 33 -51 11 -48 -31 4 -40
-2 -35 -21 4 -14 0 -20 -11 -20 -10 0 -26 -14 -37 -30 -18 -24 -21 -44 -20
-124 0 -53 -1 -91 -3 -86 -2 6 -8 10 -13 10 -20 0 12 -40 36 -46 43 -11 25
-51 -20 -47 -16 1 -16 1 -2 -3 9 -3 17 -12 17 -20 0 -28 -53 -146 -69 -152 -9
-3 -19 -10 -23 -16 -5 -7 -8 -7 -8 2 0 16 -45 16 -58 -1 -7 -7 -9 -29 -6 -49
4 -21 2 -38 -5 -42 -7 -5 -11 4 -12 26 -1 22 -3 26 -6 11 -5 -26 -33 -53 -33
-32 0 9 -3 10 -11 2 -8 -8 -8 -17 0 -31 14 -27 14 -32 -4 -32 -8 0 -15 -5 -15
-11 0 -7 -13 -25 -30 -41 -16 -15 -30 -24 -30 -18 0 5 -8 10 -17 10 -15 0 -16
2 -3 10 8 5 11 13 6 17 -4 4 -13 0 -21 -10 -12 -17 -14 -16 -43 8 -30 25 -68
25 -58 0 2 -7 7 -33 11 -57 6 -43 5 -47 -24 -67 -17 -12 -31 -20 -31 -16 0 3
-13 -1 -30 -10 -60 -31 -102 -9 -85 44 3 11 0 23 -7 27 -7 4 -10 4 -6 -1 5 -5
-8 -19 -27 -32 -41 -28 -41 -28 -48 -4 -3 15 1 21 17 23 13 2 20 10 20 21 -1
9 4 17 11 17 24 0 35 63 13 76 -15 9 -48 -32 -48 -60 0 -17 -2 -18 -10 -6 -7
12 -10 11 -16 -5 -10 -26 -23 -37 -57 -53 -33 -14 -37 -15 -37 -3 0 5 9 11 20
14 21 5 28 27 9 27 -5 0 -7 5 -3 11 4 8 9 7 14 -2 6 -9 18 -3 44 22 57 53 43
103 -15 55 -17 -14 -35 -26 -40 -26 -6 0 -8 -4 -5 -8 9 -15 -11 -34 -48 -42
-20 -4 -36 -4 -36 0 0 5 -8 16 -17 26 -17 17 -17 17 5 12 24 -7 27 -1 13 21
-5 7 -14 10 -20 7 -6 -4 -11 -1 -12 6 0 7 -4 4 -9 -7 -7 -17 -9 -17 -9 -2 -1
9 -5 17 -10 17 -12 0 -79 63 -79 75 0 5 -6 11 -13 14 -8 2 -9 -1 -3 -10 7 -12
5 -12 -9 0 -13 10 -14 17 -6 33 9 16 7 24 -5 36 -9 9 -16 11 -16 5 0 -6 -12
-10 -28 -9 -29 1 -72 37 -72 60 0 19 -68 86 -88 86 -10 0 -23 4 -31 9 -12 8
-12 12 -2 24 9 12 9 16 -1 20 -10 3 -8 10 6 26 16 17 16 21 4 21 -30 0 -41 26
-29 67 l10 38 -5 -37 c-3 -21 -1 -38 4 -38 15 0 21 38 12 69 -5 18 -3 36 5 52
8 14 10 26 4 30 -10 6 -17 52 -19 124 -1 26 -4 34 -8 22 -7 -16 -9 -16 -25 3
-14 17 -14 20 -2 20 9 0 15 9 15 23 -1 22 -1 22 -16 2 -15 -19 -16 -17 -10 31
3 28 2 62 -3 75 -10 24 -10 24 -10 -5 l-1 -29 -22 28 c-12 16 -23 35 -24 44
-1 9 -5 25 -9 36 -5 16 -5 17 4 5 8 -12 11 -12 17 3 3 9 12 17 20 17 13 0 18
17 15 50 -2 12 0 12 7 2 7 -11 15 -8 36 13 14 14 31 23 38 19 6 -4 8 -3 4 4
-3 5 0 12 6 15 18 6 28 -22 21 -60z m-1316 25 c-3 -8 -6 -5 -6 6 -1 11 2 17 5
13 3 -3 4 -12 1 -19z m1773 2 c0 -5 -4 -10 -10 -10 -5 0 -10 5 -10 10 0 6 5
10 10 10 6 0 10 -4 10 -10z m107 -12 c-3 -8 -6 -5 -6 6 -1 11 2 17 5 13 3 -3
4 -12 1 -19z m-30 -65 c-3 -10 -5 -2 -5 17 0 19 2 27 5 18 2 -10 2 -26 0 -35z
m573 35 c0 -7 -5 -20 -10 -28 -8 -12 -10 -9 -10 13 0 15 5 27 10 27 6 0 10 -6
10 -12z m-1528 -29 c36 3 35 -5 -2 -24 -40 -21 -50 -19 -50 11 0 18 4 23 12
17 7 -4 25 -6 40 -4z m1450 -31 c-7 -7 -12 -8 -12 -2 0 6 3 14 7 17 3 4 9 5
12 2 2 -3 -1 -11 -7 -17z m-1515 -30 c-3 -8 -6 -5 -6 6 -1 11 2 17 5 13 3 -3
4 -12 1 -19z m1543 0 c0 -18 -2 -20 -9 -8 -6 8 -7 18 -5 22 9 14 14 9 14 -14z
m-1863 -20 c-3 -7 -5 -2 -5 12 0 14 2 19 5 13 2 -7 2 -19 0 -25z m104 9 c-10
-9 -11 -8 -5 6 3 10 9 15 12 12 3 -3 0 -11 -7 -18z m1236 -9 c-3 -7 -5 -2 -5
12 0 14 2 19 5 13 2 -7 2 -19 0 -25z m-1331 -33 c-9 -9 -16 -13 -16 -8 0 12
22 34 28 28 2 -2 -3 -11 -12 -20z m42 -9 c-7 -8 -15 -12 -17 -11 -5 6 10 25
20 25 5 0 4 -6 -3 -14z m132 -6 c0 9 3 11 8 5 4 -5 13 -10 21 -10 8 0 16 -6
19 -12 2 -7 -4 -13 -13 -13 -24 0 -55 19 -55 33 0 7 4 6 10 -3 9 -13 10 -13
10 0z m1178 -31 c-18 -12 -28 -11 -28 1 0 6 7 10 15 10 8 0 16 8 16 18 1 15 2
15 6 -2 3 -10 -1 -22 -9 -27z m739 19 c-3 -8 -6 -5 -6 6 -1 11 2 17 5 13 3 -3
4 -12 1 -19z m-1410 -30 c-3 -7 -5 -2 -5 12 0 14 2 19 5 13 2 -7 2 -19 0 -25z
m741 -151 c-13 -13 -15 -12 -15 14 0 26 2 28 15 15 13 -13 13 -16 0 -29z
m1238 -92 c-2 -57 0 -124 6 -147 5 -24 11 -59 14 -78 2 -19 8 -46 13 -60 5
-14 12 -56 15 -95 3 -38 12 -89 21 -113 12 -33 13 -48 4 -64 -9 -17 -13 -18
-20 -7 -7 11 -9 9 -9 -7 0 -17 -5 -20 -25 -16 -14 2 -25 0 -25 -5 0 -5 -15 -7
-33 -5 -27 3 -35 -1 -47 -22 -7 -14 -17 -26 -21 -26 -12 0 -33 44 -23 47 5 2
16 8 24 13 13 9 13 11 0 20 -8 5 -13 10 -10 11 3 0 13 2 23 4 9 2 15 0 12 -4
-2 -4 1 -8 8 -8 8 0 12 21 12 64 0 34 -4 63 -8 63 -4 0 -3 9 3 19 13 25 13 54
0 46 -6 -4 -8 -10 -6 -14 7 -11 -10 -34 -21 -28 -10 6 -8 214 2 246 4 12 2 21
-4 21 -6 0 -11 -16 -11 -35 0 -19 -4 -35 -10 -35 -5 0 -10 -9 -10 -20 0 -21
-19 -60 -34 -71 -4 -4 -7 -25 -5 -47 3 -29 1 -38 -8 -35 -22 8 -16 76 8 97 15
12 20 26 17 46 -2 16 -1 27 4 24 4 -3 8 4 8 15 0 26 -22 23 -32 -4 -4 -11 -6
-2 -3 21 3 28 1 43 -8 47 -8 3 -13 -10 -14 -41 -1 -24 -5 -47 -8 -50 -3 -4
-19 -1 -35 5 -20 7 -30 8 -30 1 0 -6 -11 -8 -25 -4 -24 6 -25 4 -25 -34 0 -27
-4 -39 -11 -34 -6 3 -8 17 -4 32 6 26 6 26 -14 8 -12 -11 -21 -26 -21 -35 -1
-13 -4 -12 -16 4 -11 14 -15 15 -14 5 4 -25 0 -40 -7 -38 -5 1 -19 -4 -32 -11
-24 -13 -24 -13 -19 32 5 40 25 77 42 77 4 0 3 -12 0 -27 -7 -25 -6 -26 7 -13
8 8 18 23 22 33 4 10 11 15 17 12 5 -3 10 2 11 12 0 10 3 13 6 6 2 -7 9 -13
15 -13 6 0 8 7 5 14 -4 10 -1 13 9 9 9 -3 14 1 14 12 0 9 9 19 20 22 11 3 17
9 14 14 -3 5 2 6 10 3 9 -3 16 -1 16 5 0 6 9 11 20 11 11 0 19 5 17 12 -1 7 3
12 10 13 13 0 192 185 193 198 0 4 2 7 5 7 3 0 4 -47 1 -105z m-1189 33 c-3
-7 -5 -2 -5 12 0 14 2 19 5 13 2 -7 2 -19 0 -25z m-25 -3 c3 -14 1 -25 -3 -25
-5 0 -9 4 -9 9 0 5 -3 16 -6 25 -3 9 -2 16 4 16 5 0 12 -11 14 -25z m68 -55
c0 -5 -4 -10 -10 -10 -5 0 -10 5 -10 10 0 6 5 10 10 10 6 0 10 -4 10 -10z
m-20 -45 c0 -8 -2 -15 -4 -15 -2 0 -6 7 -10 15 -3 8 -1 15 4 15 6 0 10 -7 10
-15z m1370 -105 c0 -5 -4 -10 -10 -10 -5 0 -10 5 -10 10 0 6 5 10 10 10 6 0
10 -4 10 -10z m-42 -49 c-8 -12 -17 -18 -21 -15 -3 3 2 14 11 25 21 24 28 16
10 -10z m-371 -54 c-6 -20 -27 -19 -27 2 0 14 5 19 15 14 9 -3 14 -10 12 -16z
m-62 3 c3 -5 -3 -10 -15 -10 -12 0 -18 5 -15 10 3 6 10 10 15 10 5 0 12 -4 15
-10z m-355 -20 c0 -5 -2 -10 -4 -10 -3 0 -8 5 -11 10 -3 6 -1 10 4 10 6 0 11
-4 11 -10z m707 -62 c-3 -8 -6 -5 -6 6 -1 11 2 17 5 13 3 -3 4 -12 1 -19z
m-500 -14 c-3 -3 -12 -4 -19 -1 -8 3 -5 6 6 6 11 1 17 -2 13 -5z m303 -4 c0
-5 -5 -10 -11 -10 -5 0 -7 5 -4 10 3 6 8 10 11 10 2 0 4 -4 4 -10z m-140 -20
c0 -5 -2 -10 -4 -10 -3 0 -8 5 -11 10 -3 6 -1 10 4 10 6 0 11 -4 11 -10z m-40
-15 c0 -9 -6 -12 -15 -9 -8 4 -12 10 -9 15 8 14 24 10 24 -6z m100 -6 c0 -6
-4 -7 -10 -4 -5 3 -10 11 -10 16 0 6 5 7 10 4 6 -3 10 -11 10 -16z m-246 2 c4
-5 -3 -7 -14 -4 -23 6 -26 13 -6 13 8 0 17 -4 20 -9z m-1224 -11 c0 -5 -2 -10
-4 -10 -3 0 -8 5 -11 10 -3 6 -1 10 4 10 6 0 11 -4 11 -10z m1538 -18 c2 -12
-1 -22 -7 -22 -6 0 -11 -7 -11 -15 0 -8 -7 -15 -15 -15 -17 0 -20 16 -5 25 6
3 10 18 10 31 0 31 24 27 28 -4z m-201 2 c-3 -3 -12 -4 -19 -1 -8 3 -5 6 6 6
11 1 17 -2 13 -5z m-133 -29 c-10 -8 -24 -15 -31 -15 -6 0 -14 -6 -16 -12 -3
-8 -6 -6 -6 5 -1 10 6 17 18 17 11 0 23 5 26 10 3 6 11 10 18 10 6 0 2 -7 -9
-15z m-1492 -17 c-7 -7 -12 -8 -12 -2 0 6 3 14 7 17 3 4 9 5 12 2 2 -3 -1 -11
-7 -17z m1708 18 c0 -3 -4 -8 -10 -11 -5 -3 -10 -1 -10 4 0 6 5 11 10 11 6 0
10 -2 10 -4z m160 -6 c0 -5 -4 -10 -9 -10 -6 0 -13 5 -16 10 -3 6 1 10 9 10 9
0 16 -4 16 -10z m-1895 -87 c-6 -17 -22 -16 -28 1 -4 10 -1 13 8 10 11 -5 13
3 10 33 l-5 38 10 -35 c5 -19 7 -41 5 -47z m1793 60 c-2 -10 -10 -17 -17 -15
-7 1 -11 -5 -9 -15 4 -21 -28 -57 -42 -48 -17 11 -11 27 23 61 36 38 50 43 45
17z m112 -3 c0 -5 -5 -10 -11 -10 -5 0 -7 5 -4 10 3 6 8 10 11 10 2 0 4 -4 4
-10z m-583 -30 c-1 -22 -17 -28 -17 -7 0 12 9 27 16 27 2 0 2 -9 1 -20z m383
10 c0 -5 -2 -10 -4 -10 -3 0 -8 5 -11 10 -3 6 -1 10 4 10 6 0 11 -4 11 -10z
m-1753 -32 c-3 -7 -5 -2 -5 12 0 14 2 19 5 13 2 -7 2 -19 0 -25z m1488 11 c11
-16 1 -19 -13 -3 -7 8 -8 14 -3 14 5 0 13 -5 16 -11z m274 -42 c12 -15 11 -17
-8 -17 -14 0 -21 6 -21 20 0 11 -7 23 -15 26 -8 4 -12 10 -9 16 6 9 20 -3 53
-45z m-362 21 c-3 -8 -6 -5 -6 6 -1 11 2 17 5 13 3 -3 4 -12 1 -19z m137 -9
c-8 -14 -24 -10 -24 6 0 9 6 12 15 9 8 -4 12 -10 9 -15z m-1563 -12 c-10 -9
-11 -8 -5 6 3 10 9 15 12 12 3 -3 0 -11 -7 -18z m1469 13 c0 -5 -2 -10 -4 -10
-3 0 -8 5 -11 10 -3 6 -1 10 4 10 6 0 11 -4 11 -10z m-1608 -22 c-7 -7 -12 -8
-12 -2 0 14 12 26 19 19 2 -3 -1 -11 -7 -17z m1887 -26 c-1 -33 -2 -34 -9 -12
-8 24 -8 24 -9 -7 -1 -17 -5 -34 -10 -37 -4 -3 -11 -27 -14 -53 -16 -131 -39
-175 -64 -126 -7 14 -10 36 -7 49 4 14 -1 39 -10 58 -9 19 -14 41 -11 50 3 9
7 23 10 31 4 14 7 14 28 0 25 -16 62 -11 51 7 -4 6 -9 5 -14 -2 -5 -8 -7 -3
-7 13 2 31 11 34 27 10 11 -17 11 -17 6 0 -7 23 11 70 24 62 5 -3 10 -23 9
-43z m-249 -1 c-6 -12 -16 -19 -23 -14 -8 5 -8 8 1 11 7 2 12 13 12 25 0 15 3
18 11 10 8 -8 8 -17 -1 -32z m-50 19 c0 -5 -2 -10 -4 -10 -3 0 -8 5 -11 10 -3
6 -1 10 4 10 6 0 11 -4 11 -10z m452 -38 c-9 -2 -21 -8 -26 -13 -6 -5 -15 -9
-20 -9 -6 0 -3 7 8 15 10 8 15 19 10 26 -4 8 -3 10 4 5 7 -4 12 -2 12 5 0 7 6
4 14 -7 13 -17 13 -19 -2 -22z m-1892 12 c0 -8 -5 -12 -10 -9 -6 4 -8 11 -5
16 9 14 15 11 15 -7z m-39 -67 c-13 -13 -15 11 -4 40 7 16 8 15 11 -6 2 -13
-1 -28 -7 -34z m1287 39 c6 -4 12 -12 12 -18 0 -7 -6 -6 -15 2 -18 15 -19 7
-3 -20 10 -15 9 -22 -5 -38 -11 -12 -15 -26 -11 -37 5 -13 4 -16 -5 -11 -6 4
-23 0 -36 -8 -22 -15 -25 -15 -25 -1 0 8 5 14 11 13 6 -2 16 6 22 17 7 11 15
22 19 25 8 6 5 60 -3 60 -3 0 -12 -11 -19 -25 -10 -19 -16 -22 -27 -14 -7 6
-13 17 -13 23 0 7 4 6 9 -2 6 -11 11 -10 25 3 9 9 16 22 16 29 0 14 27 15 48
2z m119 -21 c-9 -19 -13 -21 -15 -9 -3 13 12 33 25 34 0 0 -4 -11 -10 -25z
m71 -15 c-2 -6 -8 -6 -18 0 -13 9 -13 11 0 20 15 10 25 0 18 -20z m-106 -20
c-6 -41 -12 -38 -12 6 0 19 4 33 8 30 5 -3 7 -19 4 -36z m-1406 3 c-10 -10
-19 5 -10 18 6 11 8 11 12 0 2 -7 1 -15 -2 -18z m1367 -7 c-1 -14 2 -26 8 -26
19 0 8 -18 -14 -22 -27 -5 -47 0 -47 13 0 4 7 6 15 3 14 -6 21 16 16 55 -2 7
4 11 11 8 7 -2 12 -16 11 -31z m115 17 c2 -8 -5 -13 -20 -12 -13 0 -17 3 -9 6
11 5 11 7 0 15 -11 7 -9 8 5 6 11 -2 21 -9 24 -15z m-1230 -18 c-3 -3 -9 2
-12 12 -6 14 -5 15 5 6 7 -7 10 -15 7 -18z m542 -11 c0 -8 -4 -12 -10 -9 -5 3
-10 13 -10 21 0 8 5 12 10 9 6 -3 10 -13 10 -21z m80 -6 c0 -6 -6 -5 -15 2 -8
7 -15 14 -15 16 0 2 7 1 15 -2 8 -4 15 -11 15 -16z m966 -3 c-9 -9 -16 -13
-16 -8 0 12 22 34 28 28 2 -2 -3 -11 -12 -20z m-1869 -7 c-3 -8 -6 -5 -6 6 -1
11 2 17 5 13 3 -3 4 -12 1 -19z m1120 2 c3 -10 2 -11 -4 -4 -4 6 -15 14 -23
17 -11 5 -9 6 4 4 11 -1 21 -9 23 -17z m24 -3 c-10 -9 -11 -8 -5 6 3 10 9 15
12 12 3 -3 0 -11 -7 -18z m118 8 c8 0 16 -6 19 -13 2 -7 -2 -10 -12 -6 -11 4
-16 0 -17 -12 0 -11 -3 -14 -6 -6 -2 6 -9 10 -14 6 -11 -6 -12 7 -3 31 4 9 10
13 13 8 3 -4 12 -8 20 -8z m-799 -22 c0 -16 2 -42 6 -59 4 -20 2 -34 -6 -39
-10 -6 -11 -2 -7 16 6 25 -15 64 -27 52 -4 -4 -4 0 0 10 3 9 11 17 16 17 6 0
8 7 4 15 -3 8 -1 15 4 15 6 0 10 -12 10 -27z m245 10 c-4 -10 -8 -23 -8 -30 0
-7 -3 -10 -7 -8 -4 2 -12 -7 -19 -21 -6 -14 -15 -23 -19 -20 -5 3 -9 0 -9 -7
0 -7 -3 -23 -7 -36 -11 -33 15 -23 32 12 7 15 19 27 25 27 12 0 25 14 47 50 6
10 12 12 20 4 15 -15 -11 -74 -54 -119 l-35 -37 -157 -3 c-120 -2 -158 -6
-165 -16 -7 -11 -9 -11 -9 2 0 11 -10 17 -32 18 -18 2 -41 3 -50 4 -10 1 -18
8 -18 16 0 11 -3 10 -13 -4 -13 -17 -14 -17 -20 4 -3 11 -1 19 4 15 5 -3 9 0
9 6 0 6 5 8 10 5 6 -4 10 6 10 22 -1 24 -3 26 -13 13 -19 -24 -34 -22 -41 5
-4 14 -11 25 -16 25 -12 0 -12 11 0 30 8 13 11 12 25 -5 14 -17 16 -17 11 -2
-7 21 -2 22 18 2 11 -11 39 -17 96 -18 l80 -2 2 30 c1 30 1 30 5 -3 4 -28 7
-31 19 -21 12 10 14 5 15 -27 0 -41 17 -96 18 -61 1 9 8 17 16 17 8 0 15 7 15
15 0 8 6 15 14 15 7 0 19 7 26 15 8 10 17 12 28 6 11 -6 24 1 49 27 18 19 33
39 33 45 0 5 9 7 21 4 12 -3 22 0 26 9 3 8 10 14 15 14 6 0 7 -8 3 -17z m-438
-15 c-3 -8 -6 -5 -6 6 -1 11 2 17 5 13 3 -3 4 -12 1 -19z m942 -25 c-1 -27 -4
-39 -6 -28 -9 37 -24 47 -38 28 -8 -10 -16 -15 -20 -11 -4 3 3 16 14 27 22 22
37 28 26 11 -3 -5 -1 -10 4 -10 6 0 11 7 11 15 0 8 2 15 5 15 3 0 4 -21 4 -47z
m-148 -16 c-30 -29 -33 -30 -28 -9 3 13 0 22 -6 22 -7 0 -5 5 3 10 8 5 24 7
35 5 11 -3 14 -2 7 1 -6 3 -9 10 -6 16 4 6 10 6 17 -1 8 -8 2 -20 -22 -44z
m-973 21 c-2 -16 -11 -22 -33 -24 l-30 -3 28 12 c16 6 25 17 23 24 -3 7 -1 13
5 13 6 0 9 -10 7 -22z m404 -13 c3 -14 1 -25 -3 -25 -5 0 -9 6 -9 14 0 8 -3
22 -7 32 -4 11 -3 15 4 11 6 -4 13 -18 15 -32z m-372 15 c0 -5 -5 -10 -11 -10
-5 0 -7 5 -4 10 3 6 8 10 11 10 2 0 4 -4 4 -10z m33 -10 c-3 -11 -9 -20 -13
-20 -5 0 -6 9 -3 20 3 11 9 20 13 20 5 0 6 -9 3 -20z m815 -15 c-3 -3 -9 2
-12 12 -6 14 -5 15 5 6 7 -7 10 -15 7 -18z m-1045 -10 c-8 -22 -22 -18 -16 5
3 11 9 17 14 15 4 -3 6 -12 2 -20z m957 4 c0 -14 38 -49 55 -49 8 0 15 6 15
13 0 8 7 14 15 14 34 0 11 -24 -50 -51 -38 -17 -65 -36 -66 -45 -1 -13 -2 -12
-6 2 -5 20 -23 23 -23 5 0 -9 -3 -9 -8 -3 -4 6 -15 11 -24 12 -34 1 -38 3 -38
19 0 8 5 12 10 9 6 -3 10 4 11 17 l0 23 9 -22 c9 -22 21 -32 19 -15 -4 25 2
62 10 58 13 -8 62 19 53 29 -4 5 -1 5 6 1 6 -4 12 -11 12 -17z m-774 -16 c-10
-10 -19 5 -10 18 6 11 8 11 12 0 2 -7 1 -15 -2 -18z m932 -26 c12 -3 10 -5 -5
-6 -20 -1 -23 4 -22 32 2 29 2 29 6 5 2 -15 12 -29 21 -31z m-1182 6 c-10 -10
-19 5 -10 18 6 11 8 11 12 0 2 -7 1 -15 -2 -18z m242 -30 c-2 -9 -10 -19 -18
-21 -13 -4 -13 -3 -2 11 10 12 11 21 3 36 -16 30 -13 39 5 13 8 -12 14 -30 12
-39z m1072 47 c0 -5 -12 -10 -27 -10 -22 0 -25 2 -13 10 20 13 40 13 40 0z
m-1040 -15 c-7 -9 -15 -13 -17 -11 -7 7 7 26 19 26 6 0 6 -6 -2 -15z m-75 -32
c-8 -7 -21 -13 -29 -13 -9 0 -21 -9 -28 -20 -7 -11 -19 -20 -28 -20 -9 0 -6 6
9 16 14 10 21 23 18 34 -4 16 -1 17 20 9 20 -8 24 -7 20 5 -7 17 15 28 25 13
3 -6 0 -16 -7 -24z m1025 27 c0 -5 -5 -10 -11 -10 -5 0 -7 5 -4 10 3 6 8 10
11 10 2 0 4 -4 4 -10z m-1253 -22 c-3 -8 -6 -5 -6 6 -1 11 2 17 5 13 3 -3 4
-12 1 -19z m-27 -37 c-7 -17 -16 -28 -21 -25 -5 3 -9 -7 -9 -21 0 -15 4 -24
10 -20 6 3 10 1 10 -5 0 -7 7 -27 16 -46 13 -28 14 -39 5 -57 -6 -12 -9 -14
-7 -4 8 26 -11 70 -26 61 -10 -6 -10 -5 -1 8 11 12 10 18 -6 32 -18 16 -19 16
-17 -16 1 -23 7 -34 19 -36 12 -2 16 -10 12 -20 -2 -10 -7 -39 -9 -65 -5 -55
-24 -87 -37 -65 -7 10 -9 9 -9 -4 0 -10 -5 -18 -11 -18 -6 0 -9 9 -6 19 4 16
0 19 -22 16 -14 -2 -25 -7 -24 -11 0 -5 -5 -15 -13 -22 -8 -7 -14 -8 -14 -2 0
5 -5 10 -11 10 -5 0 -7 -5 -4 -10 9 -15 -13 -40 -30 -34 -7 3 -13 21 -13 43
-1 41 12 70 25 57 4 -5 2 -11 -4 -13 -16 -6 -17 -29 -1 -39 6 -4 8 -3 5 3 -4
6 0 19 8 29 8 10 15 31 15 47 0 15 5 27 10 27 6 0 10 11 10 24 0 27 15 42 25
26 3 -5 1 -10 -4 -10 -6 0 -11 -5 -11 -12 0 -26 31 19 35 51 4 31 35 87 35 63
0 -7 5 -10 11 -6 6 3 9 15 6 25 -3 11 -1 16 5 13 15 -10 29 19 15 29 -7 5 -2
5 12 2 21 -6 23 -5 17 11 -6 15 -5 16 5 7 9 -9 9 -19 -1 -42z m116 13 c-4 -9
-9 -15 -11 -12 -3 3 -3 13 1 22 4 9 9 15 11 12 3 -3 3 -13 -1 -22z m-79 -66
c-3 -8 -6 -5 -6 6 -1 11 2 17 5 13 3 -3 4 -12 1 -19z m813 2 c0 -5 -4 -10 -10
-10 -5 0 -10 5 -10 10 0 6 5 10 10 10 6 0 10 -4 10 -10z m170 -22 c0 8 5 10
13 5 6 -4 18 -8 25 -9 16 -3 27 -12 21 -18 -2 -2 -24 -6 -49 -9 -64 -8 -90
-17 -90 -33 0 -8 -4 -14 -10 -14 -5 0 -10 7 -10 15 0 20 -10 19 -27 -2 -12
-16 -13 -15 -7 12 4 17 7 30 8 31 1 0 26 8 56 16 39 11 57 12 62 4 5 -7 8 -7
8 2z m-312 -42 c-23 -17 -50 -74 -38 -81 19 -11 0 -24 -45 -31 -32 -4 -45 -11
-46 -23 -1 -9 -4 -5 -9 9 -4 14 -8 20 -9 14 -1 -6 -21 -11 -44 -11 l-44 -1 3
51 3 52 -10 -42 c-10 -44 -29 -59 -29 -23 0 11 5 20 10 20 6 0 10 9 10 20 0
11 -4 20 -10 20 -5 0 -10 -7 -10 -15 0 -8 -4 -15 -10 -15 -5 0 -10 -7 -10 -15
0 -9 -6 -12 -15 -9 -13 5 -12 8 1 22 9 8 19 25 24 37 12 30 52 27 61 -6 l7
-24 7 23 c6 18 15 22 49 24 22 0 46 2 51 3 6 2 31 3 58 4 37 1 47 5 48 19 0
12 2 13 6 3 3 -8 -1 -19 -9 -25z m122 14 c12 -8 11 -13 -7 -38 -12 -17 -20
-32 -17 -35 3 -3 24 -2 46 1 32 4 40 2 36 -9 -3 -10 -21 -14 -56 -14 -29 1
-52 -2 -52 -6 0 -4 -18 -9 -40 -11 -41 -4 -58 15 -22 26 23 8 49 49 33 54 -6
2 -11 11 -11 19 0 13 2 13 17 2 9 -8 14 -9 10 -2 -4 7 0 13 10 16 29 8 37 7
53 -3z m-423 -32 c-3 -8 -6 -5 -6 6 -1 11 2 17 5 13 3 -3 4 -12 1 -19z m-268
-60 c-12 -21 -13 -21 -17 -4 -2 10 2 22 9 27 20 12 22 4 8 -23z m-24 -52 c0
-24 -3 -42 -6 -40 -4 2 -15 -6 -25 -17 l-19 -21 -6 33 c-4 20 -6 4 -5 -39 2
-40 7 -77 13 -83 7 -7 9 6 5 40 -4 42 -2 51 12 51 9 0 16 4 16 8 0 4 8 8 19 8
16 0 17 -5 10 -30 -11 -38 -24 -49 -15 -13 4 19 3 26 -4 22 -12 -8 -13 -52 -1
-59 4 -3 6 -17 3 -31 -5 -28 14 -33 49 -15 17 9 19 7 18 -17 0 -23 -2 -25 -8
-9 -6 16 -9 17 -17 5 -5 -8 -10 -23 -11 -34 -1 -11 -7 -46 -14 -78 -9 -45 -9
-61 1 -70 9 -9 10 -5 6 18 -6 29 -5 29 6 -3 6 -18 8 -35 5 -39 -11 -10 -37 18
-38 41 -1 17 -2 17 -6 4 -5 -21 -13 -22 -37 -5 -16 12 -16 16 -2 57 8 24 12
48 9 54 -3 6 -3 8 2 4 18 -17 32 39 24 92 -11 73 -18 73 -16 0 2 -58 0 -63
-20 -66 -15 -3 -23 1 -23 10 0 7 -7 19 -15 26 -17 14 -21 35 -5 25 11 -7 13 9
4 42 -3 12 -11 20 -17 19 -7 -2 -9 -1 -4 1 12 7 8 41 -5 46 -7 2 -10 7 -7 11
10 11 39 -5 40 -23 0 -9 3 -11 5 -4 3 7 1 20 -4 30 -12 21 10 59 27 48 6 -3
11 0 11 9 0 8 -6 17 -12 20 -7 3 0 3 16 -1 26 -5 28 -4 21 18 -6 20 -5 22 6
11 7 -7 14 -32 14 -56z m-133 -95 c-8 -4 -13 -11 -13 -15 3 -22 -2 -28 -8 -11
-8 20 2 35 24 35 6 0 4 -4 -3 -9z m-52 -31 c0 -5 -5 -10 -11 -10 -5 0 -7 5 -4
10 3 6 8 10 11 10 2 0 4 -4 4 -10z m-63 -52 c-3 -7 -5 -2 -5 12 0 14 2 19 5
13 2 -7 2 -19 0 -25z m303 28 c0 -3 -4 -8 -10 -11 -5 -3 -10 -1 -10 4 0 6 5
11 10 11 6 0 10 -2 10 -4z m-196 -56 c-6 -5 -24 21 -24 34 0 6 6 1 14 -10 8
-10 12 -21 10 -24z m46 0 c0 -5 -2 -10 -4 -10 -3 0 -8 5 -11 10 -3 6 -1 10 4
10 6 0 11 -4 11 -10z m-112 -55 c-3 -3 -9 2 -12 12 -6 14 -5 15 5 6 7 -7 10
-15 7 -18z m116 -10 c-4 -8 -11 -15 -16 -15 -6 0 -5 6 2 15 7 8 14 15 16 15 2
0 1 -7 -2 -15z m2012 -230 c-10 -19 -12 -33 -6 -39 15 -15 12 -36 -5 -36 -16
0 -21 16 -6 22 5 2 4 11 -3 20 -12 16 -13 14 -15 -15 -1 -17 -4 -43 -5 -57 -2
-14 -4 -31 -5 -39 -2 -22 -12 -6 -21 33 -4 20 -4 39 1 42 5 3 9 18 9 35 0 16
5 29 10 29 6 0 10 8 10 19 0 25 26 47 33 29 3 -7 6 1 8 17 l2 30 4 -30 c2 -17
-3 -44 -11 -60z m-2149 43 c-3 -8 -6 -5 -6 6 -1 11 2 17 5 13 3 -3 4 -12 1
-19z m135 -102 c58 -34 91 -59 89 -68 -2 -7 -6 -26 -8 -43 -4 -28 -8 -30 -41
-28 -20 1 -37 2 -37 3 0 1 -13 4 -28 6 -15 1 -37 13 -47 26 -13 16 -19 18 -20
8 0 -33 -33 34 -33 69 0 33 17 81 28 81 2 0 46 -24 97 -54z m105 12 c-3 -7 -5
-2 -5 12 0 14 2 19 5 13 2 -7 2 -19 0 -25z m-657 -68 c0 -5 -9 -10 -20 -10
-11 0 -20 5 -20 10 0 6 9 10 20 10 11 0 20 -4 20 -10z m2580 0 c0 -5 -2 -10
-4 -10 -3 0 -8 5 -11 10 -3 6 -1 10 4 10 6 0 11 -4 11 -10z m-30 -27 c0 -20
-3 -24 -11 -16 -7 7 -9 19 -6 27 10 24 17 19 17 -11z m50 -7 c0 -8 -6 -16 -14
-19 -8 -3 -16 -18 -19 -34 -3 -23 -4 -21 -6 10 0 23 3 36 9 32 6 -3 10 1 10 9
0 9 5 16 10 16 6 0 10 -6 10 -14z m-2574 -33 c-11 -11 -17 4 -9 23 7 18 8 18
11 1 2 -10 1 -21 -2 -24z m2247 -3 c3 -11 1 -20 -4 -20 -5 0 -9 2 -9 4 0 2 -3
11 -6 20 -3 9 -2 16 4 16 5 0 12 -9 15 -20z m60 -45 c-4 -12 -10 -9 -25 10
-10 14 -16 30 -12 37 10 16 45 -28 37 -47z m-2228 -17 c-15 -21 -16 -21 -13
-3 4 24 22 47 26 34 2 -5 -4 -19 -13 -31z m329 17 c-9 -23 -34 -27 -34 -4 0
11 5 17 10 14 6 -3 10 -1 10 5 0 6 4 9 10 5 5 -3 7 -12 4 -20z m84 0 c-3 -3
-9 2 -12 12 -6 14 -5 15 5 6 7 -7 10 -15 7 -18z m119 -7 c-3 -8 -6 -5 -6 6 -1
11 2 17 5 13 3 -3 4 -12 1 -19z m-247 -18 c0 -5 -2 -10 -4 -10 -3 0 -8 5 -11
10 -3 6 -1 10 4 10 6 0 11 -4 11 -10z m2200 0 c0 -5 -2 -10 -4 -10 -3 0 -8 5
-11 10 -3 6 -1 10 4 10 6 0 11 -4 11 -10z m-2503 -48 c-4 -25 -28 -65 -34 -58
-9 9 19 86 28 80 5 -3 7 -13 6 -22z m883 -120 c-5 -19 -6 -40 -3 -48 3 -8 1
-14 -5 -14 -6 0 -8 -8 -5 -19 5 -21 -24 -54 -42 -47 -7 2 -15 -4 -18 -15 -5
-17 -9 -19 -27 -9 -17 9 -20 17 -14 48 4 20 10 39 14 42 10 8 11 82 0 75 -5
-3 -13 3 -19 12 -6 10 -11 13 -11 6 0 -6 -9 -9 -20 -6 -11 3 -20 13 -20 22 0
13 2 13 9 2 5 -7 14 -10 20 -7 6 4 9 11 6 16 -3 4 2 10 10 13 10 4 12 1 9 -11
-5 -15 -4 -15 9 1 8 9 19 17 25 17 6 0 12 6 15 13 3 8 11 5 27 -11 14 -15 19
-29 15 -40 -6 -15 -8 -15 -14 2 -12 30 -23 2 -26 -59 -1 -39 4 -58 18 -76 l20
-24 -6 35 c-3 23 0 43 9 55 16 22 18 73 4 110 -7 18 -6 31 3 46 11 17 13 13
19 -38 4 -32 3 -73 -2 -91z m1620 123 c0 -8 -4 -15 -10 -15 -5 0 -10 7 -10 15
0 8 5 15 10 15 6 0 10 -7 10 -15z m-2240 -10 c0 -8 -2 -15 -4 -15 -2 0 -6 7
-10 15 -3 8 -1 15 4 15 6 0 10 -7 10 -15z m-425 -6 c11 -17 0 -20 -21 -4 -17
13 -17 14 -2 15 9 0 20 -5 23 -11z m1565 1 c0 -5 -4 -10 -10 -10 -5 0 -10 5
-10 10 0 6 5 10 10 10 6 0 10 -4 10 -10z m827 -52 l-15 -43 -1 37 c-1 46 8 73
21 60 7 -7 5 -25 -5 -54z m273 20 c0 -19 -2 -20 -10 -8 -13 19 -13 30 0 30 6
0 10 -10 10 -22z m-2780 -4 c0 -8 -5 -12 -10 -9 -6 4 -8 11 -5 16 9 14 15 11
15 -7z m1690 -4 c0 -5 -7 -10 -15 -10 -8 0 -15 -5 -15 -12 0 -6 -3 -8 -6 -5
-8 8 14 37 27 37 5 0 9 -4 9 -10z m-1640 -21 c0 -6 -4 -7 -10 -4 -5 3 -10 11
-10 16 0 6 5 7 10 4 6 -3 10 -11 10 -16z m959 -43 c8 -9 8 -16 2 -20 -6 -4
-15 3 -21 14 -12 23 2 27 19 6z m119 -11 c-6 -14 -15 -25 -19 -25 -5 0 -3 11
3 25 6 14 15 25 19 25 5 0 3 -11 -3 -25z m79 -27 c-2 -13 -4 -5 -4 17 -1 22 1
32 4 23 2 -10 2 -28 0 -40z m1294 1 c-9 -23 -10 -22 -10 11 -1 23 2 31 9 24 7
-7 7 -19 1 -35z m-1324 -16 c-3 -10 -5 -2 -5 17 0 19 2 27 5 18 2 -10 2 -26 0
-35z m163 -15 c0 -4 -5 -10 -11 -14 -15 -9 -29 14 -29 46 l0 25 20 -25 c11
-14 20 -28 20 -32z m125 30 c-4 -13 -10 -43 -14 -67 -9 -65 -33 -68 -30 -4 1
27 -1 55 -5 62 -6 10 -3 11 12 7 13 -4 22 -1 26 9 9 24 19 17 11 -7z m-477 0
c-6 -18 -28 -21 -28 -4 0 9 7 16 16 16 9 0 14 -5 12 -12z m392 -28 c0 -5 -8
-10 -17 -10 -15 0 -16 2 -3 10 19 12 20 12 20 0z m187 -35 c-12 -25 -28 -45
-34 -45 -7 0 -13 -6 -13 -12 0 -9 -3 -9 -9 1 -12 19 -3 41 18 41 9 0 22 13 28
30 6 17 16 30 22 30 5 0 0 -20 -12 -45z m-337 -12 c0 -18 -4 -24 -15 -20 -8 4
-17 2 -20 -3 -10 -16 -35 -11 -35 6 0 10 7 14 23 12 19 -3 22 1 19 26 -3 26
-1 28 12 17 9 -8 16 -25 16 -38z m51 -50 l1 -68 9 60 c13 88 17 89 18 3 1 -63
-2 -78 -14 -78 -8 0 -15 -7 -15 -15 0 -8 -9 -19 -20 -25 -18 -10 -20 -8 -20
25 0 19 5 35 11 35 8 0 10 19 5 65 -5 55 -4 65 9 65 12 0 15 -14 16 -67z m65
-8 c-1 -30 -5 -56 -11 -59 -6 -2 -10 18 -9 48 1 61 2 66 12 66 4 0 8 -25 8
-55z m-239 3 c-3 -8 -6 -5 -6 6 -1 11 2 17 5 13 3 -3 4 -12 1 -19z m20 0 c-3
-8 -6 -5 -6 6 -1 11 2 17 5 13 3 -3 4 -12 1 -19z m340 -10 c-3 -7 -5 -2 -5 12
0 14 2 19 5 13 2 -7 2 -19 0 -25z m1120 10 c-3 -8 -6 -5 -6 6 -1 11 2 17 5 13
3 -3 4 -12 1 -19z m-1550 -20 c-3 -8 -6 -5 -6 6 -1 11 2 17 5 13 3 -3 4 -12 1
-19z m463 -7 c0 -25 -19 -75 -26 -69 -8 8 8 88 17 88 5 0 9 -9 9 -19z m-403
-23 c-3 -8 -6 -5 -6 6 -1 11 2 17 5 13 3 -3 4 -12 1 -19z m359 -5 c-10 -10
-19 5 -10 18 6 11 8 11 12 0 2 -7 1 -15 -2 -18z m-436 -11 c0 -15 -2 -15 -10
-2 -13 20 -13 33 0 25 6 -3 10 -14 10 -23z m111 1 c-12 -20 -14 -14 -5 12 4 9
9 14 11 11 3 -2 0 -13 -6 -23z m59 -15 c0 -13 -7 -32 -15 -42 -8 -11 -15 -28
-15 -39 0 -10 -4 -16 -9 -13 -5 3 -9 27 -9 53 -1 34 1 44 8 33 8 -12 11 -11
16 8 4 12 10 22 15 22 5 0 9 -10 9 -22z m37 0 c-3 -8 -6 -5 -6 6 -1 11 2 17 5
13 3 -3 4 -12 1 -19z m163 14 c0 -4 -6 -17 -14 -28 -8 -11 -19 -36 -24 -55
l-10 -34 -1 36 c-1 41 18 89 37 89 6 0 12 -3 12 -8z m1203 -24 c-6 -30 -23
-39 -23 -13 0 13 21 46 27 41 1 0 -1 -13 -4 -28z m-1488 -18 c3 -5 1 -10 -4
-10 -6 0 -11 5 -11 10 0 6 2 10 4 10 3 0 8 -4 11 -10z m214 -67 c-1 -68 -1
-68 -9 -21 -5 26 -11 52 -15 57 -7 13 2 31 16 31 5 0 8 -30 8 -67z m1511 20
c0 -7 -4 -13 -9 -13 -5 0 -8 12 -8 26 0 18 2 22 8 13 5 -8 9 -20 9 -26z
m-1627 7 c-3 -11 -9 -20 -14 -20 -14 0 -11 28 4 33 6 3 13 6 14 6 0 1 -1 -8
-4 -19z m37 -5 c0 -8 -4 -15 -10 -15 -5 0 -10 7 -10 15 0 8 5 15 10 15 6 0 10
-7 10 -15z m2160 -16 c0 -12 -38 2 -44 17 -4 11 0 11 19 2 14 -6 25 -15 25
-19z m-2273 -16 c-3 -10 -5 -4 -5 12 0 17 2 24 5 18 2 -7 2 -21 0 -30z m2440
31 c-3 -3 -12 -4 -19 -1 -8 3 -5 6 6 6 11 1 17 -2 13 -5z m193 -6 c0 -5 -16
-8 -35 -8 -19 0 -35 4 -35 8 0 5 16 8 35 8 19 -1 35 -4 35 -8z m-2476 -7 c7
-11 -3 -41 -14 -41 -11 0 -21 30 -14 41 3 5 9 9 14 9 5 0 11 -4 14 -9z m156
-26 c0 -19 -4 -35 -10 -35 -5 0 -10 16 -10 35 0 19 5 35 10 35 6 0 10 -16 10
-35z m2538 28 c-10 -2 -26 -2 -35 0 -10 3 -2 5 17 5 19 0 27 -2 18 -5z m-73
-13 c3 -5 3 -10 -2 -11 -4 0 -16 -2 -25 -4 -11 -2 -15 2 -11 11 6 16 29 19 38
4z m-1064 -37 c-4 -28 -6 -32 -9 -15 -3 22 3 52 11 52 1 0 1 -17 -2 -37z m739
28 c0 -11 -30 -19 -48 -14 -6 3 -10 9 -6 14 7 12 54 12 54 0z m30 -11 c0 -5
-4 -10 -10 -10 -5 0 -10 5 -10 10 0 6 5 10 10 10 6 0 10 -4 10 -10z m-2473
-71 c-22 -31 -29 -7 -9 33 16 32 17 33 20 12 2 -13 -3 -33 -11 -45z m46 59 c4
-10 8 -10 15 1 9 12 13 12 26 2 22 -18 21 -42 -1 -35 -34 11 -63 27 -63 36 0
13 18 9 23 -4z m92 -25 c-4 -10 -10 -28 -12 -40 -5 -21 -23 -33 -23 -16 0 18
25 73 33 73 5 0 6 -8 2 -17z m455 1 c0 -8 -4 -12 -10 -9 -5 3 -10 10 -10 16 0
5 5 9 10 9 6 0 10 -7 10 -16z m-1943 -26 c-3 -8 -6 -5 -6 6 -1 11 2 17 5 13 3
-3 4 -12 1 -19z m3576 15 c-7 -2 -19 -2 -25 0 -7 3 -2 5 12 5 14 0 19 -2 13
-5z m-3527 -28 c30 -16 25 -19 -13 -9 -13 4 -23 10 -23 15 0 12 3 11 36 -6z
m1911 -17 c-3 -8 -6 -5 -6 6 -1 11 2 17 5 13 3 -3 4 -12 1 -19z m-523 -14 c-4
-16 -2 -29 5 -33 13 -8 5 -41 -10 -41 -5 0 -9 7 -9 15 0 8 -6 24 -12 36 -11
17 -10 22 6 35 26 19 27 18 20 -12z m67 -1 c-8 -15 -10 -15 -11 -2 0 17 10 32
18 25 2 -3 -1 -13 -7 -23z m426 -15 c-3 -8 -6 -5 -6 6 -1 11 2 17 5 13 3 -3 4
-12 1 -19z m1493 -44 c0 -2 -11 -4 -25 -4 -14 0 -25 4 -25 9 0 4 11 6 25 3 14
-2 25 -6 25 -8z"/>
                <path d="M3030 4060 c0 -5 5 -10 11 -10 5 0 7 5 4 10 -3 6 -8 10 -11 10 -2 0
-4 -4 -4 -10z"/>
                <path d="M3220 3960 c0 -5 5 -10 11 -10 5 0 7 5 4 10 -3 6 -8 10 -11 10 -2 0
-4 -4 -4 -10z"/>
                <path d="M3256 3942 c-2 -4 -1 -14 4 -22 7 -11 9 -9 7 8 -1 24 -3 26 -11 14z"/>
                <path d="M2994 3799 c-3 -6 -2 -15 3 -20 5 -5 9 -1 10 11 2 22 -2 25 -13 9z"/>
                <path d="M926 3885 c-9 -26 -7 -32 5 -12 6 10 9 21 6 23 -2 3 -7 -2 -11 -11z"/>
                <path d="M799 3494 c-3 -5 -2 -29 1 -54 l6 -45 8 37 c7 33 -5 83 -15 62z"/>
                <path d="M831 3484 c0 -11 3 -14 6 -6 3 7 2 16 -1 19 -3 4 -6 -2 -5 -13z"/>
                <path d="M826 3135 c4 -8 10 -12 15 -9 11 6 2 24 -11 24 -5 0 -7 -7 -4 -15z"/>
                <path d="M790 3125 c0 -8 5 -15 10 -15 6 0 10 7 10 15 0 8 -4 15 -10 15 -5 0
-10 -7 -10 -15z"/>
                <path d="M850 3029 c0 -5 5 -7 10 -4 6 3 10 8 10 11 0 2 -4 4 -10 4 -5 0 -10
-5 -10 -11z"/>
                <path d="M3021 3164 c0 -11 3 -14 6 -6 3 7 2 16 -1 19 -3 4 -6 -2 -5 -13z"/>
                <path d="M1728 3032 c-20 -40 -7 -60 14 -24 10 16 13 33 9 41 -6 10 -13 5 -23
-17z"/>
                <path d="M1688 2975 c-3 -14 -2 -25 2 -25 11 0 20 39 10 45 -4 3 -10 -6 -12
-20z"/>
                <path d="M1574 2968 c-4 -7 0 -16 11 -22 10 -6 29 -21 41 -34 12 -13 24 -18
26 -12 10 32 73 -35 97 -103 12 -36 11 -39 -12 -63 -17 -16 -28 -21 -32 -14
-4 6 -13 9 -21 6 -9 -3 -14 1 -14 13 0 23 -30 56 -53 57 -28 3 -18 -40 11 -44
12 -2 22 -10 22 -17 0 -8 6 -18 13 -22 8 -4 17 -16 20 -26 4 -10 11 -15 17
-12 6 4 8 10 5 15 -3 4 1 7 8 7 28 -2 96 16 91 24 -3 5 8 1 25 -8 34 -20 26
-43 -15 -43 -19 0 -24 -5 -24 -24 0 -14 -5 -28 -11 -32 -8 -4 -9 0 -4 15 4 13
2 21 -5 21 -6 0 -13 -14 -17 -31 -3 -17 -12 -33 -19 -36 -8 -3 -14 -13 -14
-22 0 -14 -2 -14 -10 -1 -8 12 -11 13 -19 1 -7 -11 -9 -11 -13 0 -3 8 -9 11
-13 7 -4 -4 11 -35 34 -69 22 -34 41 -68 41 -75 0 -8 5 -14 11 -14 5 0 17 -17
25 -37 8 -21 18 -45 23 -54 5 -8 8 -26 6 -40 -1 -13 0 -16 2 -6 2 9 7 15 11
13 4 -2 18 11 32 29 13 18 37 37 52 43 19 7 28 17 28 32 0 13 -4 19 -12 14 -7
-4 -8 -3 -4 5 10 16 26 4 27 -22 1 -19 2 -19 6 -3 4 15 7 16 13 5 5 -7 12 -10
16 -7 11 12 23 93 14 102 -4 4 -4 21 0 36 6 20 5 27 -3 25 -11 -4 -37 42 -52
92 -6 23 -85 97 -93 88 -5 -5 -33 21 -33 32 0 4 -9 11 -19 15 -10 4 -21 20
-24 35 -6 27 -42 75 -108 145 -27 29 -71 38 -84 16z"/>
                <path d="M1611 2903 c-1 -7 -12 -13 -25 -13 -20 0 -23 -5 -22 -37 1 -20 6 -38
13 -40 7 -3 9 3 6 16 -3 12 -1 21 6 21 6 0 11 -7 11 -15 0 -8 5 -15 11 -15 5
0 8 4 5 9 -4 5 -1 11 5 13 7 2 8 14 1 38 -6 19 -11 29 -11 23z"/>
                <path d="M1539 2833 c-6 -40 -3 -133 3 -133 5 0 8 32 6 70 -2 61 -6 87 -9 63z"/>
                <path d="M2101 2814 c0 -11 3 -14 6 -6 3 7 2 16 -1 19 -3 4 -6 -2 -5 -13z"/>
                <path d="M1646 2806 c7 -19 38 -22 32 -3 -3 6 -12 13 -21 15 -12 2 -15 -1 -11
-12z"/>
                <path d="M1580 2744 c0 -8 5 -12 10 -9 6 4 8 11 5 16 -9 14 -15 11 -15 -7z"/>
                <path d="M1962 2660 c0 -14 2 -19 5 -12 2 6 2 18 0 25 -3 6 -5 1 -5 -13z"/>
                <path d="M1546 2575 c4 -8 8 -15 10 -15 2 0 4 7 4 15 0 8 -4 15 -10 15 -5 0
-7 -7 -4 -15z"/>
                <path d="M2560 2530 c0 -5 5 -10 10 -10 6 0 10 5 10 10 0 6 -4 10 -10 10 -5 0
-10 -4 -10 -10z"/>
                <path d="M1550 2511 c0 -6 4 -13 10 -16 6 -3 7 1 4 9 -7 18 -14 21 -14 7z"/>
                <path d="M2000 2511 c0 -6 4 -13 10 -16 6 -3 7 1 4 9 -7 18 -14 21 -14 7z"/>
                <path d="M2790 2465 c0 -16 16 -20 24 -6 3 5 -1 11 -9 15 -9 3 -15 0 -15 -9z"/>
                <path d="M1550 2450 c0 -5 5 -10 11 -10 5 0 7 5 4 10 -3 6 -8 10 -11 10 -2 0
-4 -4 -4 -10z"/>
                <path d="M1639 2332 c16 -30 33 -38 22 -11 -4 13 -14 25 -20 27 -10 3 -10 0
-2 -16z"/>
                <path d="M2120 2111 c0 -6 5 -13 10 -16 6 -3 10 1 10 9 0 9 -4 16 -10 16 -5 0
-10 -4 -10 -9z"/>
                <path d="M1957 2094 c-8 -8 3 -34 14 -34 11 0 12 27 0 34 -4 3 -11 3 -14 0z"/>
                <path d="M1997 2083 c-4 -3 -7 -13 -7 -21 0 -18 13 -7 16 13 2 17 1 18 -9 8z"/>
                <path d="M1960 2030 c-9 -6 -10 -10 -3 -10 6 0 15 5 18 10 8 12 4 12 -15 0z"/>
                <path d="M2208 1970 c-3 -16 -1 -35 4 -42 4 -8 8 4 8 30 0 49 -6 55 -12 12z"/>
                <path d="M3361 2494 c0 -11 3 -14 6 -6 3 7 2 16 -1 19 -3 4 -6 -2 -5 -13z"/>
                <path d="M3173 2463 c-35 -33 -47 -58 -14 -29 16 15 19 15 31 1 7 -8 18 -15
24 -15 6 0 3 7 -7 14 -15 12 -17 18 -7 36 17 31 10 29 -27 -7z"/>
                <path d="M3221 2470 c0 -29 1 -32 10 -17 7 11 7 23 0 35 -9 14 -10 11 -10 -18z"/>
                <path d="M3301 2493 c0 -5 4 -17 9 -28 8 -18 9 -17 9 8 1 15 -3 27 -9 27 -5 0
-10 -3 -9 -7z"/>
                <path d="M3356 2423 c-4 -9 -2 -21 4 -27 7 -7 10 -2 10 17 0 31 -5 34 -14 10z"/>
                <path d="M3343 2058 c-13 -6 -23 -17 -23 -25 0 -20 13 -15 33 12 10 14 17 25
15 24 -2 0 -13 -5 -25 -11z"/>
                <path d="M1700 1800 c0 -5 5 -10 10 -10 6 0 10 5 10 10 0 6 -4 10 -10 10 -5 0
-10 -4 -10 -10z"/>
                <path d="M1007 1673 c-4 -3 -7 -11 -7 -17 0 -6 5 -5 12 2 6 6 9 14 7 17 -3 3
-9 2 -12 -2z"/>
                <path d="M1040 1581 c0 -5 5 -13 10 -16 6 -3 10 -2 10 4 0 5 -4 13 -10 16 -5
3 -10 2 -10 -4z"/>
                <path d="M1038 1493 c5 -21 7 -23 10 -9 2 10 0 22 -6 28 -6 6 -7 0 -4 -19z"/>
                <path d="M1140 1290 c0 -19 3 -21 12 -12 9 9 9 15 0 24 -9 9 -12 7 -12 -12z"/>
                <path d="M110 3470 c0 -5 5 -10 11 -10 5 0 7 5 4 10 -3 6 -8 10 -11 10 -2 0
-4 -4 -4 -10z"/>
                <path d="M370 3292 c0 -4 4 -12 9 -17 5 -6 11 -19 13 -30 3 -16 5 -15 10 8 4
21 1 30 -13 38 -11 5 -19 6 -19 1z"/>
                <path d="M430 3255 c0 -8 5 -15 10 -15 6 0 10 7 10 15 0 8 -4 15 -10 15 -5 0
-10 -7 -10 -15z"/>
                <path d="M471 3234 c0 -11 3 -14 6 -6 3 7 2 16 -1 19 -3 4 -6 -2 -5 -13z"/>
                <path d="M580 3219 c0 -5 5 -7 10 -4 6 3 10 8 10 11 0 2 -4 4 -10 4 -5 0 -10
-5 -10 -11z"/>
                <path d="M515 3200 c3 -5 8 -10 11 -10 2 0 4 5 4 10 0 6 -5 10 -11 10 -5 0 -7
-4 -4 -10z"/>
                <path d="M371 3184 c0 -11 3 -14 6 -6 3 7 2 16 -1 19 -3 4 -6 -2 -5 -13z"/>
                <path d="M421 3175 c1 -24 17 -75 18 -58 1 6 3 17 6 25 3 7 -1 22 -9 33 -15
20 -15 20 -15 0z"/>
                <path d="M390 3171 c0 -6 4 -13 10 -16 6 -3 7 1 4 9 -7 18 -14 21 -14 7z"/>
                <path d="M506 3141 c-4 -5 -2 -12 3 -15 5 -4 12 -2 15 3 4 5 2 12 -3 15 -5 4
-12 2 -15 -3z"/>
                <path d="M200 3101 c0 -16 5 -33 10 -36 7 -4 10 6 8 25 -3 41 -18 50 -18 11z"/>
                <path d="M556 3107 c3 -10 9 -15 12 -12 3 3 0 11 -7 18 -10 9 -11 8 -5 -6z"/>
                <path d="M60 3101 c0 -13 48 -46 56 -38 3 2 -9 15 -25 27 -17 12 -31 17 -31
11z"/>
                <path d="M1 3046 c-1 -47 3 -58 29 -86 17 -18 30 -39 30 -47 0 -8 7 -21 15
-29 8 -9 15 -26 15 -39 0 -13 15 -40 34 -60 32 -33 35 -35 41 -16 8 26 -2 42
-23 39 -13 -2 -16 4 -13 35 1 23 -2 37 -9 37 -7 0 -10 7 -6 15 3 10 -1 15 -12
15 -9 0 -23 12 -30 27 -10 23 -10 29 3 36 12 6 13 13 5 28 -8 13 -7 26 1 42 9
18 9 20 -1 10 -9 -8 -19 -9 -32 -2 -10 5 -18 7 -18 4 0 -9 25 -50 35 -57 5 -4
6 -10 2 -14 -4 -4 -15 3 -25 16 -24 34 -31 54 -20 61 5 3 6 13 2 22 -12 32
-21 17 -23 -37z m115 -223 c-10 -10 -19 5 -10 18 6 11 8 11 12 0 2 -7 1 -15
-2 -18z"/>
                <path d="M151 3050 c6 -16 15 -28 20 -25 9 6 -10 55 -22 55 -4 0 -3 -13 2 -30z"/>
                <path d="M200 3030 c0 -5 10 -15 23 -21 12 -7 25 -17 29 -23 5 -8 8 -8 8 0 0
10 -45 54 -55 54 -3 0 -5 -4 -5 -10z"/>
                <path d="M646 3003 c-6 -14 -5 -15 5 -6 7 7 10 15 7 18 -3 3 -9 -2 -12 -12z"/>
                <path d="M481 2964 c0 -11 3 -14 6 -6 3 7 2 16 -1 19 -3 4 -6 -2 -5 -13z"/>
                <path d="M100 2950 c0 -5 4 -10 9 -10 6 0 13 5 16 10 3 6 -1 10 -9 10 -9 0
-16 -4 -16 -10z"/>
                <path d="M1 2924 c0 -11 3 -14 6 -6 3 7 2 16 -1 19 -3 4 -6 -2 -5 -13z"/>
                <path d="M156 2886 c-11 -40 -7 -47 22 -44 21 2 28 9 30 29 2 21 -2 27 -22 31
-19 4 -26 0 -30 -16z"/>
                <path d="M305 2890 c-3 -5 -1 -10 4 -10 6 0 11 5 11 10 0 6 -2 10 -4 10 -3 0
-8 -4 -11 -10z"/>
                <path d="M326 2883 c-4 -9 -2 -21 4 -27 7 -7 10 -2 10 17 0 31 -5 34 -14 10z"/>
                <path d="M817 2863 c-11 -18 1 -36 56 -79 70 -55 91 -65 151 -71 28 -3 53 -5
56 -6 18 -4 79 16 83 27 4 11 -2 12 -29 6 -19 -5 -47 -7 -62 -5 -15 2 -33 -2
-39 -7 -9 -7 -13 -7 -13 1 0 6 -9 11 -20 11 -11 0 -23 7 -26 15 -4 8 -10 12
-15 9 -12 -7 -116 66 -127 90 -5 13 -11 16 -15 9z"/>
                <path d="M218 2842 c-22 -4 -24 -30 -2 -28 21 1 64 -55 47 -61 -7 -3 -13 -16
-13 -30 0 -25 -1 -25 -19 -9 -15 14 -18 23 -11 41 9 23 5 35 -12 35 -5 0 -5
-12 -2 -26 6 -24 4 -26 -17 -20 -13 3 -18 3 -11 0 6 -3 12 -11 12 -18 0 -25
38 -49 65 -42 21 5 25 11 20 27 -6 17 -3 19 19 13 16 -4 26 -2 26 5 0 6 -9 11
-20 11 -11 0 -20 7 -20 15 0 11 -37 87 -44 91 0 0 -9 -1 -18 -4z"/>
                <path d="M945 2830 c-3 -6 1 -7 9 -4 18 7 21 14 7 14 -6 0 -13 -4 -16 -10z"/>
                <path d="M50 2811 c0 -6 5 -13 10 -16 6 -3 10 1 10 9 0 9 -4 16 -10 16 -5 0
-10 -4 -10 -9z"/>
                <path d="M315 2800 c3 -5 8 -10 11 -10 2 0 4 5 4 10 0 6 -5 10 -11 10 -5 0 -7
-4 -4 -10z"/>
                <path d="M1185 2769 c-4 -6 -5 -13 -2 -16 7 -7 27 6 27 18 0 12 -17 12 -25 -2z"/>
                <path d="M80 2732 c0 -6 8 -8 19 -5 13 3 20 -2 25 -19 4 -17 8 -20 15 -10 7
11 9 10 15 -3 3 -9 10 -13 16 -10 12 7 12 16 2 31 -9 15 -92 29 -92 16z"/>
                <path d="M3534 2713 c-3 -15 -7 -34 -10 -40 -5 -17 1 -16 21 3 13 14 14 19 3
25 -11 8 -11 11 1 18 9 6 10 11 2 15 -6 4 -13 -5 -17 -21z"/>
                <path d="M110 1859 c0 -5 5 -7 10 -4 6 3 10 8 10 11 0 2 -4 4 -10 4 -5 0 -10
-5 -10 -11z"/>
                <path d="M348 1793 c7 -3 16 -2 19 1 4 3 -2 6 -13 5 -11 0 -14 -3 -6 -6z"/>
                <path d="M388 1783 c7 -3 16 -2 19 1 4 3 -2 6 -13 5 -11 0 -14 -3 -6 -6z"/>
                <path d="M2771 1663 c-6 -10 -11 -14 -11 -9 0 5 -9 1 -20 -9 -11 -10 -20 -14
-20 -10 0 20 -40 -36 -41 -57 -1 -17 -3 -18 -6 -5 -5 19 -12 21 -32 8 -9 -6
-12 -24 -10 -59 3 -42 0 -54 -16 -66 -18 -14 -16 -14 18 -1 20 8 37 13 37 9 0
-3 6 1 13 8 8 7 26 22 40 33 15 11 27 27 27 36 0 9 7 19 15 23 8 3 15 14 15
25 0 11 9 21 21 24 23 6 17 27 -7 27 -17 0 -19 17 -2 22 9 3 9 6 1 11 -7 4
-16 -1 -22 -10z"/>
                <path d="M95 1660 c3 -5 8 -10 11 -10 2 0 4 5 4 10 0 6 -5 10 -11 10 -5 0 -7
-4 -4 -10z"/>
                <path d="M805 1640 c-7 -11 2 -30 13 -30 4 0 8 9 9 20 2 21 -11 27 -22 10z"/>
                <path d="M666 1581 c-11 -4 -15 -10 -10 -13 10 -6 54 8 54 17 0 7 -21 5 -44
-4z"/>
                <path d="M805 1560 c3 -5 1 -10 -6 -10 -7 0 -10 -2 -8 -5 8 -7 49 6 49 16 0 5
-9 9 -21 9 -11 0 -17 -4 -14 -10z"/>
                <path d="M570 1450 c0 -5 5 -10 10 -10 6 0 10 5 10 10 0 6 -4 10 -10 10 -5 0
-10 -4 -10 -10z"/>
                <path d="M13 1443 c-23 -9 -14 -20 12 -15 14 2 25 8 25 13 0 10 -17 11 -37 2z"/>
                <path d="M150 1440 c0 -9 70 -23 77 -16 7 6 -10 12 -49 19 -16 2 -28 1 -28 -3z"/>
                <path d="M260 1424 c0 -14 4 -23 10 -19 6 3 10 15 10 26 0 10 -4 19 -10 19 -5
0 -10 -12 -10 -26z"/>
                <path d="M506 1397 c2 -61 3 -64 18 -44 11 14 11 26 3 52 -14 47 -22 44 -21
-8z"/>
                <path d="M2570 1429 c0 -5 5 -7 10 -4 6 3 10 8 10 11 0 2 -4 4 -10 4 -5 0 -10
-5 -10 -11z"/>
                <path d="M2970 1425 c0 -8 -4 -15 -10 -15 -5 0 -10 -5 -10 -11 0 -6 6 -9 14
-6 11 4 16 -4 19 -31 2 -21 4 -12 3 21 0 31 -4 57 -8 57 -4 0 -8 -7 -8 -15z"/>
                <path d="M3010 1426 c0 -8 5 -18 10 -21 6 -3 10 1 10 9 0 8 -4 18 -10 21 -5 3
-10 -1 -10 -9z"/>
                <path d="M555 1410 c-3 -11 -4 -24 0 -29 3 -5 1 -12 -5 -16 -5 -3 -10 -10 -10
-14 0 -12 49 -20 56 -10 3 5 1 9 -4 9 -11 0 -25 38 -22 63 2 23 -7 22 -15 -3z"/>
                <path d="M2846 1386 c-4 -24 -4 -50 -1 -58 4 -9 2 -19 -4 -23 -6 -3 -11 -16
-11 -28 0 -17 -2 -19 -10 -7 -10 17 -15 14 -24 -17 -5 -14 -3 -23 3 -23 6 0
11 -21 12 -47 1 -48 1 -48 13 -19 13 27 13 26 18 -39 3 -37 11 -72 18 -78 10
-10 11 -8 6 8 -5 15 -4 17 4 9 8 -8 8 -29 1 -71 -6 -38 -6 -76 0 -103 9 -41
34 -78 45 -67 5 4 5 117 0 209 -1 25 -29 62 -51 66 -5 1 -10 20 -11 43 0 33 6
48 33 77 38 43 37 36 15 131 -12 52 -22 75 -34 77 -12 1 -18 -9 -22 -40z m25
-49 c-8 -8 -11 -3 -11 19 1 25 2 27 11 11 8 -14 8 -22 0 -30z m29 -395 c0 -60
-15 -65 -17 -6 -2 35 1 53 7 49 6 -3 10 -23 10 -43z"/>
                <path d="M2510 1400 c-8 -5 -10 -10 -5 -10 6 0 17 5 25 10 8 5 11 10 5 10 -5
0 -17 -5 -25 -10z"/>
                <path d="M8 1393 c7 -3 16 -2 19 1 4 3 -2 6 -13 5 -11 0 -14 -3 -6 -6z"/>
                <path d="M383 1384 c-19 -19 -16 -31 10 -38 37 -10 57 -7 57 9 0 11 -7 14 -25
9 -20 -5 -24 -3 -19 9 7 20 -8 28 -23 11z"/>
                <path d="M3003 1333 l-1 -48 8 40 c4 22 5 43 1 48 -4 4 -8 -14 -8 -40z"/>
                <path d="M2972 1300 c0 -14 2 -19 5 -12 2 6 2 18 0 25 -3 6 -5 1 -5 -13z"/>
                <path d="M560 1300 c0 -5 17 -10 38 -9 33 1 34 2 12 9 -36 11 -50 11 -50 0z"/>
                <path d="M2978 1236 c-4 -21 -5 -50 -2 -65 3 -14 1 -37 -4 -50 -6 -18 -4 -35
10 -64 11 -21 21 -37 23 -35 8 7 12 118 4 118 -4 0 -9 -19 -11 -42 -2 -24 -4
-6 -4 40 0 45 4 82 8 82 4 0 8 -8 9 -17 0 -15 2 -15 9 2 12 27 12 43 0 25 -8
-12 -10 -12 -10 5 0 16 -2 17 -9 6 -7 -11 -10 -9 -13 10 -3 19 -5 16 -10 -15z"/>
                <path d="M1342 1248 c-17 -17 -15 -33 2 -19 11 9 15 9 19 -1 2 -7 7 -11 10 -8
3 3 0 13 -7 22 -10 13 -15 15 -24 6z"/>
                <path d="M3040 1216 c0 -8 4 -17 9 -20 5 -4 7 3 4 14 -6 23 -13 26 -13 6z"/>
                <path d="M1300 1193 c0 -5 8 -17 17 -28 14 -18 15 -18 9 -2 -3 10 -6 23 -6 28
0 5 -4 9 -10 9 -5 0 -10 -3 -10 -7z"/>
                <path d="M2874 1164 c-8 -31 5 -57 30 -62 15 -3 16 0 7 16 -6 12 -11 30 -11
41 0 31 -19 35 -26 5z"/>
                <path d="M2805 1100 c3 -5 8 -10 11 -10 2 0 4 5 4 10 0 6 -5 10 -11 10 -5 0
-7 -4 -4 -10z"/>
                <path d="M3030 1101 c0 -6 4 -13 10 -16 6 -3 7 1 4 9 -7 18 -14 21 -14 7z"/>
                <path d="M1972 1078 c4 -26 23 -35 31 -14 4 9 1 15 -6 13 -7 -1 -11 4 -9 11 1
6 -3 12 -9 12 -6 0 -9 -10 -7 -22z"/>
                <path d="M2781 1074 c0 -11 3 -14 6 -6 3 7 2 16 -1 19 -3 4 -6 -2 -5 -13z"/>
                <path d="M2815 1050 c4 -19 13 -48 20 -65 l12 -30 -1 40 c-1 23 -10 52 -20 65
l-18 25 7 -35z"/>
                <path d="M1450 1060 c0 -5 5 -10 10 -10 6 0 10 5 10 10 0 6 -4 10 -10 10 -5 0
-10 -4 -10 -10z"/>
                <path d="M2780 1021 c0 -18 4 -41 10 -51 11 -21 3 -53 -11 -44 -5 3 -9 1 -9
-5 0 -5 5 -13 10 -16 6 -3 10 -17 10 -31 0 -14 4 -22 10 -19 5 3 7 19 3 35 -3
19 -1 30 6 30 6 0 11 -5 11 -12 0 -6 3 -9 6 -6 3 4 0 16 -6 28 -6 12 -13 40
-15 62 -5 52 -25 76 -25 29z"/>
                <path d="M3435 1040 c3 -5 8 -10 11 -10 2 0 4 5 4 10 0 6 -5 10 -11 10 -5 0
-7 -4 -4 -10z"/>
                <path d="M3253 990 c2 -8 14 -16 28 -17 19 -1 20 -1 4 4 -11 3 -24 10 -28 17
-6 7 -7 6 -4 -4z"/>
                <path d="M3603 975 c-3 -9 -3 -18 -1 -21 3 -3 8 4 11 16 6 23 -1 27 -10 5z"/>
                <path d="M3222 950 c0 -14 2 -19 5 -12 2 6 2 18 0 25 -3 6 -5 1 -5 -13z"/>
                <path d="M4060 960 c-13 -8 -13 -10 2 -10 9 0 25 -3 35 -7 17 -6 17 -6 1 10
-19 20 -18 20 -38 7z"/>
                <path d="M4428 952 c-16 -9 -28 -20 -28 -24 0 -14 37 -9 50 7 20 24 7 35 -22
17z"/>
                <path d="M2963 946 c4 -10 7 -24 7 -32 0 -8 5 -14 11 -14 15 0 6 53 -10 58
-10 3 -12 0 -8 -12z"/>
                <path d="M3676 917 c3 -10 9 -15 12 -12 3 3 0 11 -7 18 -10 9 -11 8 -5 -6z"/>
                <path d="M3747 912 c1 -8 3 -21 3 -30 0 -15 2 -15 10 -2 12 19 13 43 1 36 -5
-4 -11 -3 -14 1 -2 5 -2 2 0 -5z"/>
                <path d="M3268 906 c-27 -20 -22 -26 12 -13 17 6 30 15 30 19 0 12 -23 9 -42
-6z"/>
                <path d="M3640 881 c0 -5 14 -14 31 -20 42 -14 44 -14 29 4 -7 9 -19 14 -27
11 -7 -3 -13 -1 -13 4 0 6 -4 10 -10 10 -5 0 -10 -4 -10 -9z"/>
                <path d="M2977 867 c-11 -29 -9 -43 4 -30 6 6 9 19 7 29 -3 18 -4 18 -11 1z"/>
                <path d="M3635 840 c-3 -5 -1 -10 4 -10 6 0 11 5 11 10 0 6 -2 10 -4 10 -3 0
-8 -4 -11 -10z"/>
                <path d="M1995 817 c-4 -15 -5 -32 -2 -39 3 -7 6 1 7 17 l2 30 14 -32 c8 -18
16 -33 19 -33 5 0 -22 70 -30 78 -2 2 -7 -7 -10 -21z"/>
                <path d="M3584 829 c-8 -14 16 -31 34 -24 8 3 19 5 25 5 7 1 1 7 -13 15 -31
18 -37 18 -46 4z"/>
                <path d="M2760 809 c0 -5 5 -7 10 -4 6 3 10 8 10 11 0 2 -4 4 -10 4 -5 0 -10
-5 -10 -11z"/>
                <path d="M3985 810 c-16 -7 -12 -9 20 -10 22 -1 53 -4 68 -6 18 -2 27 1 25 8
-5 14 -86 20 -113 8z"/>
                <path d="M4465 810 c-3 -5 -18 -9 -33 -9 -121 1 -312 -3 -312 -7 0 -2 10 -9
23 -14 19 -8 17 -9 -15 -9 -47 -1 -50 -18 -5 -24 31 -4 31 -4 -5 -5 -28 -2
-38 2 -38 13 0 8 -8 15 -17 15 -15 0 -16 -2 -3 -10 23 -14 12 -17 -89 -24 -52
-4 -103 -12 -113 -17 -10 -5 -30 -7 -45 -4 -22 5 -24 4 -12 -4 10 -7 15 -19
12 -35 -4 -20 -1 -24 19 -23 12 1 37 -2 53 -6 17 -3 24 -4 17 -1 -6 3 -10 9
-7 14 3 4 -11 11 -30 14 -46 9 -44 20 6 36 37 13 43 12 54 -3 7 -10 19 -15 26
-13 8 2 40 7 72 10 55 6 57 5 57 -18 0 -22 2 -23 25 -13 17 8 20 13 10 15 -8
2 -15 8 -15 13 0 16 29 22 45 9 12 -10 15 -9 15 4 0 9 7 16 15 16 8 0 15 -9
15 -20 0 -22 20 -26 38 -8 9 9 12 8 12 -5 0 -15 3 -15 21 -5 17 11 22 10 34
-6 14 -18 16 -18 33 -3 10 9 27 17 38 17 11 0 26 6 33 13 11 10 12 6 7 -19 -7
-30 -6 -30 31 -26 38 5 71 27 58 40 -4 4 -10 1 -12 -5 -3 -7 -14 -13 -25 -13
-29 0 -16 24 15 28 25 3 27 7 27 47 0 28 -5 45 -15 48 -8 4 -17 2 -20 -3z
m-445 -84 c0 -11 -19 -15 -25 -6 -3 5 1 10 9 10 9 0 16 -2 16 -4z"/>
                <path d="M2293 757 c4 -12 1 -29 -4 -37 -9 -12 -10 -10 -6 8 4 15 1 22 -6 19
-16 -5 -22 -67 -7 -67 24 0 63 61 54 85 -10 25 -37 19 -31 -8z"/>
                <path d="M2340 764 c0 -8 5 -12 10 -9 6 4 8 11 5 16 -9 14 -15 11 -15 -7z"/>
                <path d="M2206 742 c-3 -5 1 -9 9 -9 8 0 12 4 9 9 -3 4 -7 8 -9 8 -2 0 -6 -4
-9 -8z"/>
                <path d="M2158 726 c-22 -16 -23 -26 -3 -26 8 0 15 5 15 11 0 5 5 7 10 4 6 -3
10 1 10 9 0 19 -9 20 -32 2z"/>
                <path d="M2241 694 c0 -11 3 -14 6 -6 3 7 2 16 -1 19 -3 4 -6 -2 -5 -13z"/>
                <path d="M3760 702 c0 -12 19 -26 26 -19 2 2 -2 10 -11 17 -9 8 -15 8 -15 2z"/>
                <path d="M3924 659 c-8 -14 11 -33 25 -25 11 7 4 36 -9 36 -5 0 -12 -5 -16
-11z"/>
                <path d="M4190 656 c0 -2 7 -6 15 -10 8 -3 15 -1 15 4 0 6 -7 10 -15 10 -8 0
-15 -2 -15 -4z"/>
                <path d="M3760 630 c0 -5 -7 -7 -15 -4 -8 4 -15 1 -15 -5 0 -16 25 -13 40 4 9
10 9 15 1 15 -6 0 -11 -4 -11 -10z"/>
                <path d="M4288 633 c6 -2 18 -2 25 0 6 3 1 5 -13 5 -14 0 -19 -2 -12 -5z"/>
                <path d="M2781 595 c0 -31 2 -36 9 -23 6 10 7 25 1 40 -9 20 -10 18 -10 -17z"/>
                <path d="M3990 620 c-9 -6 -10 -10 -3 -10 6 0 15 5 18 10 8 12 4 12 -15 0z"/>
                <path d="M4040 616 c0 -8 7 -16 15 -20 18 -7 45 3 45 16 0 6 -7 8 -15 5 -8 -4
-17 -2 -20 3 -9 15 -25 12 -25 -4z"/>
                <path d="M4205 620 c-3 -5 -1 -10 4 -10 6 0 11 5 11 10 0 6 -2 10 -4 10 -3 0
-8 -4 -11 -10z"/>
                <path d="M3790 610 c0 -5 5 -10 10 -10 6 0 10 5 10 10 0 6 -4 10 -10 10 -5 0
-10 -4 -10 -10z"/>
                <path d="M4140 610 c0 -5 9 -10 21 -10 11 0 17 5 14 10 -3 6 -13 10 -21 10 -8
0 -14 -4 -14 -10z"/>
                <path d="M4248 613 c7 -3 16 -2 19 1 4 3 -2 6 -13 5 -11 0 -14 -3 -6 -6z"/>
                <path d="M3260 594 c0 -12 6 -27 13 -33 11 -8 17 -5 27 14 14 26 34 33 45 15
3 -5 -1 -10 -9 -10 -18 0 -21 -15 -7 -25 10 -6 31 25 31 44 0 6 -18 11 -40 11
-25 0 -40 -5 -40 -12 0 -9 -4 -8 -10 2 -8 12 -10 11 -10 -6z"/>
                <path d="M4463 584 c0 -8 4 -14 9 -14 4 0 8 -7 8 -15 0 -11 -8 -13 -30 -8 -19
3 -30 1 -30 -6 0 -6 14 -11 30 -11 17 0 30 -4 30 -10 0 -5 5 -10 10 -10 6 0
10 17 10 39 0 29 -5 40 -18 43 -11 3 -19 0 -19 -8z"/>
                <path d="M3380 580 c-10 -6 -11 -10 -2 -10 6 0 12 -4 12 -10 0 -5 -7 -10 -15
-10 -8 0 -15 -3 -15 -8 0 -4 15 -7 33 -7 24 0 32 -4 32 -17 0 -10 6 -23 14
-30 12 -11 13 -10 8 4 -3 10 -1 20 4 24 6 3 1 12 -11 21 -16 11 -19 18 -10 23
7 4 9 13 6 19 -9 14 -36 14 -56 1z"/>
                <path d="M3480 578 c0 -9 -3 -23 -6 -32 -3 -9 -1 -16 4 -16 16 0 26 40 13 53
-8 8 -11 7 -11 -5z"/>
                <path d="M3530 575 c6 -8 8 -20 4 -26 -5 -8 -3 -9 6 -4 7 4 22 9 34 10 32 4
33 4 33 20 0 11 -3 12 -14 3 -10 -8 -20 -8 -39 1 -33 15 -39 14 -24 -4z"/>
                <path d="M3980 576 c0 -9 30 -14 35 -6 4 6 -3 10 -14 10 -12 0 -21 -2 -21 -4z"/>
                <path d="M2810 526 c0 -9 -4 -16 -10 -16 -5 0 -10 -4 -10 -10 0 -5 7 -10 15
-10 10 0 15 -10 15 -30 0 -16 -4 -30 -10 -30 -5 0 -10 8 -10 18 0 14 -2 15
-10 2 -7 -12 -10 -8 -10 15 l-1 30 -20 -24 c-15 -18 -18 -32 -13 -57 4 -22 2
-40 -6 -49 -7 -9 -10 -19 -6 -22 4 -4 11 -1 16 7 5 8 12 11 16 7 4 -4 -1 -16
-10 -26 -16 -18 -16 -22 -3 -41 17 -24 11 -70 -9 -70 -9 0 -14 12 -14 35 0 30
-2 34 -14 23 -8 -7 -10 -17 -6 -23 4 -5 11 -25 15 -43 5 -25 3 -32 -7 -30 -7
2 -11 -4 -9 -12 8 -35 9 -80 2 -80 -5 0 -20 12 -35 26 -26 27 -34 54 -16 54 6
0 10 -6 10 -14 0 -17 28 -41 37 -32 4 4 3 10 -3 14 -6 4 -14 15 -17 26 -5 11
-14 17 -25 14 -15 -4 -16 1 -13 39 2 31 7 43 19 43 13 0 12 3 -3 14 -17 12
-17 16 -5 31 12 14 12 18 -1 26 -8 5 -18 9 -22 9 -5 0 -1 10 7 22 18 25 20 38
7 38 -12 0 -24 -40 -22 -74 2 -16 -2 -26 -7 -22 -5 3 -12 -7 -14 -24 -2 -16
-1 -27 4 -24 4 3 8 12 8 20 0 17 20 19 21 2 3 -35 -4 -75 -16 -88 -7 -8 -15
-26 -19 -40 -5 -22 -4 -21 8 4 l13 28 15 -38 c14 -35 14 -39 1 -42 -9 -2 -19
2 -24 10 -6 9 -9 9 -9 1 0 -17 29 -31 52 -25 22 5 68 -40 68 -69 0 -16 7 -19
46 -19 33 0 51 5 60 17 13 17 13 17 14 1 0 -10 4 -18 9 -18 13 0 22 28 11 35
-16 10 -11 31 17 75 25 38 28 40 37 21 13 -29 0 -54 -24 -48 -24 6 -28 -24 -6
-43 8 -6 12 -18 9 -26 -4 -10 3 -14 25 -14 21 0 32 6 35 18 4 16 5 16 6 0 1
-14 10 -18 42 -18 32 0 40 3 35 15 -3 8 -1 15 4 15 6 0 10 14 10 31 0 17 -4
28 -10 24 -5 -3 -10 -14 -10 -23 0 -19 -38 -47 -48 -37 -4 3 -5 32 -4 63 1 31
4 79 5 106 1 35 -2 51 -12 54 -11 4 -13 -4 -8 -41 4 -31 3 -47 -6 -51 -9 -3
-9 -7 2 -14 7 -5 10 -15 6 -21 -5 -8 -13 -5 -27 11 -11 13 -15 24 -9 26 6 2 9
8 5 13 -3 5 0 9 5 9 6 0 11 16 11 35 0 34 -1 35 -39 35 -25 0 -41 5 -45 15 -8
22 -23 18 -29 -6 -4 -13 -10 -18 -17 -14 -9 6 -9 9 -1 15 7 4 9 15 5 25 -7 17
-8 17 -21 -1 -14 -18 -15 -18 -34 5 -21 26 -24 41 -9 41 6 0 14 -10 19 -22 7
-21 8 -20 15 8 7 26 9 27 20 12 7 -10 16 -15 19 -11 11 10 8 18 -13 43 -29 34
-22 58 8 28 6 -6 15 -8 19 -4 5 4 0 13 -9 20 -11 8 -14 17 -7 27 13 21 11 46
-7 63 -8 9 -13 20 -9 25 3 5 1 12 -5 16 -5 3 -10 -1 -10 -9z m-28 -107 c6 -4
8 -15 6 -25 -5 -18 -5 -18 -13 1 -5 11 -12 23 -17 26 -5 3 -5 14 -1 25 7 18 8
18 11 -1 3 -11 9 -23 14 -26z m18 -184 c0 -25 14 -33 25 -15 4 6 10 8 15 5 5
-3 11 -1 15 5 12 20 25 9 25 -22 0 -29 -1 -30 -18 -15 -23 21 -62 12 -62 -15
0 -11 5 -16 11 -13 12 8 69 -13 69 -25 0 -8 -25 -20 -41 -20 -17 0 -58 51 -52
66 3 7 0 27 -5 44 -9 24 -8 30 4 30 8 0 14 -10 14 -25z m-35 -57 c-13 -68 -16
-73 -27 -54 -10 18 -2 56 13 56 5 0 9 7 9 15 0 8 3 15 6 15 3 0 3 -15 -1 -32z
m44 -120 c1 -10 -3 -18 -9 -18 -5 0 -10 17 -9 38 0 30 2 33 9 17 5 -11 9 -28
9 -37z m-59 -22 c-7 -7 -10 4 -9 29 1 40 1 40 10 10 5 -18 5 -33 -1 -39z m27
42 c-3 -8 -6 -5 -6 6 -1 11 2 17 5 13 3 -3 4 -12 1 -19z m3 -48 c0 -5 -4 -10
-10 -10 -5 0 -10 5 -10 10 0 6 5 10 10 10 6 0 10 -4 10 -10z"/>
                <path d="M3160 533 c0 -5 5 -15 10 -23 8 -12 10 -11 10 8 0 12 -4 22 -10 22
-5 0 -10 -3 -10 -7z"/>
                <path d="M3928 533 c6 -2 18 -2 25 0 6 3 1 5 -13 5 -14 0 -19 -2 -12 -5z"/>
                <path d="M3130 513 c0 -5 9 -23 20 -41 17 -28 23 -32 35 -22 8 7 15 17 15 23
0 7 -4 7 -12 -1 -9 -9 -15 -5 -24 18 -12 27 -34 42 -34 23z"/>
                <path d="M4079 499 c-13 -10 -30 -19 -37 -19 -7 0 -10 -5 -7 -10 3 -6 -2 -13
-12 -17 -26 -10 -42 -34 -43 -65 0 -24 4 -28 29 -28 17 0 33 5 36 11 4 6 13 8
21 5 8 -3 14 0 14 6 0 7 17 9 50 6 31 -3 51 -1 53 6 2 7 10 4 21 -7 10 -9 23
-17 29 -17 7 0 -3 -10 -21 -21 -18 -12 -31 -23 -29 -25 6 -6 71 18 78 28 3 5
33 10 67 11 34 2 64 6 68 10 13 12 20 8 32 -18 6 -14 20 -25 29 -25 15 0 16 2
3 10 -10 7 -11 10 -2 10 7 0 15 -7 19 -16 10 -28 23 6 23 64 l0 52 -41 0 c-38
0 -41 2 -35 24 8 33 -12 38 -180 41 -124 3 -143 1 -165 -16z m291 -69 c0 -5
-9 -10 -19 -10 -11 0 -23 -9 -26 -21 -4 -11 -9 -18 -12 -15 -9 9 26 56 42 56
8 0 15 -4 15 -10z m-95 -19 c3 -5 1 -12 -5 -16 -5 -3 -10 1 -10 9 0 18 6 21
15 7z m95 -10 c0 -6 -4 -13 -10 -16 -5 -3 -10 1 -10 9 0 9 5 16 10 16 6 0 10
-4 10 -9z"/>
                <path d="M3498 503 c7 -3 16 -2 19 1 4 3 -2 6 -13 5 -11 0 -14 -3 -6 -6z"/>
                <path d="M3546 494 c-8 -22 -7 -34 3 -34 5 0 11 11 13 25 6 28 -6 34 -16 9z"/>
                <path d="M4475 490 c3 -5 10 -10 16 -10 5 0 9 5 9 10 0 6 -7 10 -16 10 -8 0
-12 -4 -9 -10z"/>
                <path d="M3490 474 c0 -8 5 -12 10 -9 6 4 8 11 5 16 -9 14 -15 11 -15 -7z"/>
                <path d="M3588 463 c6 -2 18 -2 25 0 6 3 1 5 -13 5 -14 0 -19 -2 -12 -5z"/>
                <path d="M2713 420 c-3 -11 -10 -17 -16 -13 -7 4 -8 0 -4 -11 7 -18 -7 -38
-33 -49 -8 -3 -10 -6 -3 -6 6 -1 24 4 38 9 20 8 25 15 20 30 -3 11 -2 20 4 20
5 0 9 9 8 20 -2 25 -7 26 -14 0z"/>
                <path d="M3135 419 c-9 -28 -2 -33 13 -9 6 11 8 21 3 25 -5 3 -13 -4 -16 -16z"/>
                <path d="M3113 380 c0 -25 2 -35 4 -22 2 12 2 32 0 45 -2 12 -4 2 -4 -23z"/>
                <path d="M3853 393 c9 -2 25 -2 35 0 9 3 1 5 -18 5 -19 0 -27 -2 -17 -5z"/>
                <path d="M3295 370 c-3 -5 -2 -10 4 -10 5 0 13 5 16 10 3 6 2 10 -4 10 -5 0
-13 -4 -16 -10z"/>
                <path d="M3090 355 c-7 -49 -7 -96 2 -87 5 5 7 31 5 58 -2 27 -5 40 -7 29z"/>
                <path d="M4140 353 c0 -5 4 -14 9 -21 7 -11 9 -11 14 1 3 8 3 18 0 21 -9 8
-23 7 -23 -1z"/>
                <path d="M2708 344 c-4 -3 -4 -12 -2 -19 3 -7 -2 -15 -11 -19 -16 -6 -12 -26
4 -26 13 0 33 52 23 62 -4 4 -11 6 -14 2z"/>
                <path d="M3112 285 c0 -16 2 -22 5 -12 2 9 2 23 0 30 -3 6 -5 -1 -5 -18z"/>
                <path d="M3053 275 c5 -37 17 -42 17 -7 0 18 -5 32 -10 32 -6 0 -9 -11 -7 -25z"/>
                <path d="M2483 214 c-1 -42 2 -43 15 -5 8 22 7 31 -2 34 -8 3 -12 -7 -13 -29z"/>
                <path d="M2690 220 c0 -11 5 -20 10 -20 6 0 10 9 10 20 0 11 -4 20 -10 20 -5
0 -10 -9 -10 -20z"/>
                <path d="M3062 205 c-13 -29 -5 -33 14 -7 15 20 18 32 6 32 -5 0 -14 -11 -20
-25z"/>
                <path d="M2582 200 c0 -14 2 -19 5 -12 2 6 2 18 0 25 -3 6 -5 1 -5 -13z"/>
                <path d="M2601 204 c0 -11 3 -14 6 -6 3 7 2 16 -1 19 -3 4 -6 -2 -5 -13z"/>
                <path d="M3132 200 c0 -14 2 -19 5 -12 2 6 2 18 0 25 -3 6 -5 1 -5 -13z"/>
                <path d="M4480 210 c0 -5 5 -10 10 -10 6 0 10 5 10 10 0 6 -4 10 -10 10 -5 0
-10 -4 -10 -10z"/>
                <path d="M3107 203 c-10 -10 -8 -53 2 -53 5 0 9 14 9 30 -1 33 -1 33 -11 23z"/>
                <path d="M1882 155 c6 -14 13 -23 16 -21 7 7 -9 46 -18 46 -5 0 -4 -11 2 -25z"/>
                <path d="M2445 164 c-11 -8 -21 -19 -21 -24 -3 -23 -6 -24 -14 -5 -8 19 -9 18
-9 -4 -1 -21 -3 -22 -18 -10 -15 13 -16 11 -10 -13 4 -15 3 -30 -3 -33 -5 -3
-10 1 -10 10 0 9 -5 13 -10 10 -6 -4 -8 -16 -4 -28 6 -19 5 -20 -9 -9 -13 11
-16 10 -22 -9 -5 -13 -2 -27 8 -36 18 -18 35 -10 47 23 5 13 16 24 25 24 8 0
15 5 15 12 0 9 3 9 12 0 10 -10 10 -15 -2 -22 -8 -5 -17 -7 -21 -5 -3 3 -11
-7 -17 -20 l-12 -25 70 1 c47 1 70 6 74 15 3 7 1 16 -3 19 -5 3 -7 24 -4 48
l6 42 -37 -34 -36 -35 0 28 c0 15 9 41 20 56 23 32 15 45 -15 24z m35 -108 c0
-2 -8 -10 -17 -17 -16 -13 -17 -12 -4 4 13 16 21 21 21 13z"/>
                <path d="M1755 143 c9 -38 25 -53 25 -25 0 12 -4 22 -10 22 -5 0 -7 7 -4 15 4
8 1 15 -6 15 -8 0 -10 -9 -5 -27z"/>
                <path d="M4000 156 c0 -9 5 -16 10 -16 6 0 10 4 10 9 0 6 -4 13 -10 16 -5 3
-10 -1 -10 -9z"/>
                <path d="M3250 150 c0 -5 5 -10 11 -10 5 0 7 5 4 10 -3 6 -8 10 -11 10 -2 0
-4 -4 -4 -10z"/>
                <path d="M3390 141 c0 -6 9 -11 19 -11 11 0 23 -4 26 -10 3 -5 13 -10 21 -10
8 0 12 5 9 10 -4 6 -10 8 -15 5 -4 -3 -10 -1 -12 4 -5 13 -48 24 -48 12z"/>
                <path d="M3070 124 c0 -8 5 -12 10 -9 6 3 10 10 10 16 0 5 -4 9 -10 9 -5 0
-10 -7 -10 -16z"/>
                <path d="M3082 80 c0 -14 2 -19 5 -12 2 6 2 18 0 25 -3 6 -5 1 -5 -13z"/>
                <path d="M4477 84 c3 -7 9 -14 14 -14 14 0 10 17 -5 23 -10 4 -13 1 -9 -9z"/>
                <path d="M3425 80 c-3 -5 -1 -10 6 -10 7 0 10 -2 8 -4 -3 -3 -21 -1 -42 3 -53
13 -46 -4 9 -18 44 -11 64 -9 64 9 0 15 -38 32 -45 20z"/>
                <path d="M4291 74 c0 -11 3 -14 6 -6 3 7 2 16 -1 19 -3 4 -6 -2 -5 -13z"/>
                <path d="M3005 70 c-3 -5 -3 -15 1 -21 6 -11 23 6 24 24 0 10 -18 9 -25 -3z"/>
                <path d="M3115 71 c-3 -5 -1 -12 5 -16 5 -3 10 1 10 9 0 18 -6 21 -15 7z"/>
                <path d="M1855 59 c-10 -15 3 -25 16 -12 7 7 7 13 1 17 -6 3 -14 1 -17 -5z"/>
                <path d="M2610 36 c0 -20 5 -36 10 -36 6 0 10 13 10 29 0 17 -4 33 -10 36 -6
4 -10 -8 -10 -29z"/>
                <path d="M4255 60 c-3 -5 -16 -10 -29 -10 -13 0 -23 -6 -23 -15 0 -8 2 -15 4
-15 13 0 63 32 63 40 0 13 -7 13 -15 0z"/>
                <path d="M2670 41 c0 -5 -3 -16 -6 -25 -3 -9 -1 -16 4 -16 6 0 13 8 15 17 4
17 5 17 6 1 1 -23 17 -23 25 -2 8 20 8 19 -21 28 -13 4 -23 3 -23 -3z"/>
                <path d="M4436 37 c3 -9 16 -12 35 -9 22 3 27 7 18 13 -22 14 -59 11 -53 -4z"/>
                <path d="M2280 33 c0 -15 19 -37 26 -31 3 4 -1 14 -10 23 -9 9 -16 13 -16 8z"/>
                <path d="M2246 21 c-4 -7 -5 -15 -2 -18 9 -9 19 4 14 18 -4 11 -6 11 -12 0z"/>
                <path d="M2580 16 c0 -9 5 -16 10 -16 6 0 10 4 10 9 0 6 -4 13 -10 16 -5 3
-10 -1 -10 -9z"/>
                <path d="M1860 10 c0 -5 5 -10 10 -10 6 0 10 5 10 10 0 6 -4 10 -10 10 -5 0
-10 -4 -10 -10z"/>
                <path d="M3100 10 c0 -5 7 -10 15 -10 8 0 15 5 15 10 0 6 -7 10 -15 10 -8 0
-15 -4 -15 -10z"/>
                <path d="M3350 10 c0 -5 5 -10 10 -10 6 0 10 5 10 10 0 6 -4 10 -10 10 -5 0
-10 -4 -10 -10z"/>
        </g>
</svg>
