<?xml version="1.0" standalone="no"?>
<!DOCTYPE svg PUBLIC "-//W3C//DTD SVG 20010904//EN"
 "http://www.w3.org/TR/2001/REC-SVG-20010904/DTD/svg10.dtd">
<svg version="1.0"
    xmlns="http://www.w3.org/2000/svg" width="450.000000pt" height="450.000000pt" viewBox="0 0 450.000000 450.000000" preserveAspectRatio="xMidYMid meet">
    <metadata>
Created by potrace 1.14, written by Peter Selinger 2001-2017
    </metadata>
    <g transform="translate(0.000000,450.000000) scale(0.100000,-0.100000)" fill="#000000" stroke="none">
        <path d="M2975 4113 c-38 -9 -107 -33 -136 -48 -35 -19 -149 -128 -149 -144 0
-6 -6 -11 -13 -11 -8 0 -22 -17 -33 -37 -10 -21 -22 -39 -26 -41 -5 -2 -8 -8
-8 -13 0 -6 -11 -22 -25 -36 l-24 -27 -41 23 c-37 21 -57 23 -203 27 -89 2
-174 9 -189 15 -21 9 -31 8 -50 -5 -12 -9 -32 -16 -45 -16 -36 0 -263 -48
-335 -71 -41 -13 -68 -27 -68 -35 0 -8 -4 -14 -10 -14 -5 0 -7 7 -4 15 9 22
-8 18 -47 -10 -24 -19 -41 -24 -59 -20 -50 13 -136 83 -279 231 -81 83 -157
156 -170 163 -14 8 -37 10 -60 6 -20 -4 -47 -9 -61 -11 -80 -13 -110 -32 -110
-69 0 -28 45 -51 66 -34 11 9 14 9 14 -1 0 -6 -9 -14 -20 -17 -20 -5 -24 -15
-21 -42 2 -7 -2 -10 -8 -6 -7 3 -11 -3 -11 -15 0 -15 -5 -20 -14 -17 -17 7
-36 -11 -36 -35 0 -10 -3 -18 -8 -18 -4 0 -16 -17 -26 -37 -10 -21 -22 -46
-27 -55 -5 -10 -9 -32 -9 -50 0 -18 -7 -45 -14 -60 -9 -16 -11 -30 -5 -33 5
-4 6 -23 3 -43 -3 -20 -6 -45 -8 -54 -1 -10 -5 -21 -9 -24 -4 -4 -7 -15 -7
-25 0 -10 -5 -21 -11 -25 -8 -4 -9 0 -4 15 7 22 -9 30 -19 9 -3 -7 -4 -2 -3
11 1 13 -3 26 -10 28 -14 5 -28 -147 -19 -214 12 -89 39 -203 47 -203 5 0 9
-7 9 -16 0 -13 66 -114 74 -114 2 0 3 14 3 30 0 17 -3 26 -7 20 -5 -7 -9 -4
-13 9 -2 11 0 22 5 23 7 3 7 11 -1 26 -8 15 -9 28 -2 40 8 14 11 14 12 2 1 -8
1 -23 0 -32 -1 -10 3 -18 8 -18 6 0 11 6 11 13 1 7 6 4 15 -6 7 -11 12 -28 10
-38 -2 -11 0 -17 4 -15 5 3 16 -3 26 -14 10 -11 22 -17 26 -14 5 3 9 -1 9 -8
1 -20 72 -66 115 -73 22 -4 62 -13 89 -21 27 -7 52 -11 57 -8 5 3 9 1 9 -4 0
-6 19 -5 48 1 26 5 66 10 90 11 28 1 41 5 38 13 -3 6 1 16 8 22 21 17 7 -51
-15 -71 -10 -10 -23 -35 -28 -55 -14 -50 -14 -133 0 -133 6 0 8 -9 4 -20 -7
-22 12 -86 32 -111 8 -9 12 -29 9 -44 -6 -30 19 -95 36 -95 5 0 6 -4 3 -10 -3
-5 3 -15 15 -22 11 -7 20 -23 20 -35 0 -12 5 -25 10 -28 25 -15 -12 -74 -47
-75 -7 0 -13 -9 -13 -19 0 -11 -5 -23 -10 -26 -5 -3 -10 1 -10 10 0 14 -5 13
-28 -7 -16 -12 -43 -34 -62 -48 -18 -14 -42 -34 -52 -44 -13 -14 -18 -16 -18
-6 0 33 -58 161 -108 237 -30 46 -84 116 -121 157 -61 67 -219 212 -254 233
-7 4 -30 34 -50 66 -26 41 -43 57 -59 58 -13 0 -17 3 -10 6 17 6 -14 43 -36
43 -8 0 -12 6 -9 14 3 8 -1 20 -9 26 -8 7 -14 18 -14 25 0 6 -9 20 -20 30 -11
10 -20 23 -20 30 0 7 -9 20 -20 30 -11 10 -20 22 -20 26 0 5 -14 31 -30 59
-17 28 -30 60 -30 71 0 11 -6 30 -14 42 -8 12 -16 34 -18 49 -2 15 -7 30 -10
34 -4 3 -4 12 -1 20 3 8 1 14 -3 14 -10 0 -12 10 -20 135 -7 98 -14 115 -50
115 -38 0 -60 -48 -55 -120 1 -20 3 -22 11 -10 8 12 10 11 10 -7 0 -13 -5 -23
-11 -23 -7 0 -9 -9 -5 -22 4 -13 8 -45 10 -71 5 -59 10 -65 36 -42 11 10 23
15 27 12 3 -4 1 -7 -5 -7 -7 0 -12 -6 -12 -13 0 -7 -10 -18 -21 -25 -16 -10
-18 -17 -10 -25 6 -6 11 -21 11 -34 0 -23 18 -27 32 -8 4 6 8 -3 8 -20 0 -23
-3 -27 -10 -15 -7 11 -10 8 -10 -16 0 -37 9 -48 27 -33 10 9 13 8 13 -4 0 -8
-5 -17 -12 -19 -6 -2 -8 -10 -4 -16 5 -9 13 -6 27 10 l20 23 -6 -31 c-7 -36
20 -100 28 -67 3 10 6 4 7 -17 l3 -35 7 35 7 35 2 -37 c0 -20 5 -40 11 -43 5
-3 10 -12 10 -18 0 -7 -4 -6 -11 3 -8 12 -10 12 -7 -4 4 -28 26 -31 31 -4 2
13 5 4 7 -22 2 -38 3 -41 10 -20 8 25 8 25 9 -4 1 -20 13 -41 39 -66 27 -25
45 -54 57 -93 19 -59 35 -82 36 -50 0 14 2 14 9 -4 5 -13 14 -23 20 -23 5 0
10 -6 10 -13 0 -8 12 -19 27 -26 21 -10 28 -9 34 1 8 12 13 4 10 -14 -2 -15
64 -115 74 -111 6 2 16 -7 24 -19 13 -21 13 -22 -3 -9 -9 8 -19 11 -22 8 -7
-7 55 -47 74 -47 6 0 12 -7 12 -15 0 -8 5 -15 10 -15 6 0 10 -6 10 -13 0 -7 9
-23 20 -35 11 -12 20 -26 20 -32 0 -6 4 -9 9 -6 10 7 42 -64 65 -146 9 -32 21
-58 27 -58 5 0 9 -6 7 -12 -3 -16 31 -129 43 -142 5 -6 9 -23 9 -39 0 -18 4
-26 11 -21 7 4 9 0 6 -12 -3 -11 -8 -29 -12 -41 -3 -13 -13 -23 -21 -23 -8 0
-14 -7 -14 -15 0 -8 -4 -15 -8 -15 -5 0 -14 -11 -20 -25 -7 -14 -30 -50 -52
-79 -22 -29 -40 -58 -40 -64 0 -7 -4 -12 -9 -12 -5 0 -16 -18 -25 -40 -9 -22
-20 -40 -25 -40 -5 0 -22 -21 -37 -47 -15 -27 -34 -53 -42 -59 -32 -24 -2
-156 32 -137 6 3 8 2 3 -2 -4 -5 1 -17 10 -27 15 -16 15 -22 4 -40 -18 -29
-43 -116 -37 -127 3 -5 -1 -15 -10 -22 -11 -9 -14 -22 -9 -46 5 -26 3 -32 -8
-27 -15 5 -27 -33 -27 -81 0 -13 -7 -25 -15 -29 -9 -3 -15 -18 -15 -39 0 -19
-7 -53 -14 -75 -9 -25 -11 -44 -5 -47 5 -4 9 -16 8 -28 0 -21 -1 -21 -8 -2 -8
19 -8 19 -15 -3 -6 -18 -12 -21 -34 -16 -15 4 -33 11 -40 17 -8 7 -12 5 -12
-7 0 -19 -11 -21 -28 -4 -9 9 -13 8 -17 -5 -5 -12 -23 -15 -89 -15 -81 1 -83
1 -78 24 2 13 -1 31 -8 39 -12 15 -6 35 12 35 7 0 6 -6 -2 -15 -10 -12 -9 -15
8 -15 27 0 48 26 27 34 -12 4 -13 11 -7 23 12 24 4 43 -15 36 -11 -4 -14 0
-11 18 2 19 8 23 27 21 15 -2 21 0 17 7 -4 6 -3 11 2 11 5 0 12 9 15 20 3 11
12 20 21 20 22 0 20 13 -3 27 -15 10 -21 10 -24 0 -2 -7 -3 -4 -2 5 2 9 -3 19
-11 22 -8 3 -13 16 -11 28 1 17 -4 24 -21 26 -12 2 -20 8 -17 13 4 5 -2 9 -11
9 -10 0 -33 15 -51 32 -29 28 -36 30 -44 18 -9 -13 -10 -12 -5 2 13 42 -105
93 -188 82 l-46 -7 2 -205 3 -206 24 -6 c14 -3 27 -12 29 -19 3 -10 -2 -12
-22 -7 -22 5 -26 3 -26 -17 0 -12 7 -49 15 -82 52 -199 174 -364 343 -464 127
-76 218 -99 420 -108 126 -5 156 -4 163 8 6 10 9 10 9 2 0 -9 22 -13 76 -13
71 0 75 1 69 20 -4 11 -2 20 4 20 6 0 11 7 11 16 0 8 -5 12 -10 9 -13 -8 -13
8 1 39 7 14 16 23 20 20 5 -3 9 38 9 90 0 65 5 109 17 138 23 60 29 64 32 21
9 -126 4 -173 -15 -173 -10 0 -14 -6 -10 -15 3 -8 0 -15 -5 -15 -7 0 -9 -11
-6 -26 2 -15 -2 -31 -10 -40 -9 -8 -12 -18 -8 -22 4 -4 10 -1 12 6 7 19 20 14
27 -10 10 -41 51 -78 85 -78 25 0 31 4 31 23 l1 22 18 -22 c11 -13 25 -23 31
-23 22 0 49 45 61 99 10 47 9 59 -5 83 -16 27 -16 29 8 54 27 30 26 43 -4 62
-37 23 -66 5 -84 -50 -9 -27 -13 -54 -10 -59 3 -5 -3 -9 -13 -9 -15 0 -16 -2
-3 -10 8 -5 25 -7 37 -3 37 9 26 -13 -11 -24 -42 -13 -46 -10 -45 36 0 33 16
88 19 66 2 -22 33 72 36 110 4 52 5 55 13 26 4 -14 11 -26 17 -28 25 -8 -11
88 -40 109 -11 7 12 88 25 88 4 0 11 19 15 43 4 23 9 36 11 30 7 -21 20 -15
27 11 3 13 9 32 13 43 7 17 6 17 -20 0 l-27 -17 1 32 c0 26 2 29 8 13 6 -15 9
-10 15 25 5 33 9 41 16 30 6 -9 6 -16 0 -18 -6 -2 -10 -15 -10 -30 0 -14 3
-22 7 -19 3 4 12 2 20 -4 10 -9 13 -8 13 5 0 9 -5 16 -10 16 -7 0 -9 28 -6 75
4 76 -6 94 -18 30 -10 -49 -21 -50 -23 -1 -1 23 -9 55 -18 71 -13 23 -16 25
-12 8 4 -16 1 -23 -10 -23 -11 0 -14 6 -9 23 3 12 6 36 7 52 1 27 2 28 7 7 9
-30 27 -24 23 7 -1 13 3 35 10 48 12 22 11 26 -4 34 -9 6 -17 16 -17 24 0 7
-4 15 -8 17 -5 2 -12 18 -15 36 -4 20 -3 31 3 27 6 -3 7 1 4 10 -6 14 -10 12
-24 -10 -17 -27 -18 -27 -25 -6 -3 12 -10 19 -15 16 -10 -6 -20 33 -13 52 3 8
12 12 19 9 8 -3 14 1 14 10 0 8 3 13 8 10 13 -8 44 22 40 41 -1 10 2 18 7 18
6 0 9 -2 8 -5 -2 -8 51 -8 57 -1 3 4 26 17 53 30 36 18 46 29 42 42 -5 13 -1
16 13 12 16 -4 19 0 15 20 -3 17 1 31 15 42 11 10 17 25 15 36 -4 14 -8 15
-18 6 -7 -7 -10 -16 -7 -22 2 -5 -1 -4 -9 3 -11 10 -11 14 -1 21 7 4 10 15 6
24 -3 9 -11 14 -17 10 -6 -4 -8 0 -4 10 3 9 3 16 -1 16 -26 -4 -32 3 -28 41 2
22 7 40 12 39 5 0 8 -7 6 -15 -2 -8 2 -14 8 -14 5 0 10 7 10 15 0 8 3 15 8 16
4 0 17 2 30 3 12 2 22 -1 22 -5 0 -4 15 -4 33 0 17 3 65 6 104 6 58 0 73 3 73
15 0 8 3 25 6 38 5 18 2 22 -16 22 -13 0 -29 -8 -36 -17 -13 -17 -13 -17 -14
0 0 12 -8 17 -30 17 -22 0 -30 -5 -31 -17 0 -15 -2 -15 -9 2 -6 14 -9 15 -10
5 0 -8 -8 -24 -16 -35 -15 -19 -16 -18 -9 15 7 31 6 33 -9 21 -10 -9 -14 -21
-10 -34 4 -14 3 -17 -6 -12 -6 4 -10 18 -7 31 4 25 -7 31 -63 33 -14 0 -26 5
-28 11 -2 5 -8 8 -13 4 -5 -3 -9 2 -9 11 0 12 5 15 16 11 11 -4 14 -1 12 12
-2 10 -11 16 -21 14 -12 -2 -17 4 -18 20 0 13 -3 17 -6 11 -2 -7 -13 -13 -22
-13 -10 0 -31 -12 -45 -27 -21 -20 -36 -27 -60 -25 -23 2 -37 -3 -54 -22 -31
-36 -39 -33 -40 20 0 36 3 44 14 40 8 -3 13 -2 10 3 -3 5 0 11 8 14 8 3 16 16
18 28 2 15 12 26 28 30 14 4 21 7 16 8 -5 1 -1 10 9 21 10 11 22 17 26 14 12
-7 35 16 43 44 4 12 16 22 26 22 10 0 25 6 33 14 8 8 22 14 32 13 29 -3 74
-50 81 -85 4 -21 16 -36 35 -46 16 -8 29 -11 29 -6 0 5 21 23 47 40 42 28 48
30 58 16 7 -9 14 -13 17 -10 3 2 10 -13 15 -35 7 -27 7 -43 0 -50 -8 -8 -4
-11 12 -11 14 0 25 7 28 20 3 11 11 20 18 20 7 0 16 6 18 13 3 6 6 3 7 -8 l1
-20 9 20 c5 11 9 15 9 8 1 -6 14 2 30 18 18 18 35 27 45 23 11 -4 16 -1 16 11
0 9 5 13 10 10 15 -9 0 -56 -27 -85 -21 -23 -24 -29 -22 -46 0 -4 -5 -10 -12
-15 -8 -4 -10 -11 -5 -16 4 -4 12 1 19 12 6 11 31 40 56 64 42 41 45 43 58 25
8 -11 16 -18 19 -16 3 2 8 1 12 -2 5 -5 -13 -10 -30 -7 -3 0 -11 -12 -16 -27
-5 -15 -25 -43 -45 -62 -20 -19 -33 -38 -30 -43 3 -5 -3 -4 -14 1 -11 6 -33 9
-49 7 -16 -2 -37 -4 -46 -4 -13 -1 -18 -9 -18 -30 0 -27 2 -29 28 -22 16 5 26
14 26 24 -1 9 2 14 8 11 5 -3 15 0 23 6 12 10 15 9 15 -9 0 -12 -6 -21 -15
-21 -8 0 -15 -5 -15 -11 0 -5 5 -7 12 -3 8 5 9 -4 4 -35 -5 -36 -4 -42 10 -39
9 2 22 19 28 38 10 31 16 35 69 48 31 8 57 19 57 25 0 6 -3 7 -6 4 -16 -16
-44 15 -44 49 0 21 4 33 10 29 6 -3 10 1 10 9 0 10 6 13 17 9 13 -5 15 -2 11
15 -4 15 -2 22 8 22 8 0 14 7 14 15 0 8 6 15 13 16 6 0 49 4 93 7 63 6 80 4
77 -5 -3 -7 -9 -10 -14 -7 -5 3 -9 -2 -9 -10 0 -14 3 -14 20 -4 11 7 23 21 26
31 3 10 8 16 11 13 3 -3 21 10 39 30 38 40 71 46 113 19 10 -5 16 -4 19 3 2 7
8 10 13 6 5 -3 9 0 9 6 0 6 5 8 10 5 6 -3 10 0 10 7 0 8 7 23 16 34 13 16 15
16 10 2 -3 -12 0 -18 9 -18 8 0 15 7 15 16 0 8 5 12 10 9 6 -3 10 1 10 9 0 9
4 15 9 14 4 -2 18 8 29 22 l21 25 1 -25 c1 -14 4 -19 7 -12 2 6 11 12 19 12 8
0 14 7 14 17 0 15 1 15 18 0 10 -10 26 -17 35 -17 9 0 19 -11 23 -25 3 -14 10
-22 15 -19 5 3 18 -1 29 -9 20 -14 19 -15 -15 -50 -20 -21 -40 -37 -45 -37 -6
0 -10 -14 -10 -31 0 -28 -3 -31 -25 -27 -14 3 -25 1 -25 -3 0 -15 -22 -10 -37
9 -14 16 -14 16 -9 0 7 -22 -13 -35 -25 -17 -7 11 -9 9 -9 -6 0 -14 -7 -20
-26 -21 -18 -2 -24 2 -20 12 7 19 -6 25 -25 11 -16 -12 -19 -18 -19 -38 0 -8
-5 -8 -15 1 -12 10 -15 10 -15 -4 0 -19 -59 -23 -61 -3 -1 6 -4 -1 -8 -18 -3
-17 -14 -31 -24 -33 -15 -3 -17 1 -11 25 6 23 5 26 -7 17 -8 -7 -25 -12 -39
-12 -14 0 -44 -5 -67 -11 -23 -6 -45 -11 -50 -10 -4 1 -19 0 -33 -1 l-25 -2
28 -10 c15 -5 27 -14 27 -20 0 -7 5 -6 14 1 9 8 16 8 20 2 8 -13 -3 -19 -36
-19 -15 0 -25 4 -22 9 3 5 -4 9 -15 9 -10 0 -27 3 -37 7 -13 5 -16 3 -11 -9 6
-17 -8 -19 -30 -5 -9 6 -11 3 -7 -8 4 -9 35 -29 70 -46 51 -23 68 -27 84 -19
11 6 43 15 71 20 47 9 137 46 149 61 21 26 150 19 150 -8 0 -8 5 -11 11 -7 8
5 8 1 0 -14 -6 -11 -11 -23 -11 -26 0 -11 82 37 87 50 3 8 9 12 13 9 4 -3 15
11 24 30 9 19 24 35 33 35 11 0 14 6 10 22 -6 20 -3 19 20 -6 24 -26 25 -30
10 -41 -9 -6 -21 -24 -26 -39 -10 -24 -7 -30 25 -62 34 -33 38 -49 11 -49 -7
0 -13 -8 -15 -17 -2 -11 3 -18 12 -18 9 0 16 5 16 10 0 6 5 10 11 10 6 0 29
13 52 28 64 44 76 46 103 17 13 -14 20 -25 17 -25 -4 0 -2 -5 4 -11 12 -12 9
-48 -8 -105 -7 -23 -5 -46 9 -90 10 -32 17 -77 16 -99 -1 -22 1 -44 4 -50 4
-5 5 -22 4 -36 -2 -16 6 -34 21 -50 44 -45 60 -117 43 -187 -7 -28 -4 -36 22
-60 23 -22 31 -39 36 -85 4 -31 11 -59 16 -62 5 -3 7 -27 3 -52 -5 -36 -3 -44
7 -38 12 8 12 16 -4 185 -2 19 -11 103 -20 185 -8 83 -16 186 -16 230 0 62 -5
88 -20 115 -11 19 -30 55 -43 80 -12 25 -26 48 -32 52 -5 4 -7 8 -3 8 3 0 0
24 -8 53 -7 28 -14 63 -14 76 0 26 54 118 82 139 9 7 23 18 30 25 7 8 54 35
103 61 77 41 186 114 228 152 7 6 29 14 49 18 56 10 60 22 59 155 l-2 119 36
47 c20 25 52 60 71 77 64 57 199 148 217 148 10 0 42 -24 72 -54 45 -45 63
-56 116 -69 35 -9 64 -15 65 -14 0 1 -4 41 -9 90 -10 84 -9 88 12 111 14 15
30 22 41 19 24 -6 118 15 126 29 3 5 -3 20 -15 32 -12 12 -21 34 -21 47 0 19
-9 29 -34 42 -50 23 -53 48 -16 115 18 31 43 71 56 89 13 17 20 34 16 37 -5 3
-43 4 -86 2 -84 -3 -99 5 -78 47 13 26 62 167 62 179 0 12 -52 -2 -71 -18 -8
-8 -20 -14 -26 -14 -5 0 -16 -12 -23 -27 -8 -18 -14 -23 -17 -15 -6 16 -53
-24 -53 -45 0 -7 -6 -13 -12 -13 -17 -1 -58 -35 -58 -49 0 -6 -4 -11 -10 -11
-5 0 -10 4 -10 8 0 5 -18 14 -40 21 -42 13 -86 53 -106 99 l-12 27 -2 -30 c-1
-26 -3 -27 -9 -10 -13 31 -32 -52 -37 -155 -4 -85 18 -186 38 -174 4 3 8 0 8
-7 0 -7 -24 -34 -52 -61 -29 -27 -68 -63 -86 -81 -18 -18 -38 -31 -43 -30 -5
2 -9 -1 -9 -5 0 -10 -80 -94 -80 -84 0 4 -7 -1 -15 -12 -12 -16 -13 -13 -10
30 3 31 1 44 -4 35 -7 -11 -10 -9 -16 8 -3 12 -10 19 -15 16 -4 -3 -6 3 -3 14
5 20 -12 38 -22 22 -3 -6 -6 -59 -7 -118 0 -106 13 -209 35 -267 6 -16 10 -52
8 -80 -1 -38 1 -47 9 -36 8 12 9 9 4 -12 -9 -39 23 -129 43 -121 8 3 3 -6 -11
-21 -15 -14 -31 -26 -36 -26 -6 0 -10 -5 -10 -11 0 -6 -9 -9 -20 -6 -12 3 -24
-1 -30 -11 -5 -10 -10 -12 -10 -5 0 6 -13 11 -28 11 -21 -1 -32 -8 -41 -30
-10 -23 -16 -26 -27 -17 -11 9 -22 6 -50 -10 -19 -12 -40 -19 -45 -16 -5 4
-10 27 -11 53 l-1 47 -7 -45 c-4 -25 -8 -40 -8 -35 -2 10 -53 45 -66 45 -3 0
-7 -24 -7 -52 -2 -49 -2 -51 -9 -18 -6 30 -8 31 -10 10 -1 -14 -2 -28 -1 -32
0 -5 -4 -8 -10 -8 -5 0 -8 -4 -5 -9 3 -5 -1 -31 -9 -57 -8 -27 -15 -57 -15
-67 0 -20 -60 -119 -60 -99 0 7 5 22 10 33 12 21 1 26 -18 7 -9 -9 -12 -9 -12
0 0 7 6 15 13 18 16 6 14 86 -2 128 -8 20 -8 39 -1 65 15 54 13 94 -4 88 -8
-3 -20 1 -26 8 -14 17 -41 6 -75 -31 -22 -23 -55 -25 -55 -2 0 5 -4 7 -8 4
-16 -10 -74 53 -70 77 3 19 9 22 46 22 24 0 46 -3 48 -7 6 -9 34 1 34 12 0 4
-14 13 -30 20 -17 7 -35 21 -40 31 -18 32 -11 33 20 4 17 -16 30 -23 30 -17 0
7 -7 15 -15 18 -20 8 -9 24 13 20 61 -12 164 -17 158 -8 -6 10 -94 36 -113 33
-6 -1 -15 9 -19 21 -7 22 -7 22 -15 3 -6 -17 -8 -16 -8 8 -1 32 -21 27 -21 -5
0 -12 -2 -19 -5 -16 -3 2 -2 26 1 52 l7 48 16 -26 c18 -30 41 -42 41 -20 0 8
-7 17 -15 20 -17 7 -21 34 -5 34 6 0 10 -4 10 -10 0 -5 8 -10 18 -9 10 0 12 3
5 6 -18 7 -16 23 2 23 8 0 15 -4 15 -10 0 -5 5 -10 11 -10 6 0 8 7 5 16 -4 11
-2 15 8 11 9 -4 17 2 21 14 4 10 11 19 16 19 5 0 9 7 9 15 0 8 5 15 10 15 6 0
10 -7 10 -15 0 -8 5 -15 11 -15 6 0 8 9 4 21 -5 15 -4 19 4 15 6 -4 11 -1 12
6 0 7 4 4 9 -7 8 -18 9 -18 9 -2 1 10 5 15 11 12 6 -4 7 1 3 11 -5 13 -2 15
15 9 16 -5 22 -2 22 9 0 9 7 16 15 16 8 0 15 4 15 10 0 5 7 7 15 4 10 -4 15 0
15 11 0 9 4 14 9 10 6 -3 13 1 18 8 4 7 16 17 26 20 11 4 15 12 11 19 -5 8 -2
9 9 5 10 -3 17 -3 17 1 0 4 36 45 80 92 113 120 108 134 -10 30 -35 -30 -72
-61 -84 -69 -22 -15 -41 -31 -93 -79 -18 -17 -33 -27 -33 -24 0 4 -5 -1 -11
-10 -5 -10 -17 -18 -24 -18 -8 0 -15 -6 -15 -14 0 -8 -12 -17 -27 -21 -15 -3
-40 -17 -56 -31 -16 -13 -41 -24 -58 -24 -21 0 -29 -5 -29 -17 0 -14 -2 -15
-9 -4 -7 11 -15 11 -40 3 -31 -11 -31 -11 -31 23 0 40 8 65 22 65 19 0 56 48
63 82 4 18 14 42 21 53 8 11 14 26 14 34 0 21 30 51 45 45 15 -6 105 34 105
47 0 5 -9 9 -20 9 -11 0 -20 -4 -20 -10 0 -5 -9 -14 -19 -20 -17 -8 -20 -7
-18 10 1 11 5 20 9 20 4 0 8 9 8 19 0 30 11 51 26 51 8 0 11 6 8 15 -4 10 0
15 12 15 15 0 16 2 5 9 -13 9 -41 -8 -41 -24 0 -15 -40 -46 -50 -40 -9 5 -10
1 -5 -14 5 -17 3 -20 -11 -14 -13 5 -15 3 -9 -7 5 -9 4 -11 -3 -6 -7 4 -12 14
-12 22 0 8 4 13 8 10 11 -6 10 189 0 200 -5 4 -8 12 -8 18 0 6 5 3 11 -6 10
-18 30 -25 28 -10 -5 32 16 45 25 15 3 -11 4 -9 3 6 -2 18 4 25 21 27 13 2 28
9 35 14 7 6 33 24 60 41 26 17 47 37 47 46 0 8 5 11 10 8 6 -3 10 0 10 8 0 7
19 23 43 35 50 25 71 47 118 122 18 30 39 61 46 68 28 29 48 126 47 228 0 86
-4 106 -22 135 -12 19 -29 50 -38 69 -52 116 -44 104 -113 181 -54 61 -191
133 -191 101 0 -5 16 -14 35 -22 19 -8 35 -17 35 -22 0 -4 6 -8 13 -8 20 -1
57 -37 58 -57 0 -11 2 -13 6 -5 6 16 72 -71 103 -135 21 -45 27 -118 10 -128
-9 -5 -14 20 -13 62 0 6 -5 9 -11 7 -6 -2 -22 16 -35 41 -39 74 -82 111 -164
144 -16 6 -31 21 -34 32 -4 15 -8 17 -14 8 -6 -10 -13 -9 -33 5 -15 9 -26 12
-26 6 0 -6 -4 -8 -10 -5 -5 3 -10 1 -10 -4 0 -14 -47 -14 -55 0 -12 18 -107 1
-129 -24 -15 -17 -18 -18 -13 -4 9 25 -12 21 -23 -5 -5 -13 -9 -17 -9 -10 -3
60 112 125 221 125 22 0 39 6 42 14 5 13 -34 16 -79 6z m-2022 -129 c-4 -12
-33 -21 -33 -10 0 17 14 34 25 30 8 -3 11 -12 8 -20z m37 22 c0 -3 -4 -8 -10
-11 -5 -3 -10 -1 -10 4 0 6 5 11 10 11 6 0 10 -2 10 -4z m45 -32 c19 7 26 -4
11 -20 -15 -15 -48 -12 -54 4 -2 7 1 12 7 12 6 0 12 8 12 18 1 15 2 15 6 -1 3
-10 11 -16 18 -13z m1895 16 c0 -5 -4 -10 -10 -10 -5 0 -10 5 -10 10 0 6 5 10
10 10 6 0 10 -4 10 -10z m-30 -19 c0 -6 -4 -13 -10 -16 -5 -3 -10 1 -10 9 0 9
5 16 10 16 6 0 10 -4 10 -9z m-1800 -21 c0 -5 8 -7 18 -3 14 5 15 3 4 -8 -10
-11 -15 -10 -29 4 -11 11 -13 17 -5 17 7 0 12 -4 12 -10z m1770 5 c0 -3 -9
-14 -20 -25 -22 -22 -28 -8 -7 15 12 14 27 20 27 10z m285 -30 c17 -4 40 -19
53 -34 15 -18 25 -22 30 -14 4 6 8 -9 9 -34 1 -36 -1 -43 -14 -39 -11 4 -13 2
-9 -9 3 -9 -3 -24 -14 -35 -21 -21 -27 -35 -10 -25 6 3 10 1 10 -5 0 -16 -34
-8 -42 10 -4 9 -7 3 -7 -17 -1 -22 -8 -36 -21 -43 -15 -8 -20 -8 -20 2 0 8 -3
9 -8 3 -8 -12 -69 -55 -77 -55 -16 0 -1 21 23 32 15 8 28 23 30 36 3 19 6 21
18 11 11 -9 14 -8 14 5 0 14 -10 15 -74 11 -71 -5 -75 -4 -78 18 -2 18 -8 21
-33 19 -24 -3 -28 -1 -17 9 6 7 12 19 12 25 0 7 5 25 11 41 8 22 12 25 20 13
8 -12 10 -10 6 8 -5 19 -3 21 9 11 11 -9 14 -7 14 16 0 22 4 26 20 22 13 -3
20 0 20 8 0 25 43 28 125 10z m-2153 -28 c3 -6 -1 -21 -9 -34 -11 -17 -21 -21
-38 -17 -13 3 -26 1 -29 -5 -12 -18 -17 -84 -10 -124 5 -33 11 -40 57 -61 37
-17 54 -20 59 -12 5 7 8 5 8 -6 0 -9 13 -21 30 -27 17 -5 30 -17 30 -25 0 -13
-5 -13 -40 -1 -35 12 -41 12 -56 -2 -13 -14 -17 -14 -25 -2 -7 11 -9 11 -10
-3 -1 -10 -3 -22 -4 -28 -1 -5 -3 -14 -4 -20 0 -5 -7 -7 -14 -4 -16 6 -34 -48
-29 -87 2 -21 7 -26 23 -22 10 3 19 10 19 16 0 7 3 8 10 1 13 -13 1 -54 -16
-54 -8 0 -14 -5 -14 -11 0 -6 -6 -9 -14 -6 -11 5 -14 -7 -12 -55 1 -50 -2 -64
-21 -84 -27 -29 -28 -34 -8 -34 8 0 15 5 15 11 0 6 7 17 15 25 18 18 18 14 5
-20 -6 -16 -6 -27 0 -31 6 -4 10 1 10 9 0 9 5 16 10 16 6 0 10 -19 11 -42 l0
-43 14 50 c8 28 14 53 15 58 0 4 10 6 23 6 17 -1 18 -2 4 -6 -12 -3 -17 -13
-15 -31 2 -17 -1 -26 -9 -24 -8 1 -13 -9 -12 -25 0 -16 3 -21 6 -13 3 8 12 23
20 32 8 9 12 21 9 27 -8 12 6 21 40 27 22 4 25 2 19 -15 -5 -16 0 -21 22 -24
15 -2 11 -3 -9 -2 -21 2 -41 -1 -44 -6 -3 -5 2 -9 10 -9 9 0 16 -4 16 -9 0
-13 -28 -22 -32 -10 -6 18 -38 -3 -37 -25 0 -21 0 -21 9 2 12 27 24 29 17 2
-4 -16 0 -20 21 -20 15 0 40 -7 56 -15 33 -17 66 -20 66 -5 0 6 8 5 20 -2 11
-7 20 -15 20 -18 -1 -14 -56 -43 -81 -42 -29 1 -41 -22 -17 -30 9 -3 7 -10 -6
-24 -14 -13 -21 -15 -24 -6 -2 7 -8 10 -12 7 -5 -3 -6 -13 -3 -22 4 -11 3 -14
-5 -9 -7 4 -12 1 -12 -8 0 -16 -12 -21 -23 -9 -7 6 31 76 45 81 5 2 13 12 19
23 9 17 7 19 -16 15 -15 -3 -48 -12 -75 -21 -50 -17 -68 -43 -50 -74 5 -9 10
-11 10 -4 0 20 40 2 62 -29 l21 -30 -24 7 c-54 17 -68 25 -78 43 -5 10 -29 28
-54 41 -63 32 -96 66 -90 91 3 11 1 20 -5 20 -10 0 -19 36 -33 140 -13 92 -15
160 -5 160 4 0 6 10 3 23 -3 12 -2 38 3 57 l8 35 2 -40 c1 -22 6 -49 11 -60 6
-14 8 4 5 55 -3 47 -1 69 4 60 8 -13 10 -12 10 2 0 9 -4 20 -10 23 -12 7 -12
52 0 80 6 13 7 3 3 -27 -7 -55 2 -63 15 -15 l9 32 11 -25 c6 -14 11 -20 11
-14 1 6 -8 33 -20 59 -16 37 -18 49 -9 55 7 4 11 17 8 27 -7 27 16 71 27 52 5
-7 4 -14 -1 -16 -11 -4 -11 -130 0 -140 3 -3 6 0 7 8 7 125 11 164 20 170 14
9 36 52 44 88 9 41 41 64 69 49 12 -6 24 -16 28 -21z m201 -22 c-6 18 -5 18
10 6 9 -7 17 -20 17 -27 0 -23 -56 11 -63 38 -6 20 -3 19 18 -7 18 -21 23 -24
18 -10z m1617 14 c0 -5 -4 -9 -10 -9 -5 0 -10 7 -10 16 0 8 5 12 10 9 6 -3 10
-10 10 -16z m-50 -22 c0 -13 -35 -69 -45 -73 -7 -3 -16 -20 -21 -37 l-7 -32
-5 30 c-2 16 1 31 7 33 6 2 11 9 11 16 0 6 9 18 20 26 11 8 20 20 20 27 0 7 5
13 10 13 6 0 10 -2 10 -3z m480 -98 c-18 -28 -20 -29 -14 -9 3 14 11 27 15 28
5 2 9 11 10 20 0 10 3 12 5 6 3 -7 -5 -27 -16 -45z m-1976 6 c3 -8 1 -15 -4
-15 -6 0 -10 7 -10 15 0 8 2 15 4 15 2 0 6 -7 10 -15z m46 -15 c19 0 59 -47
64 -76 5 -23 4 -25 -3 -9 -9 18 -10 18 -10 2 -1 -10 10 -30 24 -45 27 -29 32
-24 14 11 -11 21 -11 21 11 -1 17 -18 19 -26 10 -37 -10 -13 -17 -10 -41 16
-17 18 -29 42 -29 58 0 20 -2 23 -10 11 -7 -12 -12 -12 -22 -2 -9 9 -9 12 0
12 13 0 5 28 -15 48 -7 7 -13 19 -12 25 0 9 2 8 6 0 2 -7 9 -13 13 -13z m1981
-13 c-6 -6 -11 -21 -11 -34 0 -13 -4 -23 -10 -23 -5 0 -10 8 -10 18 0 15 -2
15 -11 2 -9 -12 -10 -12 -5 3 3 10 6 21 6 23 0 3 5 2 10 -1 6 -3 10 -1 10 5 0
16 24 40 29 28 2 -5 -2 -15 -8 -21z m-621 -19 c0 -19 -2 -20 -10 -8 -13 19
-13 30 0 30 6 0 10 -10 10 -22z m-1471 -12 c6 -7 9 -22 5 -32 -5 -15 -4 -16 5
-4 12 17 11 18 45 -41 14 -25 23 -49 19 -52 -8 -8 -53 44 -53 61 0 7 -4 11 -9
8 -11 -7 -44 30 -48 54 -3 23 19 27 36 6z m1801 -16 c0 -5 -2 -10 -4 -10 -3 0
-8 5 -11 10 -3 6 -1 10 4 10 6 0 11 -4 11 -10z m310 -35 c10 -13 10 -125 0
-125 -4 0 -10 -22 -14 -49 -3 -27 -18 -70 -31 -95 -14 -26 -25 -54 -25 -62 0
-7 -5 -14 -11 -14 -14 0 -48 -41 -49 -57 0 -7 -4 -13 -10 -13 -13 0 -50 -37
-50 -51 0 -5 -4 -7 -10 -4 -5 3 -10 1 -10 -4 0 -6 -7 -11 -15 -11 -8 0 -15 -7
-15 -16 0 -8 -5 -12 -10 -9 -6 3 -17 -1 -26 -9 -31 -32 -66 -13 -69 37 -1 20
2 34 7 31 4 -3 8 -13 8 -22 0 -9 4 -23 9 -30 8 -13 13 16 14 81 0 20 2 24 8
15 7 -10 9 -10 9 2 0 13 2 13 9 1 8 -12 12 -12 25 -2 9 8 16 20 16 28 0 10 7
14 20 10 13 -3 20 0 20 10 0 8 5 11 11 8 6 -4 13 2 16 14 3 12 9 21 14 21 22
0 36 57 32 133 -3 46 0 77 6 77 5 0 12 14 16 30 4 17 10 30 15 30 4 0 6 9 3
20 -5 19 -7 19 -18 4 -10 -14 -12 -12 -12 15 0 20 3 27 9 19 4 -7 8 -8 8 -3 0
6 7 -1 15 -15 8 -14 14 -20 15 -14 0 12 41 11 59 -1 16 -9 13 1 -4 19 -9 9
-12 22 -8 33 7 17 8 17 11 -2 2 -11 8 -25 12 -30z m95 5 c3 -16 1 -38 -5 -50
-9 -16 -8 -22 6 -27 22 -8 11 -89 -21 -157 -13 -27 -22 -53 -19 -58 3 -4 1 -8
-4 -8 -6 0 -13 -11 -16 -25 -4 -14 -19 -43 -34 -65 -20 -29 -32 -38 -47 -34
-15 4 -16 3 -6 -4 7 -5 9 -12 4 -15 -13 -8 -28 5 -31 30 -2 14 5 26 20 34 35
19 58 52 46 67 -7 8 -7 12 1 12 18 0 46 31 35 38 -6 4 -7 21 -3 37 l7 30 1
-35 c1 -22 4 -31 11 -24 13 13 25 74 14 74 -5 0 -8 39 -7 88 2 125 2 124 13
117 6 -3 10 -1 10 5 0 21 19 0 25 -30z m-1229 -4 c8 -46 -2 -62 -27 -40 -22
20 -25 44 -7 62 19 19 27 14 34 -22z m1062 9 c-3 -3 -9 2 -12 12 -6 14 -5 15
5 6 7 -7 10 -15 7 -18z m-1681 -37 c-3 -8 -6 -5 -6 6 -1 11 2 17 5 13 3 -3 4
-12 1 -19z m146 -13 c11 14 14 14 32 1 20 -15 20 -15 0 -30 -11 -8 -22 -10
-23 -5 -6 15 -22 -1 -22 -22 0 -19 -1 -19 -17 -4 -14 14 -14 20 -4 37 12 19
11 20 -6 14 -16 -5 -16 -4 2 9 18 15 20 15 23 0 3 -15 5 -15 15 0z m264 -27
c-3 -8 -6 -5 -6 6 -1 11 2 17 5 13 3 -3 4 -12 1 -19z m1060 0 c-3 -8 -6 -5 -6
6 -1 11 2 17 5 13 3 -3 4 -12 1 -19z m70 -15 c-3 -10 -5 -4 -5 12 0 17 2 24 5
18 2 -7 2 -21 0 -30z m81 23 c-7 -8 -15 -12 -17 -11 -5 6 10 25 20 25 5 0 4
-6 -3 -14z m-1736 -48 c-5 -5 -8 0 -6 14 4 40 7 44 11 19 3 -13 1 -27 -5 -33z
m1548 43 c0 -5 -5 -11 -12 -13 -7 -3 -8 -10 -4 -17 7 -11 10 -11 17 0 11 18
21 6 13 -15 -4 -9 -13 -15 -20 -12 -8 3 -14 -1 -14 -9 0 -8 -4 -15 -10 -15 -5
0 -7 7 -3 16 3 9 7 25 8 37 1 12 3 25 4 30 2 10 21 9 21 -2z m-1201 -30 c-3
-6 -10 -7 -18 -2 -7 5 -10 14 -6 21 9 14 29 -2 24 -19z m1341 -1 c0 -11 -2
-20 -4 -20 -2 0 -6 9 -9 20 -3 11 -1 20 4 20 5 0 9 -9 9 -20z m-1119 -25 c12
4 19 2 19 -7 0 -10 19 -15 73 -16 68 -3 74 -5 109 -40 21 -20 37 -47 38 -59 0
-27 2 -26 -39 -12 -17 6 -31 17 -31 25 0 17 -5 17 -30 4 -17 -9 -19 -18 -13
-57 3 -26 15 -57 26 -68 l20 -20 -7 28 c-5 20 -3 27 4 22 7 -4 9 -23 4 -52 -9
-61 12 -126 38 -117 10 3 25 0 33 -6 22 -19 126 -80 135 -80 18 0 37 56 26 79
-7 17 -5 29 8 52 11 18 17 50 17 84 0 51 11 76 27 60 3 -3 0 -10 -7 -14 -10
-7 -10 -10 -1 -16 7 -4 16 -2 20 6 7 10 11 10 25 -1 12 -10 15 -23 11 -48 -3
-19 -1 -43 5 -53 7 -14 6 -19 -2 -19 -7 0 -10 -2 -7 -5 9 -10 68 27 68 42 0
16 27 42 43 43 5 0 7 -28 5 -62 -3 -57 -1 -64 20 -73 12 -5 22 -13 22 -18 0
-4 5 -5 10 -2 6 3 10 -1 10 -10 0 -9 -4 -13 -10 -10 -6 4 -10 -8 -10 -29 0
-46 -18 -95 -29 -77 -6 9 -10 5 -13 -12 -11 -55 25 -61 73 -14 16 16 31 38 35
51 3 15 12 21 29 21 29 -2 75 -43 75 -70 0 -17 2 -17 10 -5 7 11 8 5 4 -20 -4
-26 -3 -31 5 -20 10 13 11 13 10 0 0 -8 -4 -24 -9 -35 -7 -17 -9 -17 -9 -2 -1
19 -21 24 -21 5 1 -36 14 -57 39 -63 24 -5 27 -10 23 -36 -2 -16 -7 -27 -10
-25 -3 3 -10 -4 -16 -16 -6 -13 -20 -25 -31 -27 -29 -5 -55 -40 -56 -75 -2
-51 -8 -119 -14 -146 -5 -20 -3 -22 6 -10 9 12 10 11 6 -7 -4 -18 1 -23 24
-28 34 -8 35 -14 11 -46 -22 -28 -34 -69 -21 -69 5 0 9 -10 9 -21 0 -17 -3
-19 -14 -10 -11 9 -16 5 -26 -21 -16 -41 -40 -69 -51 -62 -5 3 -9 -3 -10 -13
0 -14 -2 -15 -7 -3 -9 19 -28 23 -52 10 -17 -9 -19 -17 -13 -55 5 -37 3 -45
-10 -45 -11 0 -14 6 -10 18 3 9 -3 5 -15 -10 -12 -14 -22 -36 -22 -47 0 -12
-5 -21 -10 -21 -6 0 -25 -15 -43 -34 -26 -26 -37 -32 -50 -24 -10 5 -21 7 -25
4 -5 -3 -23 8 -42 24 -42 36 -63 26 -49 -23 15 -53 11 -83 -14 -100 -39 -25
-123 -46 -153 -38 -27 7 -46 31 -25 31 6 0 11 8 11 18 0 10 -3 13 -8 7 -4 -6
-19 -16 -34 -22 -16 -7 -28 -17 -28 -22 0 -6 -6 -8 -14 -5 -7 3 -13 16 -13 30
0 25 13 33 20 12 2 -7 3 -3 1 8 -5 28 22 53 29 27 3 -11 5 -7 6 11 1 20 5 27
15 23 18 -7 27 49 10 64 -9 7 -17 -1 -30 -30 -11 -22 -23 -41 -27 -41 -4 0
-18 -11 -30 -25 -28 -31 -77 -44 -77 -21 0 10 6 13 15 10 10 -4 15 0 15 11 0
9 -4 13 -10 10 -6 -3 -7 1 -4 9 7 19 21 21 26 4 5 -14 78 60 78 78 0 26 -22
25 -55 -3 -18 -15 -34 -33 -34 -38 -2 -19 -40 -44 -64 -41 -29 3 -57 28 -57
51 0 9 -4 14 -9 11 -5 -3 -32 19 -60 49 -28 30 -54 55 -56 55 -3 0 -9 0 -14 0
-5 0 -11 10 -13 21 -4 32 -33 47 -58 32 -16 -11 -18 -10 -14 2 4 8 -1 17 -10
21 -8 3 -25 26 -37 51 -16 34 -32 49 -68 66 -34 17 -47 28 -49 47 -1 14 -10
49 -18 78 -13 43 -14 58 -4 82 6 16 9 39 6 52 -3 13 -3 17 0 10 7 -15 24 -6
24 14 0 8 -4 12 -10 9 -14 -8 -13 8 1 22 7 7 8 17 3 25 -5 7 -7 25 -6 39 2 16
-3 29 -12 32 -21 8 -56 89 -56 129 -1 24 -10 42 -36 68 -37 37 -40 57 -10 74
34 20 56 40 56 53 0 7 -7 10 -16 6 -10 -4 -17 1 -21 16 -3 11 -12 21 -19 21
-8 0 -14 10 -14 23 0 14 -3 18 -8 10 -6 -9 -17 -5 -39 16 -18 16 -34 26 -37
23 -3 -3 -6 3 -7 14 0 18 -1 18 -9 -1 l-9 -20 -1 20 c-1 11 -4 14 -7 8 -2 -7
-14 -13 -26 -13 -30 0 -41 -10 -56 -47 -14 -34 -25 -41 -36 -22 -4 6 2 20 13
32 15 17 18 28 11 45 -8 21 -6 22 34 23 23 1 45 1 50 0 4 0 7 5 7 12 0 8 9 22
20 32 18 16 20 16 20 2 0 -10 -4 -17 -10 -17 -5 0 -10 -4 -10 -10 0 -5 6 -10
14 -10 21 0 26 37 11 80 -12 34 -12 37 3 36 10 0 16 5 14 13 -2 9 11 3 33 -13
62 -48 80 -71 80 -104 0 -37 -3 -39 -20 -15 -11 15 -15 15 -29 4 -16 -13 -23
-77 -8 -67 5 3 19 -12 33 -33 13 -21 30 -36 36 -34 7 3 13 0 13 -6 0 -6 5 -11
11 -11 6 0 8 7 5 16 -3 8 -2 12 3 9 5 -3 12 -1 16 5 3 5 -1 10 -9 10 -21 0
-22 66 -1 77 10 6 11 13 5 23 -7 11 -10 12 -10 2 0 -17 -29 -46 -37 -38 -3 3
1 14 10 24 10 10 17 27 17 36 0 12 5 16 14 13 9 -4 18 2 22 15 9 30 17 12 45
-99 12 -51 26 -93 32 -93 5 0 7 -7 3 -15 -4 -12 -2 -13 14 -2 24 14 28 72 5
81 -8 3 -15 13 -15 23 0 15 2 16 10 3 5 -8 10 -10 10 -4 0 5 -5 15 -11 21 -6
6 -10 32 -8 57 3 31 0 47 -9 51 -7 3 -11 9 -8 14 3 5 -1 14 -9 21 -13 10 -13
14 1 27 8 9 13 22 10 29 -7 17 3 44 15 44 5 0 9 -7 9 -15 0 -8 -4 -15 -9 -15
-4 0 -3 -18 2 -40 14 -51 30 -52 23 -2 -4 28 -4 31 3 12 7 -21 9 -22 15 -8 10
23 31 13 55 -28 17 -29 18 -35 6 -48 -13 -12 -12 -16 2 -28 15 -11 16 -11 10
4 -3 10 -2 20 3 23 4 3 10 0 12 -7 3 -7 10 -8 17 -4 8 5 11 22 8 46 -5 42 14
76 38 67 9 -4 15 -1 15 8 0 7 7 21 15 29 12 12 13 20 5 35 -5 11 -10 29 -10
41 0 20 4 18 39 -16 25 -24 36 -43 30 -48 -5 -6 -8 -21 -8 -35 1 -17 3 -20 6
-8 2 9 9 17 14 17 5 0 23 13 39 29 31 29 39 68 18 89 -9 9 -6 11 10 7 12 -2
23 1 23 8 1 7 4 2 6 -11 3 -17 9 -21 24 -17z m-520 -9 c5 3 6 11 2 17 -4 7 9
0 28 -14 18 -15 34 -35 34 -45 1 -11 6 -18 12 -17 8 2 8 -6 0 -28 -10 -24 -13
-26 -18 -12 -4 10 -5 21 -3 25 3 4 0 9 -6 13 -5 3 -10 17 -10 30 0 27 -26 41
-34 19 -3 -9 -1 -25 5 -36 6 -11 8 -22 6 -25 -3 -2 -8 5 -12 16 -3 12 -10 21
-15 21 -5 0 -6 7 -3 17 5 12 3 14 -7 8 -10 -6 -12 -4 -7 9 4 10 8 23 8 29 1 7
4 2 6 -11 2 -12 9 -20 14 -16z m1569 9 c0 -8 -4 -15 -10 -15 -5 0 -7 7 -4 15
4 8 8 15 10 15 2 0 4 -7 4 -15z m57 -37 c-3 -7 -5 -2 -5 12 0 14 2 19 5 13 2
-7 2 -19 0 -25z m-1331 -54 c-14 -16 -29 -2 -20 19 4 12 9 13 18 4 9 -8 10
-15 2 -23z m-249 -36 c-3 -8 -6 -5 -6 6 -1 11 2 17 5 13 3 -3 4 -12 1 -19z
m-580 -80 c-3 -8 -6 -5 -6 6 -1 11 2 17 5 13 3 -3 4 -12 1 -19z m-31 -56 c-12
-11 -16 6 -9 39 l8 34 3 -33 c2 -19 1 -36 -2 -40z m-232 -40 c1 -20 5 -44 9
-52 24 -64 26 -85 16 -124 l-12 -41 -14 33 c-7 18 -10 38 -7 44 5 7 2 8 -6 3
-10 -6 -12 -1 -7 24 4 19 3 30 -3 26 -11 -7 -24 39 -17 59 3 7 2 17 -3 22 -5
5 -6 22 -3 37 4 21 8 25 14 15 7 -10 9 -9 9 4 0 9 -5 18 -12 20 -7 3 -8 9 -3
18 11 18 34 -34 39 -88z m1972 -8 c-3 -8 -11 -14 -18 -13 -10 0 -10 2 0 6 6 2
13 19 13 36 1 25 3 27 6 9 3 -13 2 -30 -1 -38z m-1516 -24 c0 -5 -2 -10 -4
-10 -3 0 -8 5 -11 10 -3 6 -1 10 4 10 6 0 11 -4 11 -10z m-867 -36 c-9 -15
-19 -21 -21 -15 -4 13 16 41 29 41 5 0 2 -12 -8 -26z m2644 -6 c-3 -8 -6 -5
-6 6 -1 11 2 17 5 13 3 -3 4 -12 1 -19z m-1637 -28 c0 -5 -4 -10 -10 -10 -5 0
-10 5 -10 10 0 6 5 10 10 10 6 0 10 -4 10 -10z m-19 -43 c-10 -9 -11 -8 -5 6
3 10 9 15 12 12 3 -3 0 -11 -7 -18z m1730 4 c-8 -5 -10 -14 -5 -22 6 -10 3
-10 -11 1 -17 14 -17 13 -10 -9 5 -17 4 -22 -5 -16 -7 4 -16 1 -21 -6 -7 -11
-9 -10 -9 4 0 23 31 55 55 56 15 1 17 -1 6 -8z m106 -7 c-3 -3 -12 -4 -19 -1
-8 3 -5 6 6 6 11 1 17 -2 13 -5z m-1857 -39 c0 -12 -19 -12 -23 0 -4 9 -1 12
9 8 7 -3 14 -7 14 -8z m1480 -4 c0 -5 -6 -14 -14 -20 -12 -10 -13 -8 -9 8 5
21 23 30 23 12z m-1503 -27 c10 -22 10 -25 -3 -20 -9 3 -18 6 -20 6 -2 0 -4 9
-4 20 0 28 13 25 27 -6z m-867 0 c0 -8 -4 -12 -10 -9 -5 3 -10 10 -10 16 0 5
5 9 10 9 6 0 10 -7 10 -16z m675 -14 c-3 -5 -11 -10 -16 -10 -6 0 -7 5 -4 10
3 6 11 10 16 10 6 0 7 -4 4 -10z m-35 -50 c0 -19 -18 -19 -23 -1 -3 14 -1 18
9 14 8 -3 14 -9 14 -13z m2950 -15 c0 -8 -2 -15 -4 -15 -2 0 -6 7 -10 15 -3 8
-1 15 4 15 6 0 10 -7 10 -15z m127 -7 c-3 -8 -6 -5 -6 6 -1 11 2 17 5 13 3 -3
4 -12 1 -19z m-2927 -8 c0 -5 -5 -10 -11 -10 -5 0 -7 5 -4 10 3 6 8 10 11 10
2 0 4 -4 4 -10z m1810 -15 c0 -8 -4 -15 -10 -15 -5 0 -7 7 -4 15 4 8 8 15 10
15 2 0 4 -7 4 -15z m-2543 -17 c-3 -8 -6 -5 -6 6 -1 11 2 17 5 13 3 -3 4 -12
1 -19z m778 -17 c-2 -2 -11 3 -19 12 -8 8 -12 17 -9 21 3 3 12 -2 19 -12 7 -9
11 -19 9 -21z m19 23 c3 -8 2 -12 -4 -9 -6 3 -10 10 -10 16 0 14 7 11 14 -7z
m134 -34 c-15 -24 -19 -21 -11 8 3 12 9 19 14 16 5 -3 3 -14 -3 -24z m1602 16
c0 -3 -4 -8 -10 -11 -5 -3 -10 -1 -10 4 0 6 5 11 10 11 6 0 10 -2 10 -4z
m1135 -116 c-3 -5 -11 -10 -16 -10 -6 0 -7 5 -4 10 3 6 11 10 16 10 6 0 7 -4
4 -10z m-58 -52 c-3 -8 -6 -5 -6 6 -1 11 2 17 5 13 3 -3 4 -12 1 -19z m-3477
-50 c0 -18 -2 -20 -9 -8 -6 8 -7 18 -5 22 9 14 14 9 14 -14z m3350 -7 c0 -5
-9 -11 -21 -14 -16 -4 -18 -3 -8 9 13 16 29 19 29 5z m-83 -73 c-3 -8 -6 -5
-6 6 -1 11 2 17 5 13 3 -3 4 -12 1 -19z m-370 -20 c-3 -7 -5 -2 -5 12 0 14 2
19 5 13 2 -7 2 -19 0 -25z m-2160 -15 c-3 -10 -5 -4 -5 12 0 17 2 24 5 18 2
-7 2 -21 0 -30z m1557 13 c-3 -7 -11 -13 -19 -13 -10 0 -12 4 -5 12 5 7 7 15
3 19 -4 4 0 4 9 1 9 -4 15 -12 12 -19z m-2144 -52 c0 -8 -4 -12 -10 -9 -5 3
-10 10 -10 16 0 5 5 9 10 9 6 0 10 -7 10 -16z m27 -16 c-3 -8 -6 -5 -6 6 -1
11 2 17 5 13 3 -3 4 -12 1 -19z m2935 0 c-7 -7 -12 -8 -12 -2 0 14 12 26 19
19 2 -3 -1 -11 -7 -17z m-2942 -36 c0 -15 -2 -15 -10 -2 -13 20 -13 33 0 25 6
-3 10 -14 10 -23z m2910 6 c0 -16 -3 -19 -11 -11 -6 6 -8 16 -5 22 11 17 16
13 16 -11z m-2870 -15 c0 -19 -3 -24 -10 -17 -6 6 -8 18 -4 27 9 24 14 21 14
-10z m2844 -2 c7 -11 -32 -56 -41 -47 -4 4 -3 10 3 14 6 4 13 15 17 25 7 19
13 21 21 8z m-54 -61 c0 -5 -4 -10 -10 -10 -5 0 -10 5 -10 10 0 6 5 10 10 10
6 0 10 -4 10 -10z m-2703 -32 c-3 -7 -5 -2 -5 12 0 14 2 19 5 13 2 -7 2 -19 0
-25z m2673 -17 c0 -6 -4 -13 -10 -16 -5 -3 -10 1 -10 9 0 9 5 16 10 16 6 0 10
-4 10 -9z m-710 -61 c-5 -22 -8 -27 -9 -13 -1 21 9 56 14 51 2 -2 0 -19 -5
-38z m700 15 c0 -8 -2 -15 -4 -15 -2 0 -6 7 -10 15 -3 8 -1 15 4 15 6 0 10 -7
10 -15z m-2050 -103 c8 1 23 0 34 0 16 -2 16 -4 -5 -26 -17 -17 -26 -21 -31
-13 -5 7 -8 0 -8 -16 0 -18 4 -26 11 -21 6 3 3 -8 -5 -25 -9 -17 -20 -31 -25
-31 -19 0 -51 -39 -51 -62 0 -26 -31 -70 -46 -67 -17 4 -44 -13 -44 -28 0 -9
-6 -13 -14 -10 -10 4 -19 -4 -27 -22 -8 -17 -18 -27 -26 -24 -8 3 -13 -3 -13
-16 0 -12 4 -21 9 -21 4 0 6 -11 3 -25 -2 -14 -8 -25 -13 -25 -5 0 -9 -5 -9
-10 0 -6 -9 -20 -20 -32 -11 -12 -20 -18 -20 -14 0 5 -9 -3 -21 -18 -23 -29
-33 -94 -17 -114 8 -9 7 -11 -4 -7 -10 4 -17 -1 -21 -15 -3 -12 -10 -19 -16
-16 -14 9 -24 -11 -25 -51 -1 -39 16 -43 32 -7 7 15 17 22 24 18 7 -5 9 -2 5
9 -4 11 1 18 16 23 12 4 27 14 34 23 7 9 13 12 13 7 0 -5 6 -4 13 1 6 6 20 13
29 16 15 5 15 3 1 -31 -8 -20 -20 -43 -25 -49 -7 -9 -5 -21 6 -38 9 -14 15
-33 14 -43 -2 -13 5 -18 35 -20 24 -2 35 -7 31 -14 -4 -6 -7 -25 -6 -42 1 -22
-2 -26 -8 -16 -7 11 -10 3 -10 -25 0 -29 -3 -36 -10 -25 -12 19 -20 10 -27
-31 -8 -43 -7 -95 2 -137 7 -30 5 -34 -11 -30 -11 2 -21 15 -25 33 -4 17 -7
22 -8 11 -1 -12 -6 -16 -17 -12 -9 3 -20 6 -25 6 -5 0 -9 15 -10 33 0 29 -1
30 -9 10 -11 -27 -12 -27 -50 -8 -30 15 -36 32 -31 84 2 21 1 22 -13 8 -17
-17 -20 -37 -8 -53 4 -5 -5 4 -20 21 -15 16 -34 48 -43 70 -9 22 -24 54 -32
72 -9 18 -13 40 -9 49 8 21 21 10 21 -19 0 -11 5 -22 12 -24 8 -3 8 6 1 37
l-11 41 -23 -21 c-17 -17 -30 -20 -51 -16 -26 6 -29 10 -25 36 2 17 8 27 13
24 5 -3 9 4 9 15 0 24 19 38 30 21 5 -8 9 -7 13 5 4 9 3 13 -3 10 -6 -3 -10 1
-10 10 0 9 5 13 10 10 6 -3 10 3 10 14 0 12 4 21 9 21 5 0 11 14 15 31 5 28 8
30 23 18 15 -13 16 -12 11 9 -4 12 -3 22 1 22 4 0 13 16 20 36 10 27 16 33 22
23 9 -15 13 -6 10 23 -2 13 2 16 15 11 12 -5 15 -3 9 6 -7 13 37 61 57 61 4 0
8 4 8 10 0 13 48 59 54 52 3 -3 6 -3 6 1 0 3 -7 13 -16 22 -9 9 -13 19 -9 23
3 4 13 -2 21 -12 12 -17 14 -18 14 -3 0 9 -4 17 -10 17 -5 0 -10 5 -10 11 0 6
7 9 15 5 8 -3 14 -2 12 2 -3 11 39 62 52 62 6 0 11 8 11 17 0 9 3 14 6 10 8
-7 64 47 64 62 0 6 7 11 15 11 8 0 15 7 15 15 0 14 12 20 33 16 5 -1 6 3 3 8
-3 5 1 11 9 15 8 3 15 13 15 21 0 9 5 13 10 10 6 -3 10 4 10 17 0 14 3 18 8
11 4 -6 14 -11 22 -11z m-190 -108 c0 -8 -5 -12 -10 -9 -6 4 -8 11 -5 16 9 14
15 11 15 -7z m-26 -29 c-6 -16 -24 -21 -24 -7 0 11 11 22 21 22 5 0 6 -7 3
-15z m2036 -105 c-8 -5 -17 -7 -19 -4 -3 3 1 9 9 14 8 5 17 7 19 4 3 -3 -1 -9
-9 -14z m-410 -15 c0 -11 -29 -11 -33 -1 -4 10 1 12 14 9 10 -3 19 -7 19 -8z
m276 -37 c-9 -12 -16 -17 -16 -10 0 18 24 54 28 42 2 -5 -4 -20 -12 -32z
m-1136 22 c0 -5 -2 -10 -4 -10 -3 0 -8 5 -11 10 -3 6 -1 10 4 10 6 0 11 -4 11
-10z m-870 -56 c0 -8 -5 -12 -10 -9 -6 4 -8 11 -5 16 9 14 15 11 15 -7z m670
-14 c0 -5 -5 -10 -11 -10 -5 0 -7 5 -4 10 3 6 8 10 11 10 2 0 4 -4 4 -10z
m1277 -12 c-3 -8 -6 -5 -6 6 -1 11 2 17 5 13 3 -3 4 -12 1 -19z m-210 -30 c-3
-7 -5 -2 -5 12 0 14 2 19 5 13 2 -7 2 -19 0 -25z m-320 -10 c-3 -8 -6 -5 -6 6
-1 11 2 17 5 13 3 -3 4 -12 1 -19z m283 6 c0 -8 -5 -12 -10 -9 -6 4 -8 11 -5
16 9 14 15 11 15 -7z m23 -29 c-7 -21 -13 -19 -13 6 0 11 4 18 10 14 5 -3 7
-12 3 -20z m-502 -49 c-14 -17 -51 -28 -51 -15 0 5 5 9 11 9 5 0 7 5 4 10 -4
6 5 10 21 10 21 0 24 -3 15 -14z m-61 -11 c0 -8 -4 -15 -10 -15 -5 0 -10 7
-10 15 0 8 5 15 10 15 6 0 10 -7 10 -15z m671 -20 c-10 -5 -16 -17 -13 -25 4
-12 3 -13 -10 -2 -13 10 -14 17 -5 36 9 19 14 22 29 12 17 -10 17 -11 -1 -21z
m-1646 -9 c-10 -14 -22 -26 -27 -26 -10 0 -3 16 20 43 22 25 27 13 7 -17z
m242 -8 c-3 -8 -6 -5 -6 6 -1 11 2 17 5 13 3 -3 4 -12 1 -19z m621 10 c-6 -18
-28 -21 -28 -4 0 9 7 16 16 16 9 0 14 -5 12 -12z m695 -10 c3 -10 1 -18 -4
-18 -5 0 -9 4 -9 10 0 5 -7 7 -15 4 -9 -4 -15 0 -15 9 0 22 38 17 43 -5z
m-1193 -22 c0 -3 -4 -8 -10 -11 -5 -3 -10 -1 -10 4 0 6 5 11 10 11 6 0 10 -2
10 -4z m252 -18 c-7 -7 -12 -8 -12 -2 0 6 3 14 7 17 3 4 9 5 12 2 2 -3 -1 -11
-7 -17z m-665 -6 c-10 -10 -17 -25 -17 -32 0 -7 -3 -10 -7 -7 -8 9 17 57 30
57 6 0 3 -8 -6 -18z m-193 -118 c3 -8 2 -12 -4 -9 -6 3 -10 10 -10 16 0 14 7
11 14 -7z m1996 -199 c0 -8 -4 -15 -10 -15 -5 0 -7 7 -4 15 4 8 8 15 10 15 2
0 4 -7 4 -15z m21 -88 c-10 -9 -11 -8 -5 6 3 10 9 15 12 12 3 -3 0 -11 -7 -18z
m9 -41 c0 -3 -4 -8 -10 -11 -5 -3 -10 -1 -10 4 0 6 5 11 10 11 6 0 10 -2 10
-4z m-2313 -68 c-3 -8 -6 -5 -6 6 -1 11 2 17 5 13 3 -3 4 -12 1 -19z m-662
-28 c3 -5 -1 -10 -9 -10 -9 0 -16 5 -16 10 0 6 4 10 9 10 6 0 13 -4 16 -10z
m865 -10 c0 -5 -5 -10 -11 -10 -5 0 -7 5 -4 10 3 6 8 10 11 10 2 0 4 -4 4 -10z
m350 -63 c0 -24 -17 -29 -23 -7 -3 10 0 21 7 24 6 2 3 5 -6 5 -10 1 -18 8 -18
17 0 8 -4 12 -10 9 -11 -7 -14 8 -4 18 9 8 54 -47 54 -66z m-1220 33 c0 -5 -2
-10 -4 -10 -3 0 -8 5 -11 10 -3 6 -1 10 4 10 6 0 11 -4 11 -10z m1070 0 c0 -5
-2 -10 -4 -10 -3 0 -8 5 -11 10 -3 6 -1 10 4 10 6 0 11 -4 11 -10z m-238 -32
c-8 -8 -9 -4 -5 13 4 13 8 18 11 10 2 -7 -1 -18 -6 -23z m221 6 c-3 -15 -20
-15 -26 0 -4 9 0 13 11 12 9 -2 16 -7 15 -12z m127 -30 c0 -8 -4 -14 -8 -14
-4 0 -8 9 -8 19 0 11 4 17 8 15 4 -3 8 -12 8 -20z m-95 -23 c3 -11 3 -31 -1
-46 -6 -23 -10 -26 -35 -21 -35 7 -38 -1 -5 -14 23 -8 24 -12 19 -77 -6 -93
-12 -133 -22 -133 -5 0 -12 -7 -15 -16 -4 -11 -2 -15 8 -11 10 4 12 0 9 -14
-12 -44 -61 -11 -77 51 -7 24 -6 24 8 6 9 -11 16 -15 16 -8 0 7 -9 17 -20 24
-25 16 -115 135 -124 165 -9 29 13 103 31 103 8 0 32 -9 54 -21 23 -11 38 -16
34 -10 -3 6 -1 11 4 11 6 0 11 -6 11 -12 0 -9 4 -8 10 2 6 10 10 11 10 3 0 -7
5 -13 11 -13 5 0 8 4 4 10 -3 5 7 16 22 24 37 20 41 20 48 -3z m-1028 -113
c-3 -8 -6 -5 -6 6 -1 11 2 17 5 13 3 -3 4 -12 1 -19z m168 -13 c0 -10 -6 -20
-12 -22 -8 -3 -13 5 -13 22 0 17 5 25 13 23 6 -3 12 -13 12 -23z m607 -36 c15
-20 26 -42 24 -50 -3 -20 -25 -56 -26 -42 0 16 -31 5 -47 -16 -7 -9 -13 -27
-13 -41 -1 -16 -4 -20 -7 -10 -4 8 -14 22 -23 30 -12 11 -16 25 -13 50 3 27 2
31 -6 20 -6 -8 -11 -24 -12 -35 l0 -20 -8 20 c-5 11 -5 28 0 37 5 9 9 28 9 42
0 19 5 26 19 26 10 0 29 9 42 19 13 11 26 17 30 13 3 -4 17 -23 31 -43z m-149
-17 c-6 -24 -23 -30 -23 -9 0 13 21 39 26 34 2 -2 1 -13 -3 -25z m-508 -60
c-7 -8 -35 7 -35 18 0 6 7 6 20 -2 10 -7 17 -14 15 -16z m-158 12 c-3 -3 -12
-4 -19 -1 -8 3 -5 6 6 6 11 1 17 -2 13 -5z m100 0 c-3 -3 -12 -4 -19 -1 -8 3
-5 6 6 6 11 1 17 -2 13 -5z m563 -24 c0 -5 -2 -10 -4 -10 -3 0 -8 5 -11 10 -3
6 -1 10 4 10 6 0 11 -4 11 -10z m227 -37 c-3 -3 -11 -2 -17 2 -9 6 -9 10 1 16
14 8 27 -7 16 -18z m-952 7 c3 -5 1 -10 -4 -10 -6 0 -11 5 -11 10 0 6 2 10 4
10 3 0 8 -4 11 -10z m45 -6 c0 -8 -4 -12 -10 -9 -5 3 -10 10 -10 16 0 5 5 9
10 9 6 0 10 -7 10 -16z m689 -47 c-1 -17 -2 -18 -6 -4 -2 9 -9 15 -14 12 -5
-3 -6 1 -3 9 8 22 24 10 23 -17z m28 -9 c-3 -8 -6 -5 -6 6 -1 11 2 17 5 13 3
-3 4 -12 1 -19z m-617 -8 c0 -5 -2 -10 -4 -10 -3 0 -8 5 -11 10 -3 6 -1 10 4
10 6 0 11 -4 11 -10z m783 3 c-7 -2 -19 -2 -25 0 -7 3 -2 5 12 5 14 0 19 -2
13 -5z m-718 -13 c3 -5 1 -10 -4 -10 -6 0 -11 5 -11 10 0 6 2 10 4 10 3 0 8
-4 11 -10z m-90 -10 c3 -5 2 -10 -4 -10 -5 0 -13 5 -16 10 -3 6 -2 10 4 10 5
0 13 -4 16 -10z m69 -5 c11 -8 15 -15 9 -15 -19 0 -43 12 -43 21 0 13 12 11
34 -6z m656 -23 c0 -15 2 -15 10 -2 5 8 10 10 10 5 0 -6 -5 -16 -11 -22 -8 -8
-8 -17 1 -33 6 -12 9 -24 7 -27 -3 -2 -11 6 -18 19 -14 25 -19 89 -6 81 4 -2
7 -12 7 -21z m40 -67 c0 -8 -2 -15 -4 -15 -2 0 -6 7 -10 15 -3 8 -1 15 4 15 6
0 10 -7 10 -15z m336 -91 c-4 -14 -9 -24 -12 -21 -3 2 -2 17 2 31 3 15 9 25
11 22 3 -3 2 -17 -1 -32z m-274 -26 c-7 -7 -12 -8 -12 -2 0 14 12 26 19 19 2
-3 -1 -11 -7 -17z m272 -53 c3 -8 1 -15 -4 -15 -6 0 -10 7 -10 15 0 8 2 15 4
15 2 0 6 -7 10 -15z m-27 -67 c-3 -7 -5 -2 -5 12 0 14 2 19 5 13 2 -7 2 -19 0
-25z m-440 -224 c-9 -9 -28 6 -21 18 4 6 10 6 17 -1 6 -6 8 -13 4 -17z"/>
        <path d="M862 3620 c-18 -29 -15 -33 8 -10 21 21 25 30 12 30 -4 0 -13 -9 -20
-20z"/>
        <path d="M890 3491 c0 -5 5 -13 10 -16 6 -3 10 -2 10 4 0 5 -4 13 -10 16 -5 3
-10 2 -10 -4z"/>
        <path d="M871 3442 c0 -24 1 -25 9 -7 7 17 9 17 9 3 1 -24 21 -23 21 1 0 10
-9 21 -20 24 -16 4 -20 0 -19 -21z"/>
        <path d="M792 3325 c0 -16 2 -22 5 -12 2 9 2 23 0 30 -3 6 -5 -1 -5 -18z"/>
        <path d="M751 3310 c0 -33 1 -34 11 -12 8 17 8 26 0 34 -9 9 -12 4 -11 -22z"/>
        <path d="M767 3266 c-4 -10 -7 -25 -6 -34 0 -11 4 -9 10 7 5 13 8 29 6 35 -2
5 -6 2 -10 -8z"/>
        <path d="M3390 3668 c0 -9 5 -20 10 -23 13 -8 13 5 0 25 -8 13 -10 13 -10 -2z"/>
        <path d="M3380 3603 c0 -13 5 -23 10 -23 13 0 13 11 0 30 -8 12 -10 11 -10 -7z"/>
        <path d="M3382 3525 c-2 -21 2 -35 9 -35 6 0 9 9 6 20 -3 10 0 21 6 23 6 2 7
9 3 15 -13 21 -22 13 -24 -23z"/>
        <path d="M1981 3524 c0 -11 3 -14 6 -6 3 7 2 16 -1 19 -3 4 -6 -2 -5 -13z"/>
        <path d="M1850 3400 c0 -5 5 -10 10 -10 6 0 10 5 10 10 0 6 -4 10 -10 10 -5 0
-10 -4 -10 -10z"/>
        <path d="M1586 3375 c-3 -8 -1 -15 4 -15 6 0 10 7 10 15 0 8 -2 15 -4 15 -2 0
-6 -7 -10 -15z"/>
        <path d="M1682 3350 c7 -10 14 -18 15 -16 6 6 -9 36 -18 36 -5 0 -4 -9 3 -20z"/>
        <path d="M1615 3330 c3 -5 10 -10 16 -10 5 0 9 5 9 10 0 6 -7 10 -16 10 -8 0
-12 -4 -9 -10z"/>
        <path d="M1632 3285 c0 -16 2 -22 5 -12 2 9 2 23 0 30 -3 6 -5 -1 -5 -18z"/>
        <path d="M1667 3277 c-4 -10 -7 -28 -7 -40 1 -20 2 -20 11 -4 6 10 9 28 7 40
-3 20 -4 20 -11 4z"/>
        <path d="M1330 3265 c0 -8 9 -15 20 -15 11 0 20 2 20 5 0 2 -9 9 -20 15 -16 9
-20 8 -20 -5z"/>
        <path d="M1513 3222 c-6 -4 -15 -20 -18 -35 -6 -20 -4 -27 8 -27 8 0 18 -6 20
-12 3 -7 5 1 4 17 0 17 3 38 7 48 8 18 -1 22 -21 9z"/>
        <path d="M1664 3183 c6 -27 6 -27 -9 -9 -14 19 -15 18 -15 -12 0 -37 9 -40 34
-13 12 13 14 21 6 26 -6 4 -9 13 -6 21 3 8 1 14 -5 14 -7 0 -9 -11 -5 -27z"/>
        <path d="M1545 3170 c3 -5 8 -10 11 -10 2 0 4 5 4 10 0 6 -5 10 -11 10 -5 0
-7 -4 -4 -10z"/>
        <path d="M2450 3170 c0 -5 5 -10 10 -10 6 0 10 5 10 10 0 6 -4 10 -10 10 -5 0
-10 -4 -10 -10z"/>
        <path d="M1584 2969 c-7 -11 4 -29 18 -29 6 0 18 -8 27 -17 9 -10 28 -18 43
-18 23 -1 25 2 15 15 -16 20 -49 50 -56 51 -3 0 -14 2 -23 4 -10 2 -20 -1 -24
-6z"/>
        <path d="M2595 2910 c-3 -5 -1 -10 4 -10 6 0 11 5 11 10 0 6 -2 10 -4 10 -3 0
-8 -4 -11 -10z"/>
        <path d="M1570 2880 c0 -6 12 -15 26 -20 33 -13 33 -13 27 10 -6 21 -53 30
-53 10z"/>
        <path d="M1710 2884 c0 -13 18 -39 24 -34 2 3 -2 14 -10 24 -8 11 -14 16 -14
10z"/>
        <path d="M1745 2830 c-5 -8 -4 -15 3 -18 6 -2 8 -11 5 -20 -4 -13 -3 -14 6 -6
8 7 9 19 3 34 -7 18 -11 20 -17 10z"/>
        <path d="M2525 2829 c-10 -15 3 -25 16 -12 7 7 7 13 1 17 -6 3 -14 1 -17 -5z"/>
        <path d="M1650 2811 c0 -6 5 -13 10 -16 6 -3 10 1 10 9 0 9 -4 16 -10 16 -5 0
-10 -4 -10 -9z"/>
        <path d="M1604 2787 c3 -10 6 -21 6 -23 0 -2 9 -4 20 -4 13 0 20 -7 20 -20 0
-11 5 -20 10 -20 6 0 10 5 10 11 0 17 -36 59 -44 51 -4 -3 -12 0 -17 8 -9 12
-10 12 -5 -3z"/>
        <path d="M1760 2759 c0 -6 -11 -20 -25 -31 -35 -27 -31 -41 8 -25 17 8 37 12
43 10 6 -2 11 9 12 27 0 23 -4 30 -19 30 -10 0 -19 -5 -19 -11z"/>
        <path d="M2481 2744 c0 -11 3 -14 6 -6 3 7 2 16 -1 19 -3 4 -6 -2 -5 -13z"/>
        <path d="M1535 2721 c-3 -5 -1 -12 5 -16 5 -3 10 1 10 9 0 18 -6 21 -15 7z"/>
        <path d="M1680 2708 c0 -7 5 -20 10 -28 8 -12 10 -9 10 13 0 15 -4 27 -10 27
-5 0 -10 -6 -10 -12z"/>
        <path d="M1840 2711 c0 -5 8 -11 18 -14 14 -3 13 -6 -8 -14 -14 -6 -33 -14
-42 -17 -10 -3 -18 -14 -18 -25 0 -11 -5 -23 -11 -27 -8 -4 -9 0 -4 15 11 34
-5 24 -21 -14 -8 -19 -19 -35 -24 -35 -6 0 -10 -7 -10 -16 0 -14 -3 -14 -15
-4 -12 10 -15 10 -15 -1 0 -11 -2 -11 -10 1 -5 8 -12 12 -15 8 -6 -6 25 -59
65 -110 12 -15 37 -62 56 -104 36 -76 36 -76 52 -53 24 35 36 46 59 53 22 7
40 42 29 54 -4 3 -9 -4 -13 -16 -3 -12 -10 -19 -15 -16 -5 3 -2 14 8 25 20 22
34 25 34 6 0 -7 8 -13 18 -14 23 -2 47 74 30 94 -5 7 -7 16 -4 21 9 15 -66
154 -99 184 -31 29 -45 34 -45 19z m40 -220 c0 -5 -7 -14 -15 -21 -16 -14 -18
-10 -9 14 6 17 24 22 24 7z m-132 -26 c-3 -3 -9 2 -12 12 -6 14 -5 15 5 6 7
-7 10 -15 7 -18z m117 -95 c3 -5 1 -10 -4 -10 -6 0 -11 5 -11 10 0 6 2 10 4
10 3 0 8 -4 11 -10z"/>
        <path d="M681 3239 c1 -13 -1 -31 -5 -40 -4 -10 -2 -18 6 -21 9 -4 13 5 12 33
0 21 -4 42 -7 46 -4 3 -6 -4 -6 -18z"/>
        <path d="M1245 1370 c3 -5 8 -10 11 -10 2 0 4 5 4 10 0 6 -5 10 -11 10 -5 0
-7 -4 -4 -10z"/>
        <path d="M973 1333 c-15 -5 -17 -29 -4 -37 5 -3 11 5 13 19 3 14 5 25 4 24 0
0 -7 -3 -13 -6z"/>
        <path d="M985 1290 c-3 -11 0 -31 8 -46 14 -27 15 -27 26 -6 7 14 8 23 1 27
-5 3 -10 1 -10 -5 0 -6 -4 -9 -10 -5 -18 11 1 36 24 30 11 -2 15 -2 8 1 -6 3
-10 9 -8 13 3 4 -4 7 -14 8 -11 1 -22 -7 -25 -17z"/>
        <path d="M1181 956 c-10 -12 -9 -14 5 -12 10 2 20 8 22 14 5 17 -13 15 -27 -2z"/>
        <path d="M1150 710 c0 -5 5 -10 10 -10 6 0 10 5 10 10 0 6 -4 10 -10 10 -5 0
-10 -4 -10 -10z"/>
        <path d="M3070 4101 c0 -5 7 -11 15 -15 9 -3 15 0 15 9 0 8 -7 15 -15 15 -8 0
-15 -4 -15 -9z"/>
        <path d="M795 3951 c3 -5 -4 -12 -15 -16 -14 -5 -20 -15 -20 -38 0 -21 -3 -27
-9 -19 -8 13 -23 -20 -52 -113 -6 -22 -16 -49 -21 -60 -16 -36 -46 -210 -37
-219 14 -15 39 21 39 57 0 20 8 44 20 57 22 25 26 35 10 25 -5 -3 -10 -1 -10
4 0 6 4 11 9 11 5 0 8 12 7 27 -3 28 -2 33 27 91 9 19 17 39 17 46 0 6 9 18
20 26 15 11 17 17 8 27 -9 11 -8 13 3 11 8 -2 14 4 14 12 0 8 4 21 8 28 5 6 5
17 2 22 -3 6 -2 10 4 10 16 0 24 -21 12 -33 -6 -6 -11 -15 -11 -20 0 -5 10 3
22 18 21 27 21 28 3 41 -21 16 -59 19 -50 5z"/>
        <path d="M690 3539 c0 -5 5 -7 10 -4 6 3 10 8 10 11 0 2 -4 4 -10 4 -5 0 -10
-5 -10 -11z"/>
        <path d="M773 2906 c0 -14 6 -31 15 -38 13 -11 14 -9 8 17 -10 40 -23 52 -23
21z"/>
        <path d="M3022 2883 c-17 -30 -15 -37 4 -19 8 9 14 22 11 29 -2 7 -8 4 -15
-10z"/>
        <path d="M820 2849 c0 -17 50 -69 67 -69 7 0 13 -5 13 -10 0 -17 86 -54 106
-46 15 6 10 11 -25 23 -58 19 -88 39 -128 81 -18 19 -33 29 -33 21z"/>
        <path d="M1117 2733 c-4 -3 -7 -10 -7 -14 0 -9 39 1 46 12 6 10 -29 12 -39 2z"/>
        <path d="M1034 2719 c-3 -5 11 -9 31 -9 20 0 34 4 31 9 -3 5 -17 9 -31 9 -14
0 -28 -4 -31 -9z"/>
        <path d="M3050 2190 c-13 -8 31 -30 60 -30 11 0 20 -4 20 -10 0 -5 9 -10 20
-10 11 0 20 -4 20 -10 0 -5 5 -10 10 -10 23 0 8 27 -22 39 -75 31 -97 38 -108
31z"/>
        <path d="M2900 2115 c0 -8 7 -15 15 -15 8 0 15 -4 15 -8 0 -7 23 -8 49 -3 2 1
-3 9 -12 19 -21 23 -67 27 -67 7z"/>
        <path d="M3232 2113 c-6 -2 -10 -9 -7 -13 7 -11 35 -2 35 11 0 10 -8 10 -28 2z"/>
        <path d="M2781 2094 c0 -11 3 -14 6 -6 3 7 2 16 -1 19 -3 4 -6 -2 -5 -13z"/>
        <path d="M2600 1830 c0 -5 5 -10 11 -10 5 0 7 5 4 10 -3 6 -8 10 -11 10 -2 0
-4 -4 -4 -10z"/>
        <path d="M1510 1783 c0 -5 5 -15 10 -23 8 -12 10 -11 10 8 0 12 -4 22 -10 22
-5 0 -10 -3 -10 -7z"/>
        <path d="M2468 1783 c7 -3 16 -2 19 1 4 3 -2 6 -13 5 -11 0 -14 -3 -6 -6z"/>
        <path d="M1810 1672 c0 -18 5 -32 10 -32 6 0 8 11 4 28 -10 39 -14 40 -14 4z"/>
        <path d="M2101 1674 c0 -11 3 -14 6 -6 3 7 2 16 -1 19 -3 4 -6 -2 -5 -13z"/>
        <path d="M2770 1652 c0 -7 -3 -12 -7 -11 -26 4 -53 -16 -53 -37 0 -26 -14 -32
-24 -11 -3 6 -4 -7 -2 -31 3 -29 -1 -47 -11 -57 -22 -22 -24 -19 -17 25 5 31
3 40 -8 40 -21 0 -17 -64 5 -90 17 -20 17 -20 47 7 16 14 30 33 30 40 0 8 5
11 11 7 8 -4 9 1 4 16 -6 18 -4 22 8 17 11 -4 16 5 21 40 3 26 4 49 1 51 -3 3
-5 0 -5 -6z m-30 -53 c0 -6 -4 -7 -10 -4 -5 3 -10 11 -10 16 0 6 5 7 10 4 6
-3 10 -11 10 -16z"/>
        <path d="M1782 1580 c-15 -25 -15 -30 1 -30 22 0 38 16 31 33 -8 22 -16 21
-32 -3z"/>
        <path d="M2795 1550 c-3 -5 -1 -10 4 -10 6 0 11 5 11 10 0 6 -2 10 -4 10 -3 0
-8 -4 -11 -10z"/>
        <path d="M168 1433 c6 -2 18 -2 25 0 6 3 1 5 -13 5 -14 0 -19 -2 -12 -5z"/>
        <path d="M343 1004 c21 -14 43 -24 49 -22 6 2 -7 14 -31 26 -56 29 -64 28 -18
-4z"/>
        <path d="M1400 1016 c0 -9 -4 -16 -10 -16 -5 0 -10 -9 -10 -20 0 -11 5 -20 12
-20 6 0 8 3 5 7 -4 3 0 17 8 29 9 14 11 25 5 29 -6 3 -10 -1 -10 -9z"/>
        <path d="M416 965 c4 -9 0 -15 -7 -15 -10 -1 -9 -4 3 -11 10 -5 15 -16 12 -24
-4 -10 0 -15 10 -15 12 0 15 6 10 24 -3 14 -1 27 6 31 9 6 9 10 -1 16 -22 14
-39 10 -33 -6z"/>
        <path d="M480 910 c-8 -5 -11 -12 -8 -16 10 -9 38 3 38 16 0 12 -10 13 -30 0z"/>
        <path d="M581 901 c-9 -6 -5 -10 14 -15 15 -4 30 -5 32 -2 9 8 33 -21 34 -41
0 -10 3 -13 6 -5 2 6 11 12 19 12 8 0 14 3 14 6 0 11 -33 38 -48 41 -9 1 -25
4 -36 7 -12 3 -27 1 -35 -3z"/>
        <path d="M1383 860 c0 -25 2 -35 4 -22 2 12 2 32 0 45 -2 12 -4 2 -4 -23z"/>
        <path d="M475 850 c3 -5 8 -10 11 -10 2 0 4 5 4 10 0 6 -5 10 -11 10 -5 0 -7
-4 -4 -10z"/>
        <path d="M430 840 c0 -5 5 -10 10 -10 6 0 10 5 10 10 0 6 -4 10 -10 10 -5 0
-10 -4 -10 -10z"/>
        <path d="M509 838 c-6 -25 -6 -38 1 -38 12 0 20 29 10 35 -6 4 -10 5 -11 3z"/>
        <path d="M1437 785 c-4 -8 -2 -17 3 -20 6 -4 10 3 10 14 0 25 -6 27 -13 6z"/>
        <path d="M450 750 c0 -5 5 -10 10 -10 6 0 10 5 10 10 0 6 -4 10 -10 10 -5 0
-10 -4 -10 -10z"/>
        <path d="M550 736 c6 -8 18 -12 27 -9 12 5 12 7 1 14 -7 5 -19 9 -27 9 -11 0
-11 -3 -1 -14z"/>
        <path d="M480 730 c0 -5 5 -10 11 -10 5 0 7 5 4 10 -3 6 -8 10 -11 10 -2 0 -4
-4 -4 -10z"/>
        <path d="M603 723 c-22 -8 -15 -32 7 -26 20 5 26 18 13 26 -5 2 -14 2 -20 0z"/>
        <path d="M440 700 c6 -12 16 -17 27 -13 14 6 14 8 -3 20 -26 19 -36 16 -24 -7z"/>
        <path d="M490 670 c20 -13 33 -13 25 0 -3 6 -14 10 -23 10 -15 0 -15 -2 -2
-10z"/>
        <path d="M430 654 c-9 -10 -10 -18 -2 -26 12 -12 32 -2 32 17 0 21 -16 26 -30
9z"/>
        <path d="M1416 655 c4 -8 8 -15 10 -15 2 0 4 7 4 15 0 8 -4 15 -10 15 -5 0 -7
-7 -4 -15z"/>
        <path d="M3217 544 c-3 -58 -11 -112 -18 -120 -7 -8 -9 -27 -4 -50 4 -26 3
-34 -5 -29 -15 9 -4 -47 16 -86 14 -28 14 -159 -1 -212 -6 -22 -4 -27 10 -27
14 0 16 8 13 45 -2 25 0 45 4 45 4 0 7 12 7 28 0 15 3 89 7 165 4 91 3 137 -4
137 -7 0 -8 34 -5 99 4 60 2 100 -4 104 -6 4 -12 -34 -16 -99z"/>
        <path d="M1341 474 c0 -11 3 -14 6 -6 3 7 2 16 -1 19 -3 4 -6 -2 -5 -13z"/>
        <path d="M1360 450 c0 -19 3 -21 12 -12 9 9 9 15 0 24 -9 9 -12 7 -12 -12z"/>
        <path d="M1160 333 c0 -6 -3 -20 -6 -30 -7 -17 -6 -17 12 -1 14 14 16 21 6 30
-8 8 -12 9 -12 1z"/>
        <path d="M1435 310 c-8 -13 4 -32 16 -25 12 8 12 35 0 35 -6 0 -13 -4 -16 -10z"/>
        <path d="M3640 301 c0 -6 4 -12 8 -15 5 -3 9 1 9 9 0 8 -4 15 -9 15 -4 0 -8
-4 -8 -9z"/>
        <path d="M1161 264 c0 -11 3 -14 6 -6 3 7 2 16 -1 19 -3 4 -6 -2 -5 -13z"/>
        <path d="M1442 225 c0 -16 2 -22 5 -12 2 9 2 23 0 30 -3 6 -5 -1 -5 -18z"/>
        <path d="M3798 173 c7 -3 16 -2 19 1 4 3 -2 6 -13 5 -11 0 -14 -3 -6 -6z"/>
        <path d="M1431 154 c0 -11 3 -14 6 -6 3 7 2 16 -1 19 -3 4 -6 -2 -5 -13z"/>
        <path d="M3813 142 c-20 -12 2 -36 21 -25 14 8 15 11 4 21 -8 6 -19 8 -25 4z"/>
        <path d="M3773 128 c1 -7 -18 -16 -45 -22 -25 -6 -50 -14 -54 -18 -10 -11 25
-10 65 2 30 8 33 7 28 -10 -3 -13 0 -20 9 -20 10 0 14 12 14 40 0 22 -4 40
-10 40 -5 0 -9 -5 -7 -12z"/>
        <path d="M3593 80 c-1 -11 2 -18 8 -15 11 7 12 35 1 35 -4 0 -8 -9 -9 -20z"/>
        <path d="M3810 86 c0 -9 7 -16 16 -16 17 0 14 22 -4 28 -7 2 -12 -3 -12 -12z"/>
        <path d="M3630 75 c0 -9 5 -15 11 -13 6 2 11 8 11 13 0 5 -5 11 -11 13 -6 2
-11 -4 -11 -13z"/>
        <path d="M2411 37 c-40 -20 -38 -37 5 -37 28 0 35 3 27 11 -6 6 -9 18 -6 25 6
17 5 17 -26 1z"/>
        <path d="M2492 25 c0 -17 2 -22 5 -12 2 9 2 23 0 30 -3 6 -5 -1 -5 -18z"/>
    </g>
</svg>
